<svg version="1.1" id="Layer_1" xmlns="http://www.w3.org/2000/svg" xmlns:xlink="http://www.w3.org/1999/xlink" fill="white" x="0px" y="0px" width="137px" height="72px" viewBox="0 0 137 72" style="enable-background:new 0 0 137 72;" xml:space="preserve">
<title>Honda Racing</title>
<g id="Footer">
	<g id="Footer_Large_1400px" transform="translate(-1229.000000, -1499.000000)">
		<g id="Footer_links" transform="translate(0.000000, 553.000000)">
			<g id="blue-footer" transform="translate(0.000000, 734.000000)">
				<g id="Group-3" transform="translate(31.974724, 160.000000)">
					<g id="Honda-Racing" transform="translate(1197.380594, 52.500000)">
						<path id="Path" d="M108.3,36.3l2.5-8.9h-3.4c-0.6,0-1.1,0.4-1.2,0.9l-2.2,8H108.3z"></path>
						<path id="Shape" d="M55.3,30.6c-1.1,0-2.2,0.5-2.6,1.7l-0.7,2.4c-0.3,1.1,0.9,1.7,1.7,1.7h9.3l2-7.2c0.3-1-0.6-1.7-1.4-1.7
							l0,0h-7.3c-1.1,0-1.6,1.7-0.1,1.7h4.5l-0.4,1.4L55.3,30.6L55.3,30.6z M59.3,34.7h-2.9l0.6-2.4l0,0h2.9L59.3,34.7z"></path>
						<path d="M84.2,30.6c-1.1,0-2.2,0.5-2.6,1.7l-0.7,2.4c-0.3,1.1,0.9,1.7,1.7,1.7H92l2-7.2c0.3-1-0.6-1.7-1.4-1.7h-7.3
							c-1.1,0-1.6,1.7-0.1,1.7h4.5l-0.4,1.4L84.2,30.6L84.2,30.6z M88.2,34.7h-2.9l0,0l0.6-2.4l0,0h2.9l0,0L88.2,34.7z"></path>
						<path d="M95.3,36.3h6.4c1.2,0,1.6-1.7,0.2-1.7h-4.1l1.5-5.5h4.1c1.2,0,1.7-1.7,0.2-1.7h-6c-1.1,0-2.2,0.5-2.6,1.7l-1.5,5.5
							C93.2,35.8,94.4,36.3,95.3,36.3z"></path>
						<path d="M75.1,27.4h3l-0.8,3h-2l0,0l-0.3,1.7l0.7,4.3h4.8l-1-4.3c0.9-0.1,1.9-0.6,2.1-1.7l0.8-3c0.3-1.1-0.8-1.7-1.8-1.7h-9.4
							l-3,10.6h4.4L75.1,27.4z"></path>
						<path d="M106.1,39.6c0.5,0.1,1.4,0,2,0l0,0c0.3-0.4,0.8-0.7,1.2-1c0.1-0.1,0.3-0.3,0.5-0.6h-3.2c-0.3,0.4-0.8,1-1,1.3
							C105.7,39.5,105.9,39.6,106.1,39.6z"></path>
						<path d="M103,41.6c0.3,0.3,0.9,0.7,1.6,0.9l0,0c0.2-0.8,0.5-1.7,0.8-2.5c0-0.1,0.1-0.3,0.2-0.4c-0.3-0.2-0.6-0.5-0.9-0.7
							c-0.3-0.3-0.6-0.6-0.8-0.9h-2.1c0.5,0.4,1.1,1,1.2,1.2c0.4,0.7-0.1,1.4-0.5,2C102.7,41.3,102.8,41.5,103,41.6z"></path>
						<path d="M7.5,32.1h1.8l-1.2,4.3h4.3l2.9-10.6h-3.3c-0.5,0-1,0.4-1.2,0.9l-1,3.5H7.9C6.8,30.2,6.4,32.1,7.5,32.1z"></path>
						<path d="M111.5,42.6c-0.6-0.1-0.6-0.1-1.2-0.1l0,0c-0.2,0.3-0.5,0.6-0.9,1.2c-0.4,0.5-0.8,1.1-1.2,1.6h3.9
							c0.8-0.7,1.5-1.4,1.7-1.6c0.4-0.3,0.8-0.7,1.2-1C113.8,42.7,112.7,42.7,111.5,42.6z"></path>
						<path d="M110.5,42.1c0.2-0.3,0.4-0.7,0.6-1c0.3-0.5,0.4-1,0.8-1.4c-1.8-0.2-4.4,0.7-5.9,2.8h-0.7c-0.2,0-0.4-0.1-0.8-0.2
							c-0.3,1-1.1,1.8-2,2.4h2.4c0.1-0.2,0.2-0.4,0.3-0.6c0.8-1.1,2.1-2,3.5-2C109.1,42.1,110.1,42.1,110.5,42.1z"></path>
						<path d="M112.9,38.5c-0.3,0.4-0.7,0.9-1,1.3c0.7,0.1,1.6,0.2,2.3,0.4c1,0.3,2.4,0.5,3.5,0.6c0.6-0.8,1.2-1.4,1.8-2.2
							c0.3-0.2,0.5-0.4,0.8-0.6h-7.1C113.1,38.2,112.9,38.4,112.9,38.5z"></path>
						<path d="M127.3,27.4c-0.9,0-2.4,0.5-2.7,1.7l-1.6,5.3c-0.3,1.2,0.3,2,1.8,2h5l-0.3,1.1c-0.2,0.7-0.8,1-1.4,1h-3.6
							c-1.5,0-1.7,1.9-0.3,1.9h6.9c1.1,0,2.2-0.7,2.5-1.9l3.1-10.9H127.3z M130.2,34.6h-3l1.7-5.5h3L130.2,34.6z"></path>
						<path d="M41.2,36.3h9.4l3-10.6h-3.4l0,0c-0.5,0-1.1,0.4-1.2,0.9l-0.3,0.9h-5.2c-1.1,0-2.3,0.5-2.6,1.7l-1.5,5.4
							C39.1,35.8,40.3,36.3,41.2,36.3z M45.3,29.2h3l0,0l-1.5,5.4h-3L45.3,29.2z"></path>
						<path d="M121.4,27.4h-7.6c-1.1,0-2.1,0.5-2.5,1.7l-2.1,7.2h4.3l2-7.2h3l-2,7.2h4.3l2-7.2C123.1,28.1,122.2,27.4,121.4,27.4z"></path>
						<path d="M100.9,42.7c1.5-1.5,0.4-1.7-0.2-2.1c-0.7-0.4-2.2-0.3-2.9,0c0.2-0.1,0.5-0.5,0.7-0.7c0.2-0.2,1-1.2,1.5-2H0v6.7h95
							c0.1-0.2,0.2-0.5,0.2-0.7c0.1-0.4,0.3-0.8,0.5-1.1c-0.5-0.3-1.7-0.4-2.5-0.7c-0.4-0.2-0.4-0.2-0.7-0.3
							c0.2-0.3,0.3-0.4,0.5-0.6c0.3-0.5,1-1.2,1.4-1.8c0.2,0,0.5,0.1,0.7,0.2c0.5,0.2,0.9,0.2,1.5,0.5c0.2,0.1,0.9,0.4,1.1,0.6
							c-0.5,0.3-0.9,0.7-1.2,1.2c-0.2,0.3-0.4,0.6-0.5,1c1,0,2,0.1,2.6,0.4c0.4,0.3,0.6,0.7,0.5,1.3h2.9l0,0
							c-0.4-0.4-0.9-0.9-1.2-1.5C100.7,43.2,100.9,42.7,100.9,42.7z M61.6,43.8L61.6,43.8L61.6,43.8h-1.9v-4.9h1.9V43.8z M68.7,43.8
							L68.7,43.8L68.7,43.8h-1.9v-2.3h-4.8l0.4-0.7h4.4v-1.9h1.9L68.7,43.8L68.7,43.8z M76.4,42.2L76.4,42.2h-4.8l0.4-0.7h3.4
							c0.8,0,1.3-0.4,1.3-1c0-0.5-0.6-0.9-1.3-0.9h-4.3v4.2h-1.9v-4.9h7.2c1.2,0,2.2,0.8,2.2,1.7C78.6,41.5,77.6,42.2,76.4,42.2z
							 M84.7,43.8L84.7,43.8h-3.3l0.4-0.8H84c1.2,0,2.2-0.8,2.2-1.7c0-0.9-1-1.7-2.2-1.7h-3.1v4.2H79v-4.9h5.7
							c1.9,0,3.5,1.1,3.5,2.4C88.2,42.6,86.6,43.8,84.7,43.8z"></path>
						<path d="M31,36.3l2-7.2h3l-2,7.2h4.3l2-7.2c0.3-1.1-0.6-1.7-1.5-1.7h-7.6c-1.1,0-2.1,0.5-2.5,1.7l-2,7.2H31z"></path>
						<path d="M7.4,25.8H4c-0.6,0-1.1,0.4-1.2,0.9L0,36.3h4.3L7.4,25.8z"></path>
						<path d="M16,36.3h7.2c1.1,0,2.3-0.5,2.6-1.7l1.5-5.5c0.3-1.1-0.7-1.7-1.6-1.7h-7.4c-1.1,0-2.2,0.5-2.6,1.7l-1.5,5.5
							C13.9,35.8,15.1,36.3,16,36.3z M20,29.1L20,29.1H23l0,0l-1.5,5.5h-2.9L20,29.1z"></path>
					</g>
				</g>
			</g>
		</g>
	</g>
</g>
</svg>