<svg version="1.1" id="Layer_1" xmlns="http://www.w3.org/2000/svg"
                        xmlns:xlink="http://www.w3.org/1999/xlink" x="0px" y="0px"  fill="white" width="90px" height="95px" viewBox="0 0 91 72"
                        style="enable-background:new 0 0 91 72;" xml:space="preserve">
                        <title>Honda Powersports</title>
                        <g id="Footer">
                            <g id="Footer_Large_1400px" transform="translate(-340.000000, -1447.000000)">
                                <g id="Footer_links" transform="translate(0.000000, 553.000000)">
                                    <g id="blue-footer" transform="translate(0.000000, 734.000000)">
                                        <g id="Group-3" transform="translate(31.974724, 160.000000)">
                                            <g id="Honda-Powersports" transform="translate(308.181929, 0.000000)">
                                                <path id="Shape" d="M10.8,62.9l1.4,0.2c0.2,0,0.4,0.1,0.5,0.3c0.1,0.2,0.2,0.4,0.2,0.6v1.7H6.5V64c-0.1-0.4,0.2-0.8,0.6-0.9
                                                    l0,0l1.4-0.2v-1.4H0.5v1.4L1.8,63c0.2,0,0.4,0.1,0.5,0.3s0.2,0.4,0.2,0.6v5.3c0.1,0.4-0.2,0.8-0.6,0.9l0,0l-1.4,0.2v1.4h8.1
                                                    v-1.4l-1.4-0.2c-0.2,0-0.4-0.1-0.5-0.3c-0.1-0.2-0.2-0.4-0.2-0.6l0,0v-1.6h6.3v1.6c0.1,0.4-0.2,0.8-0.6,0.9l0,0l-1.4,0.2v1.4
                                                    h8.1v-1.4l-1.4-0.2c-0.2,0-0.4-0.1-0.5-0.3c-0.1-0.2-0.2-0.4-0.2-0.6l0,0V64c-0.1-0.4,0.2-0.8,0.6-0.9l0,0l1.4-0.2v-1.4h-8.1
                                                    V62.9z M65,61.5H55v1.4l1.2,0.1c0.2,0,0.4,0.1,0.6,0.2s0.2,0.4,0.2,0.6v5.4c0.1,0.4-0.2,0.8-0.7,0.9l0,0l-1.4,0.2v1.4H65
                                                    c3.6,0,6.6-1.5,6.6-5.1S68.7,61.5,65,61.5L65,61.5z M64.3,69.7h-3.4v-6.2h5.4c2,0,2.7,0.9,2.7,3.1
                                                    C67,68.8,66.3,69.7,64.3,69.7L64.3,69.7z M88.8,70.1c-0.5-0.1-0.9-0.4-1.1-0.8L83,62.2c-0.2-0.4-0.6-0.7-1.1-0.7h-7.7v1.4
                                                    l1.8,0.2c0.2,0,0.3,0.2,0.4,0.3c0.1,0.2,0,0.4-0.1,0.5l-3.5,5.6c-0.1,0.3-0.4,0.5-0.7,0.5l-1.4,0.2v1.4h6.5v-1.4l-1.1-0.1
                                                    c-0.5,0-0.7-0.4-0.5-0.8l0.5-0.8h6.3l0.5,0.7c0.4,0.6-0.1,0.9-0.5,0.9l-1.2,0.1v1.4H90v-1.4L88.8,70.1L88.8,70.1z M77.3,66.7
                                                    l1.9-3.1l2,3.1H77.3z M47.7,62.9l1.4,0.2c0.2,0,0.4,0.1,0.5,0.3c0.1,0.2,0.2,0.4,0.2,0.6V69l-5.4-7c-0.2-0.3-0.6-0.5-1-0.4h-7
                                                    v1.4l1.4,0.2c0.2,0,0.4,0.1,0.5,0.3s0.2,0.4,0.2,0.6v5.3c0.1,0.4-0.2,0.8-0.6,0.9l0,0l-1.4,0.2v1.4h6.5v-1.4l-1.4-0.2
                                                    c-0.4-0.1-0.7-0.4-0.7-0.9v-5.1l5.4,7.1c0.2,0.3,0.6,0.5,1,0.4h4.9V64c-0.1-0.4,0.2-0.8,0.6-0.9l0,0l1.4-0.2v-1.4h-6.5V62.9z
                                                     M27.6,61.2c-6.6,0-8.3,2.9-8.3,5.4c0,2.5,1.7,5.4,8.3,5.4s8.3-2.9,8.3-5.4C35.9,64.1,34.2,61.2,27.6,61.2L27.6,61.2z
                                                     M27.6,70.1c-2.6,0-3.6-1.1-3.6-3.5c0-2.4,1.1-3.5,3.6-3.5s3.6,1.1,3.6,3.5C31.3,69,30.2,70.1,27.6,70.1L27.6,70.1z
                                                     M24.1,59.6l-4.9-4.5l24.7-2.8l12,7.4L24.1,59.6L24.1,59.6z M65.7,40.3L13.7,50l4.5,4.2l24-3c-0.3-0.1-0.5-0.4-0.5-0.7
                                                    c0-0.3,0.3-0.6,0.6-0.6l14.2-2.1c0.9-0.1,1.8-0.4,2.7-0.8c0.8-0.4,1.6-0.9,2.3-1.5c0.3-0.3,1.4-1.4,2-2.1l1.1-1.3
                                                    c0.3-0.4,1-1.2,1.3-1.5c0-0.1,0-0.1,0-0.2C65.9,40.4,65.8,40.4,65.7,40.3L65.7,40.3z M73.9,28.9l-65,16.7l3.9,3.6l20-3.8
                                                    c-0.3-0.1-0.5-0.4-0.5-0.7c0-0.3,0.2-0.6,0.5-0.6l32.5-6.3c1-0.2,1.9-0.5,2.7-1.1c0.7-0.5,1.4-1,2-1.7
                                                    c0.4-0.5,1.2-1.5,1.8-2.2c0.6-0.7,0.8-1.1,1.1-1.5c0.3-0.4,1-1.5,1.3-2.1c0,0,0-0.1,0-0.2c0-0.1,0-0.1-0.1-0.1
                                                    C74,29,73.9,29,73.9,28.9L73.9,28.9z M65.3,10.1c0.9-0.4,5.3-2.2,6.2-2.6l4.9-2.2c1.2-0.5,4.6-2.1,5.1-2.4
                                                    c2.4-1.2,5.4-2.6,6-2.9c0.1,0,0.2,0,0.3,0s0.1,0.2,0.1,0.3C87.3,2,86.7,3.6,86,5.1c-0.5,1.1-1,2.3-1.6,3.3
                                                    c-0.5,0.9-1.2,1.7-2,2.4c-0.9,0.9-2,1.6-3.2,2.1l-3,1.1c-0.2,0-3.8,1.5-4.6,1.7L7.5,38.3c-1.5,0.5-3.3,1.5-3.3,3.5
                                                    c0.1,1.1,0.6,2.1,1.5,2.9l16.2,15h-7.5c-0.2-0.5-0.4-1-0.6-1.5c-0.3-0.6-0.8-1.2-1.3-1.6c-0.6-0.6-1.3-1.3-1.5-1.5l-8.6-8.5
                                                    C0.9,45,0.1,43.1,0,41c0-2.6,1.4-5,5.7-6.7L65.3,10.1z M72.3,18.7l2.9-1l2.4-0.9c1.2-0.4,2.3-0.9,3.5-1.4c0.1,0,0.2,0,0.2,0
                                                    c0.1,0.1,0.1,0.2,0.1,0.2c-0.1,0.3-0.9,1.9-1.1,2.3c-0.5,1-1,1.8-1.5,2.7c-0.5,0.8-1.2,1.8-1.6,2.3c-0.7,0.8-1.4,1.5-2.3,2.1
                                                    c-0.9,0.6-1.9,1-3,1.3L24.7,39.1c-0.3,0.1-0.5,0.3-0.5,0.6c0,0.3,0.2,0.6,0.5,0.7L8,44.8l-1.4-1.3c-0.4-0.4-0.7-0.9-0.7-1.5
                                                    c0-1.2,1-1.8,2.4-2.3L72.3,18.7z"></path>
                                            </g>
                                        </g>
                                    </g>
                                </g>
                            </g>
                        </g>
                    </svg>