<svg version="1.1" id="Layer_1" xmlns="http://www.w3.org/2000/svg" xmlns:xlink="http://www.w3.org/1999/xlink" fill="white" x="0px" y="0px" width="85px" height="72px" viewBox="0 0 85 72" style="enable-background:new 0 0 85 72;" xml:space="preserve">
<title>Honda Jet</title>
<g id="Footer">
	<g id="Footer_Large_1400px" transform="translate(-888.000000, -1463.000000)">
		<g id="Footer_links" transform="translate(0.000000, 553.000000)">
			<g id="blue-footer" transform="translate(0.000000, 734.000000)">
				<g id="Group-3" transform="translate(31.974724, 160.000000)">
					<g id="Honda-Jet-2" transform="translate(856.342175, 16.500000)">
						<path id="Shape" d="M11.9,58.1c0,0,8.7-14.1,10.8-14.8l0-0.1c-0.9,0-1.7,0.2-2.5,0.7c-1.7,1-4.3,4.6-6.2,7.4H9.1
							c0.4-0.7,3.5-5.6,3.5-5.6H6.1l-0.3,0.4h3.8c0.2,0,0.6,0.1,0.3,0.6c0,0-7.4,11.5-8.8,12.8c-0.3,0.3-0.7,0.5-1.1,0.6v0.1
							c0.9,0,1.7-0.2,2.4-0.7c2.3-1.4,4.8-5.2,6.5-7.9h4.9c-0.6,0.9-1.2,1.9-1.7,2.7c-0.7,1.2-1.5,2.4-2.5,3.5
							c-0.6,0.5-1.4,0.8-2.2,0.8l-0.2,0.4h6.3l0.2-0.4l-0.7,0C11.7,58.6,11.8,58.3,11.9,58.1z M84,47.7L84,47.7
							c-2-0.3-4.3,2.1-5.5,3.5h-1.8l-0.4,0.5H78c-0.5,0.8-1.1,1.4-1.5,2.1c-0.9,0.9-1.8,1.8-2.7,2.6c-1.2,1.2-2.8,1.9-4.5,2.1
							c-0.5,0-0.9-0.1-1.3-0.5c-0.3-0.3-0.5-0.8-0.4-1.2c0-0.1,0-0.2,0-0.3c0-0.2,0.1-0.5,0.2-0.7c0.1,0,0.2,0,0.2,0
							c1.7-0.4,6.3-1.3,6.6-3.4c0-0.1,0-0.1,0-0.2c0-0.3-0.1-0.5-0.3-0.7c-0.5-0.4-1.1-0.6-1.7-0.5c-2.8,0-7,2.9-7.3,5.8
							c-0.1,0.7,0,1.4,0.5,2s1.2,0.8,1.9,0.7c2.2-0.1,4.3-0.9,5.9-2.4c0.5-0.4,1-0.8,1.4-1.3c-0.4,0.6-0.8,1.3-0.9,2
							c0,0.1,0,0.2,0,0.2c0,0.3,0.1,0.6,0.3,0.8c0.4,0.3,0.9,0.5,1.4,0.5c1.2-0.1,2.4-0.6,3.3-1.4l-0.3-0.2
							c-0.7,0.5-1.5,0.9-2.4,1.1c-0.1,0-0.3,0-0.3-0.1c-0.1-0.1-0.1-0.2-0.1-0.3c0,0,0-0.1,0-0.1c0.1-0.7,0.9-1.8,3-4.6
							c0,0,1.3-1.7,1.3-1.8h2.8l0.3-0.5h-2.9c0.7-1,1.5-2,2.3-2.9C83.3,48.1,83.6,47.8,84,47.7z M72.3,51.3c0.1,0,0.3,0,0.4,0.1
							c0.1,0.1,0.1,0.2,0.1,0.3v0.1c-0.2,1.4-2.5,3.1-4.8,3.6C68.6,53.8,70.9,51.3,72.3,51.3L72.3,51.3z M68.2,48.1
							c0.5-0.7,1.1-1.9,1.8-2.1l0-0.2h-6.9l-0.3,0.4h3.8c0.2,0,0.6,0.1,0.3,0.6c0,0-4.1,6.1-4.2,6.5c0,0,0,0.1-0.1,0.1
							c-0.7,0.8-2.1,2.3-3.1,3.1c-1.5,1.3-2.9,2.2-3.6,2.2c-0.1,0-0.3,0-0.3-0.1c-0.1-0.1-0.1-0.2-0.1-0.4c0.1-1,1.8-3.1,3.2-4.9
							c0.7-0.8,1.3-1.6,1.6-2.1l0.1-0.1l-2.5,0.1c0,0-0.5,0.6-0.6,0.8c-0.2-0.8-1-1.4-1.8-1.3c-2.7,0-6.3,2.9-7,5.6
							c0,0-0.5,0.4-0.5,0.4c-1.6,1.4-2.7,1.9-3.3,1.9c-0.1,0-0.2,0-0.3-0.1c-0.1-0.1-0.1-0.2-0.1-0.4c0.1-1.2,0.7-1.9,3-5
							c0,0,4.9-6.4,5.9-6.5l0-0.1c-0.9-0.1-1.8,0.2-2.6,0.7c-1.5,1.1-2.9,2.5-4,4c-0.3,0.4-0.3,0.4-0.4,0.6c-0.2-0.8-1-1.3-1.8-1.2
							c-2.2,0-4.9,1.8-6.3,4c-0.6,0.6-1.2,1.2-1.7,1.7c-2.2,2-3,2.2-3.2,2.2c-0.1,0-0.3,0-0.4-0.1c-0.1-0.1-0.1-0.3-0.1-0.4
							c0.3-1,0.9-1.9,1.7-2.6c0.9-1.1,1.9-2.2,2-3.3c0.1-0.4,0-0.8-0.3-1.1c-0.3-0.3-0.7-0.4-1.1-0.4c-1.7,0-3.8,1.8-5.1,3.1
							l2.4-2.9l-2.5,0.1c0,0-2.9,2.4-4.1,3.2c-0.5,0.4-1.1,0.7-1.7,1c0.3-0.5,1.5-2.4,0.3-3.8c-0.5-0.5-1.2-0.8-1.9-0.8
							c-3,0-6.9,2.7-7.3,5.9c-0.2,0.7,0,1.4,0.5,1.9c0.5,0.5,1.2,0.8,1.9,0.7c2.5-0.1,4.7-1.4,6.1-3.4c0.8-0.4,1.7-0.9,2.4-1.4
							c0.8-0.6,2-1.5,2.9-2.3c-0.9,1.2-5.1,6.9-5.1,6.9l0.1,0l2.1-0.1l0,0c1.4-2.2,6.1-7.6,7.8-7.6c0.1,0,0.3,0,0.4,0.1
							c0.1,0.1,0.1,0.2,0.1,0.3c-0.3,0.9-0.9,1.7-1.6,2.3c-1,1.1-2,2.3-2.2,3.4c-0.1,0.4,0.1,0.8,0.3,1.1c0.3,0.3,0.8,0.5,1.2,0.4
							c1.1,0,2.1-0.6,3.9-2.2c0.4-0.4,0.8-0.8,1.3-1.2c-0.1,0.4-0.7,2,0.1,2.9c0.3,0.4,0.8,0.5,1.3,0.5c1.3-0.1,2.6-0.6,3.5-1.6
							c0,0.1-0.1,0.3-0.1,0.4c0,0.3,0.1,0.5,0.2,0.8c0.3,0.4,0.8,0.6,1.3,0.5c1.4,0,2.8-0.9,4.3-2.3c0,0.1,0,0.2,0,0.3
							c-0.1,0.5,0.1,1,0.4,1.4s0.8,0.6,1.3,0.6c1.3-0.1,2.6-0.7,3.5-1.7c0,0.1-0.1,0.3-0.1,0.4c0,0.1,0,0.1,0,0.2
							c0,0.3,0.1,0.5,0.3,0.7c0.3,0.3,0.7,0.5,1.1,0.4c1.2,0,2.6-0.8,4.5-2.4c0.6-0.5,1.3-1.2,2.1-2.1c-2,3.1-6.3,9.6-7.4,10.6
							c-0.3,0.3-0.7,0.5-1.2,0.6v0.1c1.3,0.1,2.7-0.6,4.4-2.3C60.2,61.2,67.1,49.5,68.2,48.1L68.2,48.1z M23.4,52.4
							c-0.2,1.8-3,6.6-5.3,6.6c-0.2,0-0.4-0.1-0.6-0.2c-0.2-0.3-0.2-0.6-0.2-0.9c0.2-1.8,3-6.6,5.3-6.6c0.2,0,0.4,0.1,0.6,0.2
							C23.4,51.8,23.5,52.1,23.4,52.4L23.4,52.4z M40.6,58.4c-0.2,0-0.5-0.1-0.6-0.2c-0.2-0.3-0.3-0.7-0.2-1
							c0.3-2.2,3.1-5.8,4.8-5.8c0.3,0,0.6,0.1,0.8,0.3c0.2,0.2,0.3,0.6,0.2,0.9C45.3,54.3,42.5,58.4,40.6,58.4L40.6,58.4z
							 M51.6,58.5c-1.1,0.1-0.9-1.3-0.8-1.5c0.2-1.7,2.9-5.7,5-5.7c0.3,0,0.5,0.1,0.7,0.2c0.1,0.2,0.2,0.4,0.2,0.6
							c0,0.1,0,0.2,0,0.3C56.4,54,53.4,58.4,51.6,58.5L51.6,58.5z M61.9,8.5c-3.2,1.8-6.8,7-10.4,12.4h-3.7c3-4.6,6.8-10.5,7.8-12
							c1-1.4,2.1-3.6,3.5-3.9L59,4.8H45.9l-0.5,0.8c0,0,7,0,7.2,0c0.5,0,1.1,0.2,0.5,1.1l-9.3,14.3h-3.2c0.8-1.3,6.7-10.5,6.7-10.5
							H34.9l-0.5,0.8c0,0,7,0,7.2,0c0.4,0,1.1,0.2,0.5,1.1c0,0-13.8,21.7-16.6,24.2c-0.6,0.6-1.4,1-2.2,1.2v0.3
							c1.6,0,3.2-0.4,4.6-1.3c4.4-2.6,9.1-9.8,12.3-14.9h3.2L43.1,22c-3.8,5.9-11.9,18.1-14,20c-0.6,0.6-1.4,1-2.2,1.2v0.3
							c1.6,0,3.2-0.4,4.6-1.3c4.4-2.6,9.1-9.8,12.3-14.9c0,0,1.6-2.4,3.6-5.4H51c-1.1,1.8-2.2,3.5-3.2,5.1c-2.1,3.4-3.2,5.5-4.6,6.9
							c-0.8,0.8-1.9,1.2-3,1.2l-0.5,0.8h11.6l0.4-0.8l-2.3-0.1c-2.5-0.1-2.2-0.7-2.1-1.1c0,0,5.4-9.1,10.5-16.4
							c6.7-9.5,8-9.7,8.6-9.9l0-0.2C65,7.2,63.3,7.6,61.9,8.5L61.9,8.5z"></path>
					</g>
				</g>
			</g>
		</g>
	</g>
</g>
</svg>