<svg version="1.1" id="Layer_1" xmlns="http://www.w3.org/2000/svg"
xmlns:xlink="http://www.w3.org/1999/xlink" x="0px" y="0px"  fill="white" width="100px" height="115px" viewBox="0 0 103 72"
style="enable-background:new 0 0 103 72;" xml:space="preserve">
<title>Honda Engines</title>
<g id="Footer">
    <g id="Footer_Large_1400px" transform="translate(-505.000000, -1483.000000)">
        <g id="Footer_links" transform="translate(0.000000, 553.000000)">
            <g id="blue-footer" transform="translate(0.000000, 734.000000)">
                <g id="Group-3" transform="translate(31.974724, 160.000000)">
                    <g id="Honda_Engines-2" transform="translate(473.009152, 36.000000)">
                        <g id="Group">
                            <path id="Path" d="M12.3,20.3l1.6,0.2c0.7,0.1,0.7,0.6,0.7,1.1v1.8h-7v-1.9c0-0.3,0.1-1,0.7-1.1l1.6-0.2v-1.5H0.7v1.6
                                l1.6,0.2c0.5,0,0.6,0.6,0.6,1v6c0,0.3-0.1,1-0.7,1.1l-1.6,0.2v1.6h9.2v-1.7l-1.6-0.2c-0.7-0.1-0.7-0.6-0.7-1.1v-1.7h7v1.8
                                c0,0.3-0.1,1-0.7,1.1l-1.6,0.2v1.6h9.2v-1.7l-1.6-0.2C19,28.4,19,27.8,19,27.4v-5.9c0-0.3,0.1-1,0.7-1.1l1.6-0.2v-1.5h-9.2
                                v1.6H12.3z"></path>
                            <path id="Shape"
                                d="M73.7,18.7H62.4v1.6l1.4,0.1c0.5,0.1,0.8,0.3,0.8,1v6.1c0,0.3-0.1,1-0.7,1.1l-1.6,0.2v1.6h11.5
                                c4.1,0,7.5-1.7,7.5-5.8S77.9,18.7,73.7,18.7z M72.9,28.1H69V21h5.9c2.3,0,3.1,1.1,3.1,3.6C76,27,75.1,28.1,72.9,28.1z">
                            </path>
                            <path
                                d="M100.6,28.6c-0.7-0.1-0.9-0.5-1.2-1c-5.3-8.2-5.3-8.2-5.3-8.2c-0.4-0.6-0.6-0.7-1.3-0.7h-8.7v1.6l2.1,0.2
                                c0.3,0,0.7,0.4,0.3,1L82.7,28c-0.2,0.2-0.3,0.5-0.8,0.6l-1.6,0.2v1.6h7.4v-1.7l-1.3-0.1c-0.5-0.1-0.8-0.4-0.5-0.8l0.5-1h7
                                l0.5,0.8c0.4,0.7-0.1,1-0.6,1.1l-1.3,0.1v1.6h10v-1.7L100.6,28.6z M87.6,24.7l2.2-3.6l2.3,3.6H87.6z">
                            </path>
                            <path
                                d="M54.2,20.3l1.6,0.2c0.7,0.1,0.7,0.6,0.7,1.1v5.8l-6.1-8c-0.3-0.3-0.5-0.5-1.2-0.5c-0.4,0-7.9,0-7.9,0v1.6l1.6,0.2
                                c0.7,0.1,0.7,0.6,0.7,1.1v6c0,0.3-0.1,1-0.7,1.1L41.3,29v1.6h7.4v-1.9l-1.6-0.1c-0.7-0.1-0.7-0.6-0.7-1.1v-5.8l6.1,8
                                c0.3,0.4,0.5,0.5,1.2,0.5h0.1c0.3,0,1.5,0,5.6,0v-8.8c0-0.3,0.1-1,0.7-1.1l1.6-0.2v-1.5h-7.4L54.2,20.3L54.2,20.3z">
                            </path>
                            <path
                                d="M31.5,18.3c-7.5,0-9.4,3.3-9.4,6.1s1.9,6.1,9.4,6.1s9.4-3.3,9.4-6.1S38.9,18.3,31.5,18.3z M31.5,28.5
                                c-2.9,0-4.1-1.3-4.1-4s1.2-4,4.1-4s4.1,1.3,4.1,4C35.6,27.3,34.3,28.5,31.5,28.5z">
                            </path>
                        </g>
                        <g transform="translate(23.144990, 26.470588)">
                            <polygon points="0.1,18.4 5.6,18.4 5.6,19.7 1.6,19.7 1.6,21.8 5.4,21.8 5.4,23.1 1.6,23.1 1.6,25.4 5.8,25.4 5.8,26.7 
                                0.1,26.7 							"></polygon>
                            <polygon points="8.3,18.4 10.2,18.4 14,24.6 14,24.6 14,18.4 15.5,18.4 15.5,26.7 13.7,26.7 9.8,20.3 9.8,20.3 9.8,26.7 
                                8.3,26.7 							"></polygon>
                            <path
                                d="M25.7,26.3c-0.4,0.2-0.8,0.3-1.4,0.4c-0.5,0.1-1.1,0.2-1.7,0.2s-1.3-0.1-1.8-0.3c-0.5-0.2-1.1-0.5-1.4-0.8
                                c-0.4-0.4-0.7-0.8-0.9-1.4c-0.2-0.5-0.3-1.2-0.3-1.8s0.1-1.3,0.3-1.8s0.5-1,0.9-1.4c0.4-0.4,0.8-0.6,1.4-0.8
                                c0.5-0.2,1.2-0.3,1.8-0.3s1.3,0.1,1.8,0.3s0.9,0.4,1.3,0.7l-1.1,1.1c-0.2-0.2-0.5-0.4-0.8-0.6c-0.4-0.2-0.7-0.2-1.3-0.2
                                c-0.4,0-0.8,0.1-1.2,0.2c-0.3,0.1-0.6,0.3-0.9,0.6c-0.2,0.3-0.4,0.6-0.5,1c-0.1,0.3-0.2,0.7-0.2,1.2c0,0.4,0.1,0.8,0.2,1.2
                                c0.1,0.3,0.3,0.7,0.5,1c0.2,0.2,0.5,0.5,0.9,0.6c0.3,0.1,0.7,0.2,1.3,0.2c0.6,0,1.2-0.1,1.7-0.3V23h-1.7v-1.2h5.2v4.4H25.7z">
                            </path>
                            <polygon points="28.6,18.4 30.1,18.4 30.1,26.7 28.6,26.7 							">
                            </polygon>
                            <polygon points="33,18.4 34.9,18.4 38.7,24.6 38.7,24.6 38.7,18.4 40.2,18.4 40.2,26.7 38.3,26.7 34.4,20.3 34.4,20.3 
                                34.4,26.7 32.9,26.7 32.9,18.4 							"></polygon>
                            <polygon points="43.2,18.4 48.7,18.4 48.7,19.7 44.7,19.7 44.7,21.8 48.4,21.8 48.4,23.1 44.6,23.1 44.6,25.4 48.8,25.4 
                                48.8,26.7 43.1,26.7 43.1,18.4 							"></polygon>
                            <path
                                d="M55.7,20.1c-0.1-0.2-0.4-0.4-0.6-0.5c-0.3-0.1-0.5-0.2-0.8-0.2c-0.2,0-0.3,0-0.5,0.1c-0.2,0-0.3,0.1-0.4,0.2
                                c-0.1,0.1-0.2,0.2-0.3,0.3c-0.1,0.1-0.1,0.3-0.1,0.5s0,0.3,0.1,0.5c0.1,0.1,0.2,0.2,0.3,0.3c0.1,0.1,0.3,0.2,0.5,0.2
                                c0.2,0.1,0.4,0.1,0.6,0.2c0.2,0.1,0.5,0.2,0.8,0.3s0.5,0.2,0.7,0.4c0.2,0.2,0.4,0.4,0.5,0.6c0.1,0.3,0.2,0.6,0.2,1.1
                                c0,0.4-0.1,0.8-0.2,1.2c-0.2,0.3-0.4,0.6-0.6,0.8c-0.3,0.2-0.6,0.4-0.9,0.5S54.2,27,53.8,27c-0.5,0-1.1-0.1-1.6-0.3
                                c-0.5-0.2-0.9-0.5-1.3-0.8l1.1-1c0.2,0.3,0.4,0.5,0.8,0.6c0.3,0.2,0.6,0.2,0.9,0.2c0.2,0,0.3,0,0.5-0.1
                                c0.2,0,0.3-0.1,0.5-0.2c0.1-0.1,0.2-0.2,0.3-0.4c0.1-0.2,0.1-0.3,0.1-0.5c0-0.2,0-0.4-0.1-0.5c-0.1-0.1-0.2-0.3-0.4-0.4
                                c-0.2-0.1-0.4-0.2-0.6-0.3c-0.2-0.1-0.5-0.2-0.7-0.2c-0.2-0.1-0.5-0.2-0.7-0.3c-0.2-0.1-0.4-0.2-0.6-0.4
                                c-0.2-0.2-0.3-0.4-0.5-0.6c-0.2-0.2-0.2-0.6-0.2-1c0-0.4,0.1-0.7,0.2-1.1c0.2-0.3,0.4-0.5,0.6-0.7c0.3-0.2,0.6-0.3,0.9-0.4
                                s0.7-0.1,1.1-0.1c0.4,0,0.8,0.1,1.3,0.2s0.8,0.3,1.2,0.6L55.7,20.1z">
                            </path>
                        </g>
                    </g>
                </g>
            </g>
        </g>
    </g>
</g>
</svg>