<svg version="1.1" id="Layer_1" xmlns="http://www.w3.org/2000/svg"
xmlns:xlink="http://www.w3.org/1999/xlink" x="0px" y="0px"  fill="white" width="130px" height="140px" viewBox="0 0 143.3 72"
style="enable-background:new 0 0 143.3 72;" xml:space="preserve">
<title>Honda Power Equipment</title>
<g id="Footer">
    <g id="Footer_Large_1400px" transform="translate(-684.000000, -1483.000000)">
        <g id="Footer_links" transform="translate(0.000000, 553.000000)">
            <g id="blue-footer" transform="translate(0.000000, 734.000000)">
                <g id="Group-3" transform="translate(31.974724, 160.000000)">
                    <g id="Honda_Power_Equipment-4"
                        transform="translate(651.851573, 36.000000)">
                        <g id="Group" transform="translate(13.640611, 0.000000)">
                            <path id="Path" d="M19.1,20.4l1.6,0.2c0.6,0,0.7,0.6,0.7,1v1.8h-7v-1.8c0-0.3,0.1-1,0.7-1.1l1.6-0.2v-1.5H7.6v1.6l1.6,0.2
                                c0.7,0.1,0.7,0.6,0.7,1.1v6c0,0.3-0.1,1-0.7,1.1L7.6,29v1.6h9.1v-1.8l-1.6-0.1c-0.7-0.1-0.7-0.6-0.7-1.1v-1.8h7v1.8
                                c0,0.3-0.1,1-0.7,1.1l-1.6,0.2v1.6h9.1v-1.7l-1.6-0.2c-0.7-0.1-0.7-0.6-0.7-1.1v-5.9c0-0.3,0.1-1,0.7-1.1l1.6-0.2v-1.5h-9.1
                                V20.4z"></path>
                            <path id="Shape" d="M80.3,18.8H69v1.6l1.4,0.1c0.5,0.1,0.8,0.3,0.8,1v6.1c0,0.3-0.1,1-0.7,1.1l-1.6,0.2v1.6h11.4
                                c4.1,0,7.4-1.7,7.4-5.8C87.8,20.5,84.4,18.8,80.3,18.8z M79.5,28.2h-3.9v-7.1h5.9c2.3,0,3,1.1,3,3.6
                                C82.5,27.1,81.8,28.2,79.5,28.2z"></path>
                            <path
                                d="M107,28.7c-0.7-0.1-0.9-0.5-1.2-1c-5.2-8.2-5.2-8.2-5.2-8.2c-0.4-0.6-0.6-0.7-1.3-0.7h-8.7v1.6l2.1,0.2
                                c0.3,0,0.7,0.4,0.3,1l-3.9,6.5c-0.2,0.2-0.3,0.5-0.8,0.6l-1.6,0.2v1.6h7.3v-1.7l-1.3-0.1c-0.5-0.1-0.8-0.4-0.5-0.8l0.6-1h7
                                l0.5,0.8c0.4,0.7-0.1,1-0.6,1.1l-1.3,0.1v1.6h10v-1.7L107,28.7z M94.2,24.8l2.2-3.6l2.3,3.6H94.2z">
                            </path>
                            <path
                                d="M60.8,20.4l1.6,0.2c0.7,0.1,0.7,0.6,0.7,1.1v5.8l-6.1-8c-0.3-0.3-0.5-0.5-1.2-0.5c-0.4,0-7.9,0-7.9,0v1.6l1.6,0.2
                                c0.7,0.1,0.7,0.6,0.7,1.1v6c0,0.3-0.1,1-0.7,1.1L48,29.1v1.6h7.3v-1.9l-1.6-0.2C53,28.5,53,28,53,27.5v-5.7l6.1,8
                                c0.3,0.4,0.5,0.5,1.2,0.5h0.1c0.3,0,1.5,0,5.6,0v-8.8c0-0.3,0.1-1,0.7-1.1l1.6-0.2v-1.5h-7.3L60.8,20.4L60.8,20.4z">
                            </path>
                            <path
                                d="M38.1,18.4c-7.4,0-9.3,3.3-9.3,6.2c0,2.9,1.9,6.1,9.3,6.1s9.3-3.3,9.3-6.1C47.6,21.7,45.6,18.4,38.1,18.4z
                                 M38.1,28.6c-2.9,0-4.1-1.3-4.1-4s1.2-4,4.1-4s4.1,1.3,4.1,4C42.2,27.4,41.1,28.6,38.1,28.6z">
                            </path>
                        </g>
                        <g transform="translate(0.000000, 26.470588)">
                            <path
                                d="M7.9,18.5h2.6c0.4,0,0.9,0,1.3,0.1c0.3,0.1,0.7,0.2,0.9,0.4c0.3,0.2,0.5,0.4,0.6,0.7c0.1,0.3,0.2,0.6,0.2,1.1
                                c0,0.4-0.1,0.8-0.2,1.2c-0.2,0.3-0.4,0.5-0.7,0.7c-0.3,0.2-0.6,0.3-1,0.4s-0.8,0.1-1.3,0.1H9.4v3.4H7.9V18.5z M10.4,22.1
                                c0.2,0,0.4,0,0.6,0c0.2,0,0.4-0.1,0.6-0.2c0.2-0.1,0.3-0.2,0.4-0.3c0.1-0.1,0.1-0.3,0.1-0.6c0-0.2,0-0.4-0.1-0.6
                                C12,20.2,11.9,20,11.7,20c-0.2,0-0.3-0.1-0.5-0.2c-0.2,0-0.4,0-0.6,0H9.4v2.3H10.4L10.4,22.1z">
                            </path>
                            <path
                                d="M15.6,22.7c0-0.6,0.1-1.3,0.3-1.8c0.2-0.5,0.5-1,0.9-1.4c0.4-0.4,0.8-0.6,1.4-0.8c0.5-0.2,1.2-0.3,1.8-0.3
                                c0.6,0,1.3,0.1,1.8,0.3c0.5,0.2,1,0.5,1.4,0.8c0.4,0.4,0.7,0.8,0.9,1.4c0.2,0.5,0.3,1.2,0.3,1.8s-0.1,1.3-0.3,1.8
                                c-0.2,0.5-0.5,1-0.9,1.4c-0.4,0.4-0.8,0.6-1.4,0.8C21.2,26.9,20.6,27,20,27c-0.6,0-1.3-0.1-1.8-0.3c-0.5-0.2-0.9-0.5-1.4-0.8
                                c-0.4-0.4-0.7-0.8-0.9-1.4C15.8,23.9,15.6,23.3,15.6,22.7z M17.2,22.7c0,0.4,0.1,0.8,0.2,1.2c0.1,0.3,0.3,0.7,0.5,1
                                c0.2,0.3,0.5,0.5,0.8,0.6c0.3,0.1,0.7,0.2,1.2,0.2c0.4,0,0.8-0.1,1.2-0.2s0.6-0.3,0.9-0.6c0.2-0.3,0.4-0.6,0.5-1
                                c0.1-0.3,0.2-0.7,0.2-1.2s-0.1-0.8-0.2-1.2c-0.1-0.3-0.3-0.6-0.5-1s-0.5-0.5-0.8-0.6s-0.7-0.2-1.2-0.2
                                c-0.4,0-0.8,0.1-1.2,0.2s-0.6,0.3-0.8,0.6s-0.4,0.6-0.5,1C17.2,21.8,17.2,22.2,17.2,22.7z">
                            </path>
                            <polygon points="26,18.5 27.6,18.5 29.2,24.6 29.2,24.6 31,18.5 32.4,18.5 34.2,24.6 34.2,24.6 35.8,18.5 37.4,18.5 35,26.8 
                                33.6,26.8 31.7,20.6 31.7,20.6 29.8,26.8 28.5,26.8 							">
                            </polygon>
                            <polygon points="39.5,18.5 44.9,18.5 44.9,19.8 40.9,19.8 40.9,21.9 44.7,21.9 44.7,23.2 40.9,23.2 40.9,25.5 45.1,25.5 
                                45.1,26.8 39.5,26.8 							"></polygon>
                            <path d="M47.6,18.5h2.8c0.4,0,0.7,0,1.2,0.1c0.3,0.1,0.7,0.2,0.9,0.4c0.2,0.2,0.5,0.4,0.6,0.7c0.2,0.3,0.2,0.6,0.2,1.1
                                c0,0.6-0.2,1.1-0.5,1.5c-0.3,0.4-0.8,0.6-1.4,0.7l2.2,3.7h-1.8l-1.8-3.5h-1v3.5h-1.5V18.5z M50.2,22.1c0.2,0,0.4,0,0.6,0
                                c0.2,0,0.4-0.1,0.5-0.2c0.2-0.1,0.3-0.2,0.4-0.3c0.1-0.2,0.2-0.3,0.2-0.6c0-0.2,0-0.4-0.1-0.5c-0.1-0.1-0.2-0.2-0.4-0.3
                                c-0.1-0.1-0.3-0.1-0.5-0.2s-0.4,0-0.5,0H49v2.3h1.2V22.1z">
                            </path>
                            <polygon points="59.7,18.5 65.2,18.5 65.2,19.8 61.2,19.8 61.2,21.9 65,21.9 65,23.2 61.2,23.2 61.2,25.5 65.4,25.5 
                                65.4,26.8 59.7,26.8 							"></polygon>
                            <path d="M76.6,26.8h-4.9c-0.6,0-1.3-0.1-1.8-0.3c-0.5-0.2-0.9-0.4-1.4-0.8c-0.4-0.3-0.6-0.8-0.8-1.4
                                c-0.2-0.5-0.3-1.2-0.3-1.8s0.1-1.2,0.3-1.7c0.2-0.5,0.5-1,0.9-1.4c0.4-0.4,0.8-0.6,1.4-0.8c0.5-0.2,1.2-0.3,1.8-0.3
                                c0.6,0,1.2,0.1,1.7,0.3c0.5,0.2,0.9,0.5,1.4,0.8c0.4,0.3,0.7,0.8,0.9,1.4c0.2,0.5,0.3,1.1,0.3,1.7c0,0.4,0,0.7-0.1,1.1
                                c-0.1,0.3-0.2,0.6-0.3,0.8c-0.1,0.2-0.3,0.4-0.4,0.6c-0.1,0.2-0.3,0.3-0.5,0.5l0,0h2v1.3H76.6z M71.8,19.7
                                c-0.4,0-0.7,0.1-1.2,0.2c-0.3,0.1-0.6,0.3-0.8,0.6c-0.2,0.2-0.4,0.5-0.6,1c-0.1,0.3-0.2,0.7-0.2,1.2s0.1,0.8,0.2,1.2
                                c0.1,0.3,0.3,0.6,0.5,1c0.2,0.2,0.5,0.4,0.8,0.6c0.3,0.2,0.7,0.2,1.2,0.2c0.4,0,0.7-0.1,1.2-0.2c0.3-0.1,0.6-0.3,0.8-0.6
                                c0.2-0.2,0.4-0.5,0.5-1c0.1-0.4,0.2-0.7,0.2-1.2s-0.1-0.8-0.2-1.2c-0.1-0.3-0.3-0.6-0.5-1c-0.2-0.2-0.5-0.4-0.8-0.6
                                C72.5,19.8,72.1,19.7,71.8,19.7z"></path>
                            <path
                                d="M85.2,23.8c0,0.5-0.1,1-0.2,1.4c-0.2,0.4-0.4,0.7-0.7,1.1c-0.3,0.3-0.6,0.5-1,0.6c-0.4,0.1-0.8,0.2-1.3,0.2
                                c-0.4,0-0.9-0.1-1.3-0.2c-0.4-0.1-0.7-0.3-1-0.6c-0.3-0.3-0.5-0.6-0.7-1.1c-0.2-0.4-0.2-0.8-0.2-1.4v-5.2h1.5v5.2
                                c0,0.2,0,0.5,0.1,0.7s0.2,0.4,0.3,0.6c0.1,0.2,0.3,0.3,0.5,0.4c0.2,0.1,0.5,0.2,0.8,0.2c0.3,0,0.6-0.1,0.8-0.2
                                c0.2-0.1,0.4-0.3,0.5-0.4c0.1-0.2,0.2-0.4,0.3-0.6s0.1-0.4,0.1-0.7v-5.2h1.5V23.8L85.2,23.8z">
                            </path>
                            <polygon points="88,18.5 89.4,18.5 89.4,26.8 88,26.8 							">
                            </polygon>
                            <path
                                d="M92.3,18.5h2.6c0.4,0,0.9,0,1.3,0.1c0.3,0.1,0.7,0.2,0.9,0.4c0.3,0.2,0.5,0.4,0.6,0.7c0.1,0.3,0.2,0.6,0.2,1.1
                                c0,0.4-0.1,0.8-0.2,1.2c-0.2,0.3-0.4,0.5-0.7,0.7c-0.3,0.2-0.6,0.3-1,0.4c-0.4,0.1-0.8,0.1-1.3,0.1h-1.2v3.4h-1.3V18.5z
                                 M94.8,22.1c0.2,0,0.4,0,0.6,0c0.2,0,0.4-0.1,0.6-0.2s0.3-0.2,0.4-0.3c0.1-0.1,0.1-0.3,0.1-0.6c0-0.2,0-0.4-0.1-0.6
                                C96.3,20.2,96.2,20,96,20c-0.2-0.1-0.3-0.1-0.5-0.2c-0.2,0-0.4,0-0.6,0h-1v2.3H94.8L94.8,22.1z">
                            </path>
                            <polygon
                                points="100.3,18.5 102.6,18.5 104.7,24.4 104.7,24.4 106.8,18.5 109.1,18.5 109.1,26.8 107.7,26.8 107.7,20.1 
                                107.7,20.1 105.2,26.8 104.1,26.8 101.7,20.1 101.7,20.1 101.7,26.8 100.3,26.8 							">
                            </polygon>
                            <polygon points="112,18.5 117.4,18.5 117.4,19.8 113.5,19.8 113.5,21.9 117.2,21.9 117.2,23.2 113.5,23.2 113.5,25.5 
                                117.6,25.5 117.6,26.8 112,26.8 							"></polygon>
                            <polygon points="120.1,18.5 121.9,18.5 125.7,24.7 125.7,24.7 125.7,18.5 127.2,18.5 127.2,26.8 125.3,26.8 121.4,20.4 
                                121.4,20.4 121.4,26.8 120,26.8 120,18.5 							"></polygon>
                            <polygon
                                points="131.8,19.9 129.3,19.9 129.3,18.6 135.8,18.6 135.8,19.9 133.3,19.9 133.3,26.9 131.8,26.9 							">
                            </polygon>
                        </g>
                    </g>
                </g>
            </g>
        </g>
    </g>
</g>
</svg>