<svg version="1.1" id="Layer_1" xmlns="http://www.w3.org/2000/svg" xmlns:xlink="http://www.w3.org/1999/xlink" fill="white" x="0px" y="0px" width="107px" height="72px" viewBox="0 0 107 72" style="enable-background:new 0 0 107 72;" xml:space="preserve">
<title>Honda Marine</title>
<g id="Footer">
	<g id="Footer_Large_1400px" transform="translate(-1047.000000, -1486.000000)">
		<g id="Footer_links" transform="translate(0.000000, 553.000000)">
			<g id="blue-footer" transform="translate(0.000000, 734.000000)">
				<g id="Group-3" transform="translate(31.974724, 160.000000)">
					<g id="Honda-Marine" transform="translate(1015.305910, 39.793988)">
						<path id="Shape" d="M14.1,22.2l1.6,0.2c0.2,0,0.5,0.2,0.6,0.4s0.2,0.4,0.1,0.7l0,0v1.9H9.3v-1.9c-0.1-0.2,0-0.5,0.1-0.7
							c0.1-0.2,0.4-0.3,0.6-0.4l0,0l1.6-0.2v-1.6H2.3v1.6l1.6,0.2c0.2,0,0.5,0.2,0.6,0.4c0.1,0.2,0.2,0.4,0.1,0.7l0,0v6
							c0.1,0.2,0,0.5-0.1,0.7c-0.1,0.2-0.4,0.3-0.6,0.4l0,0l-1.6,0.2v1.6h9.3v-1.6L10,30.4c-0.2,0-0.5-0.2-0.6-0.4
							c-0.1-0.2-0.2-0.4-0.1-0.7l0,0v-1.9h7.1v1.9c0.1,0.2,0,0.5-0.1,0.7c-0.1,0.2-0.4,0.3-0.6,0.4l0,0l-1.6,0.2v1.6h9.3v-1.6
							l-1.6-0.2c-0.2,0-0.5-0.2-0.6-0.4c-0.1-0.2-0.2-0.4-0.1-0.7l0,0v-6c-0.1-0.2,0-0.5,0.1-0.7s0.4-0.3,0.6-0.4l0,0l1.6-0.2v-1.6
							h-9.3V22.2z M75.7,20.6H64.3v1.6l1.4,0.1c0.4,0,0.8,0.4,0.8,0.8v6.3c0.1,0.2,0,0.5-0.1,0.7c-0.1,0.2-0.4,0.3-0.6,0.4l0,0
							l-1.6,0.2v1.6h11.6c4.2,0,7.5-1.7,7.5-5.8S79.9,20.6,75.7,20.6z M74.9,30H71v-7.2h3.9c2.3,0,3,1.1,3,3.6S77.2,30,74.9,30z
							 M102.8,30.6c-0.5-0.1-1-0.4-1.1-0.9l-5.3-8.2c-0.2-0.5-0.7-0.8-1.3-0.7h-8.8v1.6l2.1,0.2c0.3,0.1,0.5,0.4,0.5,0.7
							c0,0.1,0,0.2-0.1,0.2l-4,6.4c-0.1,0.4-0.5,0.6-0.8,0.6l-1.6,0.2v1.6h7.4v-1.6l-1.3-0.1c-0.5-0.1-0.8-0.4-0.5-0.9l0.6-0.9h7.1
							l0.5,0.8c0.4,0.7-0.1,1-0.6,1l-1.3,0.1v1.6h10v-1.6L102.8,30.6z M89.8,26.6L92,23l2.3,3.6H89.8z M56.1,22.2l1.6,0.2
							c0.2,0,0.5,0.2,0.6,0.4c0.1,0.2,0.2,0.4,0.1,0.7l0,0v5.8l-6.2-8.1c-0.3-0.4-0.7-0.6-1.1-0.5h-7.9v1.6l1.6,0.2
							c0.2,0,0.4,0.1,0.6,0.3c0.1,0.2,0.2,0.4,0.2,0.6v6.1c0.1,0.2,0,0.5-0.1,0.7c-0.1,0.2-0.4,0.3-0.6,0.4l0,0l-1.6,0.2v1.6h7.4
							v-1.6L49,30.4c-0.2,0-0.5-0.2-0.6-0.4c-0.1-0.2-0.2-0.4-0.1-0.7l0,0v-5.8l6.2,8.2c0.2,0.4,0.7,0.6,1.1,0.5h5.6v-8.8
							c-0.1-0.2,0-0.5,0.1-0.7c0.1-0.2,0.4-0.3,0.6-0.4H62l1.6-0.2v-1.6h-7.4L56.1,22.2L56.1,22.2z M33.2,20.2
							c-7.5,0-9.5,3.3-9.5,6.2s2,6.2,9.5,6.2s9.5-3.3,9.5-6.2S40.7,20.2,33.2,20.2z M33.2,30.4c-2.9,0-4.1-1.2-4.1-4s1.3-4,4.1-4
							s4.1,1.2,4.1,4S36.1,30.4,33.2,30.4z M53.3,36.9l53.3-0.9v-0.5l-53.3-0.9L0,35.5V36L53.3,36.9z M40.9,44.7
							c0-3.7-1.9-5.5-5.6-5.5h-5.8c-3.8,0-5.6,1.8-5.6,5.5v5.5h4.5v-5.9c0-2,0.9-2.9,2.9-2.9h2.2c2,0,2.9,0.9,2.9,2.9v0.4h-7v2.2h7
							v3.3h4.5L40.9,44.7z M84.9,44.7c0-3.7-1.9-5.5-5.6-5.5H68.7v11h4.5v-8.8h4.3c2,0,2.9,0.9,2.9,2.9v5.9h4.5V44.7L84.9,44.7z
							 M8,41.4v8.8H3.6v-11H16c3.8,0,5.6,1.8,5.6,5.5v5.5h-4.5v-5.9c0-2-0.9-2.9-2.9-2.9H8z M10.8,41.8v8.4h3.7V43L10.8,41.8z
							 M56.8,46.7c1.7-0.4,3-1.9,3-3.6c0-2.1-1.8-3.8-4.6-3.8H43.1v11h4.5v-8.8H53c1.6,0,2.3,0.7,2.3,1.7c0,0.9-0.7,1.7-2.3,1.7h-4
							l4.9,5.5H60L56.8,46.7L56.8,46.7z M91.6,48H103v2.2H87.1v-5.5c0-3.7,1.9-5.5,5.6-5.5H103v2.2h-8.5c-2,0-2.9,0.9-2.9,2.9V48z
							 M92.8,43.6v2.2h9.2v-2.2H92.8z M61.8,39.2v3.9l4.8-3.9H61.8z M61.8,44.6v5.6h4.5v-9.3L61.8,44.6z"></path>
					</g>
				</g>
			</g>
		</g>
	</g>
</g>
</svg>