<svg id="Civic-Type-R-2021" xmlns="http://www.w3.org/2000/svg" viewBox="0 0 262 84" role="presentation" aria-hidden="true">
<title>Civic-Type-R-2021</title>
<style type="text/css">
	#Civic-Type-R-2021 {
 		opacity: 1;
 		stroke: none;
    fill: #fff;
 	}
</style>
<path d="M19.2,29.6C8.4,30.4,4.3,34.2,1.6,40.5c-2.1,4.9-2.1,9.4-0.4,12.4c1.4,2.6,5,4.6,9.5,5.1
	c4,0.4,6.3,0.5,11.8,0.5L38,58.5h9.3c2.4,0,2.4,0,3-1.3c0.5-1.1,1.8-4.6,1.8-4.6s-19.6,0-22.2,0c-2.5,0-5.2,0-9-0.4
	c-2.6-0.3-4.2-1.1-5.1-2.7c-1.2-2.1,0-6.1,1-8.1c2.2-4.8,5-5.9,11-6.3C31.4,35,34,35,37.2,35c0,0,13.6,0,15.3,0
	c2.6,0,4.1-1.5,4.8-3.1c0.5-1.1,1.1-2.5,1.1-2.5l-27.5,0C27.2,29.3,22.6,29.4,19.2,29.6"></path>
<polygon points="65,57 79.6,57 90,28 75.4,28 "></polygon>
<path d="M130.5,48.4c-2.3,2.1-2.6,2.1-5.9,2.1h-2L117.8,28H103l6.4,29h15.7c8.5,0,8.4,0,13.9-5
	c11-9.8,27-24,27-24h-13.2C152.8,28,132,47,130.5,48.4"></path>
<polygon points="169,57 183.6,57 194,28 179.4,28 "></polygon>
<path d="M234.3,29.3c-3.7,0-8.3,0.1-11.7,0.3c-10.8,0.8-14.9,4.6-17.6,10.9c-2.1,4.9-2.1,9.4-0.4,12.4
	c1.4,2.6,5,4.6,9.5,5.1c4,0.4,6.3,0.5,11.8,0.5l15.6-0.1h9.3c2.4,0,2.4,0,3-1.3c0.5-1.1,1.8-4.6,1.8-4.6s-19.6,0-22.2,0
	c-2.5,0-5.2,0-9-0.4c-2.6-0.3-4.2-1.1-5.1-2.7c-1.2-2.1,0-6.1,1-8.1c2.2-4.8,5-5.9,11-6.3c3.6-0.2,6.2-0.2,9.3-0.2
	c0,0,13.6,0,15.3,0c2.6,0,4.1-1.5,4.8-3.1c0.5-1.1,1.1-2.5,1.1-2.5L234.3,29.3z"></path>
<path d="M118.8,17c0.7,0,0.9-0.5,0.9-0.8c0-0.3-0.1-0.8-0.9-0.8h-5.5l4.1-4c1.1-1.1,2.1-2.2,2.1-3.9
	c0-2.4-1.9-3.6-4-3.6c-1.8,0-3.2,1-3.8,2.4c-0.1,0.2-0.1,0.4-0.1,0.5c0,0.5,0.4,0.8,0.8,0.8c0.3,0,0.7-0.2,0.9-0.7
	c0.4-1,1.2-1.5,2.2-1.5c1.3,0,2.3,0.9,2.3,2.2c0,1.1-0.6,1.9-1.4,2.7l-4.6,4.7c-0.5,0.5-0.6,0.8-0.6,1.1c0,0.3,0.1,0.9,1.2,0.9
	H118.8z M126.2,17.3c3,0,4.3-3,4.3-6.7c0-3.7-1.3-6.7-4.3-6.7c-3,0-4.4,3-4.4,6.7C121.8,14.4,123.1,17.3,126.2,17.3z M126.2,15.8
	c-2.1,0-2.6-3.1-2.6-5.2c0-2.1,0.5-5.2,2.6-5.2c2.1,0,2.6,3.1,2.6,5.2C128.7,12.8,128.2,15.8,126.2,15.8z M140.2,17
	c0.7,0,0.9-0.5,0.9-0.8c0-0.3-0.1-0.8-0.9-0.8h-5.5l4.1-4c1.1-1.1,2.1-2.2,2.1-3.9c0-2.4-1.9-3.6-4-3.6c-1.8,0-3.2,1-3.8,2.4
	c-0.1,0.2-0.1,0.4-0.1,0.5c0,0.5,0.4,0.8,0.8,0.8c0.3,0,0.7-0.2,0.9-0.7c0.4-1,1.2-1.5,2.2-1.5c1.3,0,2.3,0.9,2.3,2.2
	c0,1.1-0.6,1.9-1.4,2.7L133,15c-0.4,0.5-0.6,0.8-0.6,1.1c0,0.3,0.1,0.9,1.2,0.9H140.2z M148.2,17.1c0.3,0,0.9-0.1,0.9-1v-11
	c0-1-0.6-1.1-1-1.1c-0.3,0-0.5,0.1-0.9,0.4l-2.7,2.2C144.1,7,144,7.2,144,7.4c0,0.4,0.3,0.8,0.8,0.8c0.2,0,0.4-0.1,0.6-0.2l1.9-1.6
	v9.8C147.3,17,147.9,17.1,148.2,17.1z"></path>
<path d="M100,12.7H1c-0.7,0-1.2-0.5-1.2-1.2s0.5-1.2,1.2-1.2h99c0.7,0,1.2,0.5,1.2,1.2S100.7,12.7,100,12.7z"></path>
<path d="M261,12.7h-98c-0.7,0-1.2-0.5-1.2-1.2s0.5-1.2,1.2-1.2h98c0.7,0,1.2,0.5,1.2,1.2S261.7,12.7,261,12.7z"></path>
<path d="M118.6,72.5l-4,0l0,0l-6.3,3.6l0,0l0,0c0,0,0,0,0,0l-2-3.5c0,0,0,0-0.1,0l-4.7,0H87.3l0,0L86,74
	c0,0,0,0,0,0.1c0,0,0,0,0.1,0h5c0,0,0.1,0,0.1,0c0,0,0,0.1,0,0.1l-4.5,6c0,0,0,0,0,0.1c0,0,0,0,0.1,0l5.4,0c0,0,0,0,0,0l3.8-5
	c0.7-0.9,0.9-1.2,2.6-1.2h3.2c0,0,0.2-0.2,0.2-0.2c0,0,0,0,0,0l2.3,3.4c0,0,0,0.1,0,0.1l-2.1,2.8c0,0,0,0,0,0.1c0,0,0,0,0.1,0l5.5,0
	c0,0,0,0,0,0l1.9-2.6l0.2-0.1l8.8-5C118.7,72.6,118.7,72.6,118.6,72.5C118.6,72.5,118.6,72.5,118.6,72.5"></path>
<path d="M123.8,75.9C123.7,75.9,123.7,75.9,123.8,75.9c-0.1-0.1-0.1-0.1-0.1-0.1l1.4-1.9c0,0,0,0,0,0l0.3,0
	c0.3,0,0.7,0,1.2,0c0.3,0,0.6,0,0.9,0c0.2,0,0.4,0,0.5,0.2c0.1,0.2-0.1,0.5-0.7,1l-0.1,0.1c-0.3,0.3-0.8,0.7-2.2,0.7L123.8,75.9z
	 M126.1,72.5c-2.2,0-3.8,0-3.9,0l0,0l-1.6,0c0,0,0,0,0,0l-5.8,7.6c0,0,0,0,0,0.1c0,0,0,0,0.1,0l5.4,0c0,0,0,0,0,0l2-2.6c0,0,0,0,0,0
	l1.4,0c4.2,0,6.6-0.1,7.7-1.1c0.6-0.5,1-1.2,1.4-1.9c0.4-0.6,0.7-1.2,0.4-1.6c-0.2-0.3-0.8-0.5-1.7-0.5
	C129.8,72.6,128.1,72.5,126.1,72.5L126.1,72.5z"></path>
<path d="M148.5,72.6h-11.9l0,0h-0.4c0,0,0,0,0,0l-3.1,4c-0.1,0.1-0.2,0.3-0.3,0.5c-0.1,0.1-0.2,0.2-0.2,0.3
	c-0.7,0.9-0.9,1.5-0.6,2c0.3,0.5,1.1,0.8,2.4,0.9c0.4,0,1.7,0.1,2.7,0.1h6.4c1.1,0,1.8-0.2,2.3-0.7c0.5-0.5,0.9-0.9,0.9-0.9
	c0,0,0,0,0-0.1c0,0,0,0-0.1,0h-8c-0.6,0-1-0.1-1.1-0.2c-0.1-0.1,0-0.4,0.3-0.8l0.5-0.7c0,0,0,0,0,0h7.2c0,0,0,0,0,0
	c0.3-0.3,0.8-1,1.1-1.4c0,0,0,0,0-0.1c0,0,0,0-0.1,0h-7c0,0-0.1,0-0.1,0c0,0,0-0.1,0-0.1l1-1.2c0,0,0,0,0,0h6.8c0,0,0,0,0,0
	c0.2-0.3,0.7-0.9,1-1.2C148.6,72.7,148.6,72.6,148.5,72.6C148.6,72.6,148.5,72.6,148.5,72.6"></path>
<path fill="#ce202f" d="M176,72.4c0.4-0.6,0.7-1.2,0.4-1.7c-0.2-0.4-0.8-0.5-1.8-0.6c-4.9-0.2-19.2-0.1-19.2-0.1h0
	c0.1,0.2,0.2,0.4,0.3,0.5c0.3,0.5,0.4,0.8,0.4,1.1c-0.1,0.3-0.3,0.6-0.7,1.1c-0.3,0.3-4.4,5.9-5.8,7.6h6.2c0.5-0.7,5.4-7.1,6.8-8.9
	c2.6,0,4.3,0,5.6,0c0.7,0,1.4,0,2.4,0h0c0.1,0,0.3,0,0.4,0.1c0.1,0.3-0.4,1-1,1.5l-0.1,0.1c-0.3,0.3-0.8,0.7-2.2,0.7l-5.7,0.1
	l-1.1,1.5c1.4,1,6.5,5.1,6.9,5.4c0.5,0.4,1.2,0.6,2.1,0.6c0,0,3.5,0,5.4-0.1c-0.9-0.6-6.5-4.7-8.2-5.9c3.9,0,6.5-0.4,7.6-1.4
	C175.4,73.5,175.7,73,176,72.4"></path>
<path d="M73.5,76.7H1.3c-0.7,0-1.2-0.5-1.2-1.2s0.5-1.2,1.2-1.2h72.2c0.7,0,1.2,0.5,1.2,1.2S74.2,76.7,73.5,76.7z"></path>
<path d="M261.1,76.7h-72.6c-0.7,0-1.2-0.5-1.2-1.2s0.5-1.2,1.2-1.2h72.6c0.7,0,1.2,0.5,1.2,1.2S261.8,76.7,261.1,76.7z"></path>
</svg>