<svg width="262px" height="73px" viewBox="0 0 262 73" version="1.1" xmlns="http://www.w3.org/2000/svg" xmlns:xlink="http://www.w3.org/1999/xlink" role="presentation" aria-hidden="true">
    <title>Badge/Clarity-Fuel Cell/Model Year/2021/1400 Outlined</title>
    <defs>
        <polygon id="path-1" points="3.32038283e-05 0.211674422 37.4206501 0.211674422 37.4206501 23.8612487 3.32038283e-05 23.8612487"></polygon>
    </defs>
    <g id="Badge/Clarity-Fuel-Cell/Model-Year/2021/1400-Outlined" stroke="none" stroke-width="1" fill="none" fill-rule="evenodd">
        <g id="Clarity" transform="translate(1.000000, 24.000000)">
            <polygon id="Fill-1" fill="#ffffff" points="168.410793 0 160 23 169.590764 23 178 0"></polygon>
            <g id="Group-15">
                <path d="M187.046627,23.8248205 C189.080641,18.2047011 193.926847,4.81535906 194.314354,3.74001212 L181.727505,3.74001212 C181.960009,3.09893991 183.002322,0.227636313 183.002322,0.227636313 L217.805167,0.227636313 C217.221535,1.28071275 216.73122,2.69170793 215.649365,3.33118939 C214.795268,3.83704786 213.064932,3.74637512 211.998894,3.74160287 C210.720912,3.73523987 204.531877,3.75432887 204.531877,3.75432887 L197.267313,23.8248205 L187.046627,23.8248205 Z" id="Fill-2" fill="#ffffff"></path>
                <path d="M51.4678462,23.8606124 C49.7580719,23.8606124 48.0467158,23.8653846 46.3353598,23.8447049 C44.7189034,23.8240251 43.0629055,23.7508506 41.5112971,23.2529459 C40.2174993,22.8377602 38.9142115,22.120332 38.642166,20.6679773 C38.3954271,19.3444734 38.8762517,17.947795 39.3096265,16.7149638 C41.2376699,11.2109691 45.2598311,0.225250188 45.2598311,0.225250188 C45.2598311,0.225250188 53.2915001,0.228431687 54.9696413,0.228431687 C53.7675798,3.47833376 52.5781715,6.73300808 51.4029982,9.9940454 C50.7592626,11.7836391 50.1092004,13.5700512 49.4812814,15.3660079 C48.9324454,16.9376688 48.4800907,18.2325392 48.4800907,18.7877109 C48.4800907,19.8280614 49.8165933,19.8948729 51.4377947,19.9537306 C52.4722003,19.9887271 53.5081875,19.9823641 54.5425931,19.9807734 C55.7699612,19.9791826 56.998911,19.9744104 58.2278607,19.9728196 C62.2088987,19.9632751 66.1899367,19.9537306 70.1709747,19.9441861 C69.1666207,20.9256788 68.1638483,21.9071715 67.1594942,22.8870734 C66.7814775,23.2577182 66.3749909,23.8081176 65.8135017,23.8240251 C65.3627286,23.8383419 64.9103738,23.8272066 64.4596008,23.8287974 C60.1290159,23.8399326 55.7984311,23.8606124 51.4678462,23.8606124" id="Fill-4" fill="#ffffff"></path>
                <g id="Group-8">
                    <mask id="mask-2" fill="white">
                        <use xlink:href="#path-1"></use>
                    </mask>
                    <g id="Clip-7"></g>
                    <path d="M21.966251,23.8614078 C18.9721688,23.8614078 15.9749233,23.8550448 12.9808411,23.7755073 C9.87604266,23.6927883 6.55139353,23.7659628 3.65062925,22.5108611 C2.17335889,21.8713796 0.915939256,21.0425989 0.362358286,19.4534398 C-0.197549323,17.8436008 -0.0283117124,15.9840142 0.330725088,14.3487233 C0.734048366,12.5098164 1.45528529,10.75681 2.18917549,9.03084633 C2.81393115,7.55940266 3.59210783,6.14204449 4.59171689,4.89330581 C5.502753,3.75432887 6.60516996,2.71715993 7.90529441,2.04586346 C9.33511497,1.30934625 10.9310098,0.976879521 12.5079248,0.746220784 C15.576345,0.302401558 18.6590002,0.289675559 21.752727,0.254679061 C26.9041933,0.195821314 32.0556596,0.208547314 37.207126,0.227636313 L37.4206501,0.227636313 C36.9951835,1.21071976 36.6329834,2.28447595 35.7693971,2.97327066 C34.6400919,3.87522586 33.0267988,3.75114737 31.6697346,3.74796587 C28.8686149,3.73842137 26.0659135,3.73683062 23.2632122,3.76705487 C20.1884653,3.80046062 16.348195,3.56821113 14.0943297,6.08954974 C13.0551791,7.25397868 12.2548592,8.6474756 11.595307,10.0552893 C10.8376919,11.6730819 10.1702314,13.3497323 9.81277627,15.1059202 C9.55812902,16.3626127 9.45690279,17.9247291 10.5988612,18.777371 C11.5494389,19.490027 12.851145,19.6729632 13.9978484,19.7779527 C15.5589467,19.9211202 18.6416019,19.8988497 23.8879678,19.9020312 C26.8836317,19.9052127 29.8808772,19.9004405 32.8765411,19.897259 L32.8971027,19.897259 C32.5712808,20.7801252 32.2565304,21.6677636 31.895912,22.5363131 C31.6238665,23.1901113 31.2537581,23.6387028 30.5293578,23.7548275 C30.0880747,23.8232298 29.6420466,23.796187 29.1976002,23.80255 C26.7871505,23.8311835 24.3767007,23.8614078 21.966251,23.8614078" id="Fill-6" fill="#ffffff" mask="url(#mask-2)"></path>
                </g>
                <path d="M70.4972712,23.8241842 C75.534858,18.6272043 80.5550465,13.412726 85.687533,8.30960032 C87.6994044,6.31002768 89.6701526,4.20864704 91.8227918,2.35701415 C93.0469965,1.30234695 94.3455393,0.672409988 95.9414342,0.438569751 C96.9647681,0.289039259 98.3771904,0.233363012 100.332122,0.231772262 C102.239604,0.228590762 109.390288,0.227000013 109.390288,0.227000013 C109.390288,0.227000013 110.957713,18.4713108 111.417976,23.8241842 L102.255421,23.8241842 L101.784086,17.7316121 L84.8982847,17.7316121 L78.9544067,23.825775 C78.9544067,23.825775 72.7432282,23.8241842 70.4972712,23.8241842 L70.4972712,23.8241842 Z M101.432957,13.8040505 L100.820855,4.1752413 C100.820855,4.1752413 100.724374,4.16410605 100.471308,4.16728755 C99.2803183,4.1816043 98.2206061,4.12274655 97.3016617,4.9753885 C94.5369202,7.53967736 88.9378441,13.5638473 88.7116667,13.8040505 L101.432957,13.8040505 Z" id="Fill-9" fill="#ffffff"></path>
                <path d="M146.697217,23.8474092 C145.599545,23.8474092 144.653713,23.6453839 143.823341,22.8897777 C142.97399,22.118264 142.216375,21.2178996 141.436616,20.3779836 C140.092205,18.9304012 138.773101,17.4589575 137.45716,15.9859231 C135.76162,14.0897492 134.048683,12.2078921 132.400593,10.2703587 C134.841094,10.2783124 137.291086,10.3196719 139.728424,10.1733229 C141.311665,10.0778779 143.024603,9.88539718 144.395902,9.01366623 C145.593219,8.25328777 146.445733,6.8550186 146.646604,5.45038643 C146.902833,3.66397427 144.951065,3.79759727 143.71737,3.76578227 C142.244844,3.73078577 140.769156,3.74669327 139.298212,3.74192102 C137.586856,3.73873952 135.873918,3.73714877 134.162562,3.73555802 C133.567858,3.73555802 133.525153,3.67670027 133.419182,3.96621676 C131.255471,9.95061793 129.090179,15.9350191 126.924887,21.9194203 C126.701873,22.5366312 126.246354,23.8171849 126.246354,23.8171849 C126.246354,23.8171849 119.064037,23.8251387 116.485931,23.8251387 C118.470914,18.340233 125.023731,0.231135962 125.023731,0.231135962 C125.023731,0.231135962 128.020977,0.227954462 129.183497,0.226363713 C133.136065,0.220000713 137.087051,0.216819213 141.038038,0.227954462 C143.818596,0.235908212 146.597573,0.227954462 149.376549,0.294765959 C151.321991,0.339306956 154.006068,0.383847954 155.402673,1.98096087 C156.365904,3.08175981 156.20932,4.72818597 155.874008,6.04373614 C155.473848,7.61698781 154.749448,9.05661648 153.615398,10.2242269 C151.44536,12.4544583 148.615771,13.5107162 145.629597,14.1024752 C148.658475,17.3428328 151.688936,20.5847811 154.717815,23.8251387 C152.043228,23.8251387 149.368641,23.8474092 146.697217,23.8474092" id="Fill-11" fill="#ffffff"></path>
                <path d="M226.74724,23.8248205 C227.743685,21.0871399 228.738549,18.3494593 229.734995,15.6117787 C229.866273,15.2490877 229.905815,15.1790947 229.850456,15.0916035 C229.668566,14.7973148 229.485093,14.5062075 229.30162,14.2119188 C228.493392,12.9170484 222.664975,3.59525388 220.562949,0.227636313 L230.843739,0.227636313 C230.843739,0.227636313 235.874999,8.6188421 237.015376,10.521379 C241.290603,7.47986516 245.559503,4.42562533 249.852128,1.41115425 C250.90235,0.669864788 251.765936,0.235590062 253.067642,0.179913815 C254.301337,0.125828318 259.467038,0.149689567 260.809868,0.152871067 C256.124991,3.49185513 242.266487,13.3751843 240.02053,14.9770695 C239.523888,15.3286252 239.500164,15.50838 239.281894,16.1208187 C238.666629,17.8149673 236.491846,23.8248205 236.491846,23.8248205 L226.74724,23.8248205 Z" id="Fill-13" fill="#ffffff"></path>
            </g>
        </g>
        <g id="Civ_Si_Redsgn" transform="translate(1.000000, 58.000000)">
            <path d="M259.700128,6.25 L171.627119,6.28335862 M90.390261,6.28335862 L0,6.25" id="Eyebrow-Copy" stroke="#ffffff" stroke-width="2.432" stroke-linecap="round"></path>
            <path d="M98.6755374,10.8655914 C98.8917093,10.8655914 99.337564,10.7446237 99.337564,10.1129032 L99.337564,6.51075269 L103.134084,6.51075269 C103.701535,6.51075269 103.7826,6.10752688 103.7826,5.9327957 C103.7826,5.77150538 103.701535,5.36827957 103.134084,5.36827957 L99.337564,5.36827957 L99.337564,2.41129032 L103.41781,2.41129032 C103.998772,2.41129032 104.079836,2.00806452 104.079836,1.83333333 C104.079836,1.64516129 103.998772,1.24193548 103.41781,1.24193548 L98.7971341,1.24193548 C98.2567042,1.24193548 98,1.49731183 98,2.03494624 L98,10.1129032 C98,10.7446237 98.4458547,10.8655914 98.6755374,10.8655914 Z M109.322006,11 C111.848516,11 113.037462,9.18548387 113.037462,7.23655914 L113.037462,1.88709677 C113.037462,1.25537634 112.591607,1.1344086 112.361924,1.1344086 C112.145752,1.1344086 111.699898,1.25537634 111.699898,1.88709677 L111.699898,7.15591398 C111.699898,8.45967742 111.105425,9.80376344 109.322006,9.80376344 C107.538588,9.80376344 106.944115,8.45967742 106.944115,7.15591398 L106.944115,1.88709677 C106.944115,1.25537634 106.49826,1.1344086 106.282088,1.1344086 C106.052405,1.1344086 105.606551,1.25537634 105.606551,1.88709677 L105.606551,7.23655914 C105.606551,9.18548387 106.809007,11 109.322006,11 Z M121.089867,10.7580645 C121.657318,10.7580645 121.738383,10.3548387 121.738383,10.1666667 C121.738383,9.97849462 121.657318,9.57526882 121.089867,9.57526882 L116.63132,9.57526882 L116.63132,6.40322581 L120.60348,6.40322581 C121.170931,6.40322581 121.251996,6 121.251996,5.82526882 C121.251996,5.65053763 121.170931,5.26075269 120.60348,5.26075269 L116.63132,5.26075269 L116.63132,2.41129032 L120.873695,2.41129032 C121.454657,2.41129032 121.535722,2.00806452 121.535722,1.83333333 C121.535722,1.64516129 121.454657,1.24193548 120.873695,1.24193548 L116.09089,1.24193548 C115.550461,1.24193548 115.293756,1.49731183 115.293756,2.03494624 L115.293756,9.96505376 C115.293756,10.5026882 115.550461,10.7580645 116.09089,10.7580645 L121.089867,10.7580645 Z M128.466735,10.7580645 C129.034186,10.7580645 129.128762,10.3548387 129.128762,10.1666667 C129.128762,9.97849462 129.034186,9.57526882 128.466735,9.57526882 L124.751279,9.57526882 L124.751279,1.88709677 C124.751279,1.25537634 124.305425,1.1344086 124.089253,1.1344086 C123.85957,1.1344086 123.413715,1.25537634 123.413715,1.88709677 L123.413715,9.96505376 C123.413715,10.5026882 123.67042,10.7580645 124.21085,10.7580645 L128.466735,10.7580645 Z M138.248516,11 C139.680655,11 140.748004,10.4758065 141.423541,9.77688172 C141.612692,9.58870968 141.680246,9.38709677 141.680246,9.21236559 C141.680246,8.84946237 141.410031,8.62096774 141.085773,8.62096774 C140.923644,8.62096774 140.761515,8.67473118 140.545343,8.88978495 C139.923849,9.53494624 139.126714,9.8172043 138.262027,9.8172043 C136.059775,9.8172043 134.668168,8.12365591 134.668168,5.98655914 C134.668168,3.90322581 136.086796,2.16935484 138.302559,2.16935484 C139.126714,2.16935484 139.856295,2.50537634 140.288639,2.89516129 C140.531832,3.11021505 140.693961,3.16397849 140.85609,3.16397849 C141.234391,3.16397849 141.491095,2.88172043 141.491095,2.53225806 C141.491095,2.39784946 141.450563,2.20967742 141.22088,1.99462366 C140.531832,1.36290323 139.423951,1 138.302559,1 C135.397748,1 133.209007,3.01612903 133.209007,5.98655914 C133.209007,8.91666667 135.316684,11 138.248516,11 Z M149.057114,10.7580645 C149.624565,10.7580645 149.705629,10.3548387 149.705629,10.1666667 C149.705629,9.97849462 149.624565,9.57526882 149.057114,9.57526882 L144.598567,9.57526882 L144.598567,6.40322581 L148.570727,6.40322581 C149.138178,6.40322581 149.219243,6 149.219243,5.82526882 C149.219243,5.65053763 149.138178,5.26075269 148.570727,5.26075269 L144.598567,5.26075269 L144.598567,2.41129032 L148.840942,2.41129032 C149.421904,2.41129032 149.502968,2.00806452 149.502968,1.83333333 C149.502968,1.64516129 149.421904,1.24193548 148.840942,1.24193548 L144.058137,1.24193548 C143.517707,1.24193548 143.261003,1.49731183 143.261003,2.03494624 L143.261003,9.96505376 C143.261003,10.5026882 143.517707,10.7580645 144.058137,10.7580645 L149.057114,10.7580645 Z M156.433982,10.7580645 C157.001433,10.7580645 157.096008,10.3548387 157.096008,10.1666667 C157.096008,9.97849462 157.001433,9.57526882 156.433982,9.57526882 L152.718526,9.57526882 L152.718526,1.88709677 C152.718526,1.25537634 152.272671,1.1344086 152.056499,1.1344086 C151.826817,1.1344086 151.380962,1.25537634 151.380962,1.88709677 L151.380962,9.96505376 C151.380962,10.5026882 151.637666,10.7580645 152.178096,10.7580645 L156.433982,10.7580645 Z M163.337973,10.7580645 C163.905425,10.7580645 164,10.3548387 164,10.1666667 C164,9.97849462 163.905425,9.57526882 163.337973,9.57526882 L159.622518,9.57526882 L159.622518,1.88709677 C159.622518,1.25537634 159.176663,1.1344086 158.960491,1.1344086 C158.730809,1.1344086 158.284954,1.25537634 158.284954,1.88709677 L158.284954,9.96505376 C158.284954,10.5026882 158.541658,10.7580645 159.082088,10.7580645 L163.337973,10.7580645 Z" id="FUELCELL" fill="#ffffff" fill-rule="nonzero"></path>
        </g>
        <g id="Group" transform="translate(1.000000, 4.000000)">
            <path d="M259.895869,6.5 L154.951459,6.5 M107.159202,6.5 L0,6.5" id="Eyebrow" stroke="#ffffff" stroke-width="2.432" stroke-linecap="round"></path>
            <path d="M121.700758,10.7580645 C122.244318,10.7580645 122.337121,10.3548387 122.337121,10.1666667 C122.337121,9.97849462 122.244318,9.58870968 121.700758,9.58870968 L117.670455,9.58870968 L120.679924,6.57795699 C121.501894,5.75806452 122.191288,4.92473118 122.191288,3.7016129 C122.191288,1.92741935 120.785985,1 119.221591,1 C117.909091,1 116.861742,1.72580645 116.410985,2.76075269 C116.357955,2.88172043 116.318182,3.02956989 116.318182,3.16397849 C116.318182,3.55376344 116.609848,3.7688172 116.92803,3.7688172 C117.179924,3.7688172 117.418561,3.60752688 117.577652,3.24462366 C117.882576,2.5188172 118.452652,2.08870968 119.208333,2.08870968 C120.136364,2.08870968 120.878788,2.73387097 120.878788,3.72849462 C120.878788,4.53494624 120.414773,5.15322581 119.844697,5.74462366 L116.424242,9.26612903 C116.092803,9.60215054 116,9.83064516 116,10.0591398 C116,10.2876344 116.106061,10.7580645 116.861742,10.7580645 L121.700758,10.7580645 Z M127.149621,11 C129.376894,11 130.344697,8.78225806 130.344697,6 C130.344697,3.2311828 129.376894,1 127.149621,1 C124.909091,1 123.941288,3.2311828 123.941288,6 C123.941288,8.78225806 124.909091,11 127.149621,11 Z M127.149621,9.89784946 C125.598485,9.89784946 125.253788,7.61290323 125.253788,6 C125.253788,4.40053763 125.598485,2.08870968 127.149621,2.08870968 C128.674242,2.08870968 129.032197,4.40053763 129.032197,6 C129.032197,7.61290323 128.674242,9.89784946 127.149621,9.89784946 Z M137.477273,10.7580645 C138.020833,10.7580645 138.113636,10.3548387 138.113636,10.1666667 C138.113636,9.97849462 138.020833,9.58870968 137.477273,9.58870968 L133.44697,9.58870968 L136.456439,6.57795699 C137.278409,5.75806452 137.967803,4.92473118 137.967803,3.7016129 C137.967803,1.92741935 136.5625,1 134.998106,1 C133.685606,1 132.638258,1.72580645 132.1875,2.76075269 C132.13447,2.88172043 132.094697,3.02956989 132.094697,3.16397849 C132.094697,3.55376344 132.386364,3.7688172 132.704545,3.7688172 C132.956439,3.7688172 133.195076,3.60752688 133.354167,3.24462366 C133.659091,2.5188172 134.229167,2.08870968 134.984848,2.08870968 C135.912879,2.08870968 136.655303,2.73387097 136.655303,3.72849462 C136.655303,4.53494624 136.191288,5.15322581 135.621212,5.74462366 L132.200758,9.26612903 C131.869318,9.60215054 131.776515,9.83064516 131.776515,10.0591398 C131.776515,10.2876344 131.882576,10.7580645 132.638258,10.7580645 L137.477273,10.7580645 Z M143.363636,10.8655914 C143.575758,10.8655914 144,10.7580645 144,10.1397849 L144,1.95430108 C144,1.24193548 143.522727,1.1344086 143.270833,1.1344086 C143.085227,1.1344086 142.886364,1.21505376 142.581439,1.45698925 L140.606061,3.08333333 C140.380682,3.25806452 140.327652,3.45967742 140.327652,3.60752688 C140.327652,3.94354839 140.579545,4.18548387 140.88447,4.18548387 C141.003788,4.18548387 141.176136,4.14516129 141.32197,4.01075269 L142.714015,2.82795699 L142.714015,10.1397849 C142.714015,10.7580645 143.151515,10.8655914 143.363636,10.8655914 Z" id="2021" fill="#ffffff" fill-rule="nonzero"></path>
        </g>
    </g>
</svg>