<svg width="480px" height="114px" viewBox="0 0 480 114" version="1.1" xmlns="http://www.w3.org/2000/svg" xmlns:xlink="http://www.w3.org/1999/xlink" role="presentation" aria-hidden="true">
    <title>MY21-Accord-Hybrid-Redesigned</title>
    <g id="Page-1" stroke="none" stroke-width="1" fill="none" fill-rule="evenodd">
        <g id="MY21-Accord-Hybrid-Redesigned" transform="translate(1.000000, 0.000000)">
            <g id="Accord" transform="translate(0.000000, 35.000000)" fill="#FFFFFF">
                <path d="M376.74,25.74 C380.146915,25.3790935 383.451371,24.3602477 386.47,22.74 C388.773253,21.4889456 390.768381,19.7397923 392.31,17.62 C393.460029,16.0502068 394.307802,14.280057 394.81,12.4 C396.81,4.68 392.98,2.4 383.76,1.97 C382.1,1.9 380.86,1.9 377.76,1.9 L334,1.9 L319.46,41.9 L338.23,41.9 L350.23,8.9 L369.84,8.9 C370.84,8.9 372.09,8.9 373.84,9.02 C377.11,9.23 377.28,10.41 376.77,12.59 C376.351584,13.9827188 375.555469,15.2322738 374.47,16.2 C373.06,17.4 370.76,18.27 367.47,18.53 C365.55,18.69 364.42,18.74 363.16,18.76 C362.39,18.76 361.94,18.76 360.97,18.76 L349.93,18.76 C349.93,18.76 370.64,39.92 370.79,40.05 C372.35,41.4 372.98,41.69 376.03,41.83 C376.48,41.83 377.39,41.83 377.87,41.83 L392.62,41.83 C392.62,41.83 376.62,25.76 376.74,25.75" id="Fill-1"></path>
                <path d="M66.38,41.82 L85.54,41.82 L85.8,1.82 C85.8,1.82 76.27,1.82 69.31,1.82 C66.52,1.82 64.44,1.82 63.64,1.82 C62.84,1.82 59.42,1.82 56.98,2.03 C52.93,2.4 50.67,3.46 47.13,5.94 C46.38,6.47 43.92,8.21 42.96,8.94 L0.14,41.82 L17.73,41.82 L29.59,32.65 L66.49,32.65 L66.38,41.82 Z M39.58,24.92 L39.72,24.81 L54.72,13.29 C56.28,12.11 57.2,11.44 57.99,10.87 C59.5056478,9.61365146 61.4609375,9.01590173 63.42,9.21 L66.76,9.21 L66.58,24.81 L66.58,24.92 L39.58,24.92 Z" id="Fill-3"></path>
                <path d="M292.62,27.61 C290.24,31.78 288.34,33.39 283.05,34.26 C280.075678,34.7471008 277.063449,34.9646507 274.05,34.91 C271.285325,34.9648627 268.521972,34.747144 265.8,34.26 C261.21,33.41 260.48,32.13 261.54,27.58 C262.099666,25.3998827 262.80116,23.2586565 263.64,21.17 C264.484475,18.9348833 265.48701,16.7627254 266.64,14.67 C269.14,10.27 270.51,8.99 276.04,8.07 C279.019615,7.64055776 282.031152,7.47325018 285.04,7.57 C287.828572,7.52876243 290.616329,7.69589413 293.38,8.07 C297.91,8.73 298.74,9.91 297.6,14.83 C297.074295,16.9819754 296.406156,19.0966349 295.6,21.16 C294.750272,23.3767511 293.747868,25.531919 292.6,27.61 M306.7,1.95 C301.7,1.04 292.53,0.67 286.79,0.68 C279.886193,0.647535865 272.9878,1.07179542 266.14,1.95 C256.26,3.55 252.77,5.71 248.98,12.34 C247.446869,15.1076513 246.16185,18.0056376 245.14,21 C244.131257,23.7809416 243.384676,26.650089 242.91,29.57 C241.91,36.07 243.39,39.33 252.28,40.95 C258.818515,41.9149044 265.420753,42.3829112 272.03,42.35 C278.93416,42.3631236 285.830851,41.8953249 292.67,40.95 C302.84,39.28 306.14,37.22 309.94,30.56 C311.485163,27.8276495 312.783637,24.9629751 313.82,22 C314.859634,19.206736 315.613486,16.315294 316.07,13.37 C317.22,6.49 315.39,3.55 306.72,1.95" id="Fill-5"></path>
                <path d="M137.28,8.8 L155.93,8.8 C157.13,8.8 157.55,8.8 158.86,8.8 C162.43,8.68 163.28,8.13 164.86,5.39 C165.28,4.66 166.15,3.01 166.65,1.88 L133.65,1.88 C132.71,1.88 129.65,1.88 127.54,1.95 C123.343098,1.98994489 119.15623,2.36783315 115.02,3.08 C108.4,4.38 105.67,6.94 102.5,12.41 C100.838954,15.3838243 99.4788798,18.516016 98.44,21.76 C97.3634624,24.698868 96.6906587,27.7702165 96.44,30.89 C96.27,34.83 98.04,38.1 103.12,40 C107.01,41.44 111.95,41.84 118.5,41.84 L150.77,41.84 C151.44,41.84 152.33,41.84 153.57,41.78 C155.06,41.72 155.95,41.56 156.68,40.21 C156.97,39.67 157.52,38.33 157.75,37.71 C158.29,36.32 158.99,34.37 158.99,34.37 L126.86,34.37 C122.95,34.37 120.8,34.37 118.41,33.69 C116.02,33.01 115.2,31.96 115.27,29.69 C115.38,26.15 118.55,16.94 120.67,13.82 C122.32,11.4 123.61,10.08 126.91,9.47 C130.34042,8.94501792 133.810875,8.72748697 137.28,8.82" id="Fill-8"></path>
                <path d="M209.72,8.8 L228.38,8.8 C229.57,8.8 230,8.8 231.3,8.8 C234.87,8.68 235.72,8.13 237.3,5.39 C237.72,4.66 238.58,3.01 239.09,1.88 L206.09,1.88 C205.15,1.88 202.09,1.88 199.98,1.95 C195.779809,1.9904456 191.589658,2.3683283 187.45,3.08 C180.83,4.38 178.11,6.94 174.93,12.41 C173.268954,15.3838243 171.90888,18.516016 170.87,21.76 C169.788295,24.6973608 169.115335,27.7694256 168.87,30.89 C168.7,34.83 170.46,38.1 175.55,40 C179.43,41.44 184.37,41.84 190.92,41.84 L223.14,41.84 C223.82,41.84 224.7,41.84 225.94,41.78 C227.44,41.72 228.33,41.56 229.05,40.21 C229.34,39.67 229.89,38.33 230.12,37.71 C230.66,36.32 231.36,34.37 231.36,34.37 L199.3,34.37 C195.4,34.37 193.3,34.37 190.85,33.69 C188.4,33.01 187.64,31.96 187.71,29.69 C187.83,26.15 190.99,16.94 193.12,13.82 C194.77,11.4 196.05,10.08 199.35,9.47 C202.780454,8.94533583 206.250881,8.72780666 209.72,8.82" id="Fill-10"></path>
                <path d="M453.37,29.22 C451.768964,31.6106765 449.220901,33.201396 446.37,33.59 C443.128201,34.1528611 439.83954,34.4006828 436.55,34.33 L422.63,34.33 L431.93,8.76 L449.56,8.76 C451.905208,8.68283063 454.251935,8.8571589 456.56,9.28 C458.65,9.75 459.24,11.08 459.18,13.35 C459.09,16.93 455.7,26.02 453.34,29.22 M471.61,3.04 C467.61,1.88 461.72,1.85 458.67,1.85 L415.67,1.85 L401.14,41.82 L437.79,41.82 C439.57,41.82 441,41.82 443.26,41.74 C447.712489,41.6973522 452.155292,41.3162539 456.55,40.6 C463.64,39.3 467.82,36.86 471.13,31.39 C472.922279,28.302638 474.41572,25.0512215 475.59,21.68 C476.420577,19.2633428 477.062501,16.7859163 477.51,14.27 C478.65,7.76 476.93,4.6 471.64,3.05" id="Fill-12"></path>
            </g>
            <g id="Hybrid" transform="translate(1.000000, 96.000000)">
                <polygon id="Path" fill="#FFFFFF" fill-rule="nonzero" points="196.75 0.14 198.48 0.14 198.48 7.51 207.74 7.51 207.74 0.14 209.47 0.14 209.47 17.14 207.74 17.14 207.74 9.14 198.48 9.14 198.48 17.14 196.75 17.14"></polygon>
                <polygon id="Path" fill="#FFFFFF" fill-rule="nonzero" points="219.53 17.14 217.8 17.14 217.8 9.82 211.44 0.14 213.6 0.14 218.66 8.14 223.73 0.14 225.89 0.14 219.53 9.81"></polygon>
                <path d="M227.86,0.14 L232.92,0.14 C233.592104,0.141232646 234.262298,0.211603047 234.92,0.35 C235.541291,0.484720273 236.133788,0.728490299 236.67,1.07 C237.177784,1.4075231 237.599116,1.85968428 237.9,2.39 C238.214486,3.00869121 238.369183,3.69623322 238.35,4.39 C238.417976,6.20474653 237.137955,7.7919726 235.35,8.11 L235.35,8.11 C236.420784,8.13550207 237.436609,8.58938116 238.17,9.37 C238.876807,10.2041464 239.234957,11.2785989 239.17,12.37 C239.146951,12.7760585 239.079891,13.1784152 238.97,13.57 C238.802455,14.1482011 238.512573,14.6836295 238.12,15.14 C237.599128,15.7215448 236.957505,16.1822849 236.24,16.49 C235.209076,16.9202657 234.096066,17.1182859 232.98,17.07 L227.8,17.07 L227.86,0.14 Z M229.58,7.58003694 L233.06,7.58003694 C233.478585,7.58165267 233.895545,7.52785142 234.3,7.42 C234.697556,7.32664 235.071867,7.1530962 235.4,6.91 C235.735536,6.66380635 236.012199,6.34615674 236.21,5.98 C236.431446,5.55473528 236.538287,5.07911787 236.52,4.6 C236.50738,4.35035351 236.470541,4.10252313 236.41,3.86 C236.32993,3.49387902 236.165578,3.15147716 235.93,2.86 C235.63555,2.50296293 235.262489,2.21888933 234.84,2.03 C234.22668,1.7729655 233.564474,1.65349519 232.9,1.68 L229.58,1.68 L229.58,7.58003694 Z M229.58,15.5800333 L232.9,15.5800333 C233.489134,15.5817481 234.076452,15.514626 234.65,15.38 C235.150989,15.2728199 235.628601,15.0763555 236.06,14.8 C236.46826,14.5511196 236.81112,14.2082605 237.06,13.8 C237.302051,13.3594338 237.422829,12.8625162 237.41,12.36 C237.480928,11.4001211 237.077521,10.466309 236.33,9.86 C235.386873,9.25857417 234.276036,8.97473273 233.16,9.05 L229.63,9.05 L229.58,15.5800333 Z" id="Shape" fill="#FFFFFF" fill-rule="nonzero"></path>
                <path d="M244.7,17.14 L242.97,17.14 L242.97,0.14 L248.21,0.14 C249.66039,0.0576994743 251.097582,0.454772213 252.3,1.27 C253.328065,2.08819118 253.888757,3.35909335 253.8,4.67 C253.835316,5.77831064 253.432983,6.85598745 252.68,7.67 C251.824141,8.5310851 250.673236,9.03505276 249.46,9.08 L254.35,17.14 L252.24,17.14 L247.58,9.24 L244.7,9.24 L244.7,17.14 Z M244.7,7.66 L247.77,7.66 C248.444751,7.67684139 249.118391,7.59600462 249.77,7.42 C250.238521,7.29520936 250.677199,7.07757058 251.06,6.78 C251.367881,6.53616879 251.605907,6.21535161 251.75,5.85 C251.895873,5.47719464 251.970497,5.08032792 251.970002,4.68 C251.968639,4.28958223 251.894014,3.90288814 251.75,3.54 C251.603778,3.17303339 251.366276,2.84948045 251.06,2.6 C250.682002,2.29485755 250.241645,2.07638571 249.77,1.96 C249.116992,1.79221262 248.444049,1.71482414 247.77,1.73 L244.7,1.73 L244.7,7.66 Z" id="Shape" fill="#FFFFFF" fill-rule="nonzero"></path>
                <polygon id="Path" fill="#FFFFFF" fill-rule="nonzero" points="258.93 17.14 257.21 17.14 257.21 0.14 258.93 0.14"></polygon>
                <path d="M263.3,0.14 L268.94,0.14 C270.021959,0.140275442 271.096436,0.319354824 272.12,0.67 C273.172972,1.01065755 274.150692,1.55044041 275,2.26 C275.87582,2.99147146 276.585023,3.90184237 277.08,4.93 C278.786062,8.36867371 277.927884,12.5275374 275,15.01 C274.150692,15.7195596 273.172972,16.2593424 272.12,16.6 C271.095215,16.9457914 270.02154,17.1247371 268.94,17.13 L263.3,17.13 L263.3,0.14 Z M265.03,15.55 L268.39,15.55 C269.541055,15.5749176 270.685874,15.3744895 271.76,14.96 C272.652572,14.6099788 273.462939,14.0788141 274.14,13.4 C274.757583,12.770533 275.234735,12.0173151 275.54,11.19 C276.152948,9.54180925 276.152948,7.72819075 275.54,6.08 C275.237231,5.25145328 274.759763,4.49773595 274.14,3.87 C273.462939,3.19118586 272.652572,2.66002116 271.76,2.31 C270.685874,1.8955105 269.541055,1.69508236 268.39,1.72 L265.03,1.72 L265.03,15.55 Z" id="Shape" fill="#FFFFFF" fill-rule="nonzero"></path>
                <path d="M475.64,8.64 L293.54,8.64 M185.08,8.64 L0.64,8.64" id="Eyebrow" stroke="#FFFFFF" stroke-width="3.29" stroke-linecap="round"></path>
            </g>
            <g id="Redesigned" transform="translate(1.000000, 0.000000)">
                <path d="M174.88,18.14 L173.14,18.14 L173.14,1.14 L178.37,1.14 C179.82055,1.05619809 181.258216,1.45340163 182.46,2.27 C183.488065,3.08819118 184.048757,4.35909335 183.96,5.67 C183.995316,6.77831064 183.592983,7.85598745 182.84,8.67 C181.984141,9.5310851 180.833236,10.0350528 179.62,10.08 L184.53,18.14 L182.42,18.14 L177.76,10.24 L174.88,10.24 L174.88,18.14 Z M174.88,8.66 L177.96,8.66 C178.634831,8.67855622 179.308719,8.59768969 179.96,8.42 C180.429308,8.29730337 180.868391,8.07946359 181.25,7.78 C181.557881,7.53616879 181.795907,7.21535161 181.94,6.85 C182.090757,6.4786127 182.165563,6.08078072 182.16,5.68 C182.163443,5.28912937 182.088642,4.90152084 181.94,4.54 C181.793778,4.17303339 181.556276,3.84948045 181.25,3.6 C180.873267,3.29288828 180.432447,3.074187 179.96,2.96 C179.307179,2.79120709 178.634095,2.71380253 177.96,2.73 L174.88,2.73 L174.88,8.66 Z" id="Shape" fill="#FFFFFF" fill-rule="nonzero"></path>
                <path d="M187.92,12.96 C187.960504,13.5059096 188.095864,14.0405796 188.32,14.54 C188.533979,15.0185871 188.83587,15.452768 189.21,15.82 C189.577674,16.1813151 190.008014,16.4727263 190.48,16.68 C191.70866,17.1765851 193.098444,17.0730906 194.24,16.4 C194.805854,16.0614153 195.285159,15.5958044 195.64,15.04 L196.87,16.04 C196.284821,16.8166799 195.524074,17.4437823 194.65,17.87 C193.828656,18.2357579 192.939096,18.4232131 192.04,18.42 C191.247517,18.4274763 190.461727,18.2744003 189.73,17.97 C189.037081,17.6937915 188.410131,17.2746891 187.89,16.74 C187.37349,16.197649 186.963087,15.5633893 186.68,14.87 C186.377941,14.1203949 186.228359,13.3180915 186.24,12.51 C186.230896,11.7063048 186.376896,10.9083975 186.67,10.16 C186.945072,9.46480991 187.352627,8.8297033 187.87,8.29 C188.38135,7.76081911 188.993345,7.33922193 189.67,7.05 C190.376175,6.75484468 191.134639,6.60519257 191.9,6.61 C192.684479,6.59492375 193.462733,6.75193976 194.18,7.07 C194.823843,7.34701819 195.400304,7.75975053 195.87,8.28 C196.337325,8.79201284 196.694686,9.39442155 196.92,10.05 C197.163151,10.7508935 197.284899,11.4881442 197.28,12.23 L197.28,12.95 L187.92,12.96 Z M195.55,11.66 C195.581351,10.6938695 195.220678,9.7561196 194.55,9.06 C193.834036,8.36293176 192.857445,7.99988678 191.86,8.06 C191.348333,8.05999554 190.841797,8.16198258 190.37,8.36 C189.91863,8.54816702 189.502664,8.8119501 189.14,9.14 C188.783449,9.46960423 188.491757,9.86304848 188.28,10.3 C188.064513,10.7138834 187.951353,11.1733822 187.95,11.64 L195.55,11.66 Z" id="Shape" fill="#FFFFFF" fill-rule="nonzero"></path>
                <path d="M211.36,18.14 L209.78,18.14 L209.78,16.27 L209.78,16.27 C209.534844,16.6519694 209.227224,16.9900124 208.87,17.27 C208.530892,17.5357197 208.161685,17.7606002 207.77,17.94 C207.390565,18.1176457 206.990979,18.2486024 206.58,18.33 C206.194757,18.4074691 205.802948,18.4476546 205.41,18.45 C204.584882,18.4600486 203.765895,18.3071257 203,18 C202.295113,17.7242347 201.654997,17.305435 201.12,16.77 C200.587058,16.2348111 200.165589,15.5992085 199.88,14.9 C199.293111,13.3848469 199.293111,11.7051531 199.88,10.19 C200.165589,9.49079153 200.587058,8.85518885 201.12,8.32 C201.657104,7.78469349 202.29647,7.36298391 203,7.08 C203.767915,6.78095681 204.585955,6.63160501 205.41,6.64 C205.802948,6.64234536 206.194757,6.68253088 206.58,6.76 C206.989431,6.84252939 207.388511,6.96996656 207.77,7.14 C208.161912,7.32302753 208.531084,7.55124306 208.87,7.82 C209.227224,8.09998762 209.534844,8.43803065 209.78,8.82 L209.78,8.82 L209.78,0 L211.36,0 L211.36,18.14 Z M201.14,12.52 C201.135314,13.1197768 201.236883,13.7156442 201.44,14.28 C201.627297,14.8015882 201.916207,15.2808384 202.29,15.69 C202.663222,16.0948321 203.116006,16.4182494 203.62,16.64 C204.175702,16.8785701 204.775302,16.9978088 205.38,16.99 C205.983929,16.9897432 206.581923,16.870824 207.14,16.64 C208.2142,16.2025089 209.067971,15.3523402 209.51,14.28 C209.950167,13.1513989 209.950167,11.8986011 209.51,10.77 C209.067971,9.69765976 208.2142,8.84749105 207.14,8.41 C206.572597,8.17528733 205.964022,8.05629214 205.35,8.06 C204.745302,8.05219121 204.145702,8.17142994 203.59,8.41 C203.081468,8.64641487 202.628332,8.98711921 202.26,9.41 C201.886207,9.81916159 201.597297,10.2984118 201.41,10.82 C201.223761,11.3671349 201.132445,11.942086 201.14,12.52 L201.14,12.52 Z" id="Shape" fill="#FFFFFF" fill-rule="nonzero"></path>
                <path d="M215.92,12.96 C215.969194,13.50557 216.107706,14.0393482 216.33,14.54 C216.543979,15.0185871 216.84587,15.452768 217.22,15.82 C217.587674,16.1813151 218.018014,16.4727263 218.49,16.68 C219.71866,17.1765851 221.108444,17.0730906 222.25,16.4 C222.813659,16.0585661 223.292375,15.5935278 223.65,15.04 L224.88,16.04 C224.292646,16.8145946 223.532442,17.4412493 222.66,17.87 C221.838656,18.2357579 220.949096,18.4232131 220.05,18.42 C219.257517,18.4274763 218.471727,18.2744003 217.74,17.97 C217.045799,17.6962331 216.418365,17.2768068 215.9,16.74 C215.379643,16.2006922 214.968735,15.5656514 214.69,14.87 C214.384778,14.121019 214.231801,13.3187434 214.24,12.51 C214.234329,11.7056735 214.38372,10.907791 214.68,10.16 C214.9476,9.46100634 215.356057,8.82449552 215.88,8.29 C216.39135,7.76081911 217.003345,7.33922193 217.68,7.05 C218.385852,6.75378245 219.144535,6.60408703 219.91,6.61 C220.694479,6.59492375 221.472733,6.75193976 222.19,7.07 C222.831873,7.35049837 223.407645,7.76273754 223.88,8.28 C224.329871,8.796112 224.670098,9.39831225 224.88,10.05 C225.123151,10.7508935 225.244899,11.4881442 225.24,12.23 L225.24,12.95 L215.92,12.96 Z M223.56,11.66 C223.586821,10.6946402 223.226799,9.7585829 222.56,9.06 C221.843359,8.36400289 220.867257,8.00114005 219.87,8.06 C219.358225,8.05891345 218.851477,8.16094329 218.38,8.36 C217.925095,8.54716068 217.505676,8.81098845 217.14,9.14 C216.783449,9.46960423 216.491757,9.86304848 216.28,10.3 C216.064513,10.7138834 215.951353,11.1733822 215.95,11.64 L223.56,11.66 Z" id="Shape" fill="#FFFFFF" fill-rule="nonzero"></path>
                <path d="M234.14,9.57 C233.906404,9.12372146 233.562062,8.7449459 233.14,8.47 C232.702816,8.1876451 232.190211,8.04467345 231.67,8.06 C231.390285,8.05926576 231.111536,8.09284994 230.84,8.16 C230.574075,8.21435709 230.320054,8.3159655 230.09,8.46 C229.869311,8.58097195 229.683375,8.75657767 229.55,8.97 C229.404567,9.19988831 229.331417,9.46810736 229.34,9.74 C229.305911,10.1962167 229.519828,10.6355105 229.9,10.89 C230.412165,11.1881539 230.969455,11.4009372 231.55,11.52 L233.16,11.9 C233.91899,12.0477341 234.615909,12.4205859 235.16,12.97 C235.681206,13.5028257 235.962851,14.224992 235.94,14.97 C235.953353,15.5176176 235.822293,16.0590992 235.56,16.54 C235.318848,16.9755266 234.975717,17.3461075 234.56,17.62 C234.133869,17.9081905 233.659792,18.118139 233.16,18.24 C232.632052,18.3629128 232.092056,18.426639 231.55,18.4301016 C230.721451,18.4348218 229.900883,18.2679844 229.14,17.94 C228.351383,17.5714026 227.687552,16.9805586 227.23,16.24 L228.6,15.31 C228.902305,15.8057521 229.316753,16.2236254 229.81,16.53 C230.333603,16.8476893 230.937805,17.0074209 231.55,16.99 C231.886402,16.9909104 232.22184,16.9540122 232.55,16.88 C232.851398,16.8184508 233.139298,16.7032908 233.4,16.54 C233.643845,16.3978791 233.849697,16.1988884 234,15.96 C234.155371,15.7077359 234.235189,15.4162271 234.23,15.12 C234.267015,14.6270382 234.023372,14.1552212 233.6,13.9 C233.127816,13.6336997 232.619041,13.4382763 232.09,13.32 L230.56,12.96 C230.36,12.9066667 230.1,12.8266667 229.78,12.72 C229.422788,12.6015613 229.085617,12.429604 228.78,12.21 C228.454674,11.9769297 228.179269,11.6811239 227.97,11.34 C227.738441,10.9323485 227.624225,10.4685622 227.64,10 C227.626824,9.47630519 227.74364,8.95750788 227.98,8.49 C228.213856,8.09000246 228.535218,7.74812713 228.92,7.49 C229.324235,7.20813383 229.774211,6.99837037 230.25,6.87 C230.752674,6.73778098 231.270228,6.67056618 231.79,6.67 C232.541559,6.66210311 233.285705,6.81912483 233.97,7.13 C234.658479,7.44864152 235.211358,8.00152123 235.53,8.69 L234.14,9.57 Z" id="Path" fill="#FFFFFF" fill-rule="nonzero"></path>
                <path d="M240.69,2.59 C240.697247,2.90601858 240.565683,3.20934864 240.33,3.42 C239.88873,3.84414924 239.19127,3.84414924 238.75,3.42 C238.514317,3.20934864 238.382753,2.90601858 238.39,2.59 C238.381381,2.27371464 238.513185,1.96983209 238.75,1.76 C239.19127,1.33585076 239.88873,1.33585076 240.33,1.76 C240.566815,1.96983209 240.698619,2.27371464 240.69,2.59 L240.69,2.59 Z M240.33,18.14 L238.75,18.14 L238.75,6.91 L240.33,6.91 L240.33,18.14 Z" id="Shape" fill="#FFFFFF" fill-rule="nonzero"></path>
                <path d="M245.01,20.4 C245.489096,21.0333588 246.108696,21.5468389 246.82,21.9 C247.595228,22.2775631 248.447767,22.4692989 249.31,22.46 C249.992858,22.4715746 250.671655,22.352785 251.31,22.11 C251.830056,21.9068904 252.293238,21.5809479 252.66,21.16 C253.013684,20.7567671 253.270251,20.2778411 253.41,19.76 C253.564644,19.1998174 253.642026,18.6211326 253.64,18.04 L253.64,16.04 L253.64,16.04 C253.189426,16.7544669 252.539283,17.3211689 251.77,17.67 C251.034666,17.9887179 250.241431,18.1521311 249.44,18.15 C248.655902,18.1576829 247.877902,18.0115955 247.15,17.72 C246.459059,17.4469958 245.827456,17.0429055 245.29,16.53 C244.753124,16.0191944 244.327563,15.4029832 244.04,14.72 C243.729636,14.0003038 243.57296,13.2237339 243.58,12.44 C243.575897,11.6594664 243.721879,10.8854213 244.01,10.16 C244.288031,9.47462462 244.691616,8.84720199 245.2,8.31 C245.71135,7.78081911 246.323345,7.35922193 247,7.07 C247.726536,6.77270151 248.50502,6.62312373 249.29,6.63 C249.648982,6.63037627 250.007165,6.66385129 250.36,6.73 C250.748713,6.79351498 251.128197,6.90433789 251.49,7.06 C251.888285,7.23461191 252.264283,7.45618201 252.61,7.72 C252.989136,8.03092725 253.325396,8.39072575 253.61,8.79 L253.61,8.79 L253.61,6.91 L255.19,6.91 L255.19,18.04 C255.186564,18.7130634 255.109438,19.3837269 254.96,20.04 C254.808875,20.728789 254.504695,21.3747438 254.07,21.93 C253.581833,22.5473362 252.95483,23.0407155 252.24,23.37 C251.273432,23.7921528 250.223961,23.9904242 249.17,23.95 C248.143286,23.969075 247.123173,23.7820542 246.17,23.4 C245.257724,23.0067584 244.439597,22.4238433 243.77,21.69 L245.01,20.4 Z M245.3,12.4 C245.29783,12.9721074 245.406498,13.5392189 245.62,14.07 C245.834232,14.575218 246.135468,15.0389182 246.51,15.44 C246.888562,15.8291263 247.336167,16.1444841 247.83,16.37 C248.348286,16.6044065 248.911183,16.7238089 249.48,16.72 C250.595209,16.7206593 251.668475,16.2949305 252.48,15.53 C252.882656,15.1535111 253.196858,14.6924539 253.4,14.18 C253.626303,13.6149931 253.728611,13.0079699 253.7,12.4 C253.705525,11.8312047 253.610742,11.2658882 253.42,10.73 C253.227305,10.2252309 252.942468,9.76067477 252.58,9.36 C252.197735,8.96164436 251.73842,8.64522695 251.23,8.43 C250.670512,8.19231887 250.067843,8.07314706 249.46,8.08 C248.891183,8.0761911 248.328286,8.19559348 247.81,8.43 C247.316167,8.65551588 246.868562,8.9708737 246.49,9.36 C246.115468,9.76108177 245.814232,10.224782 245.6,10.73 C245.395857,11.2558824 245.294032,11.8159157 245.3,12.38 L245.3,12.4 Z" id="Shape" fill="#FFFFFF" fill-rule="nonzero"></path>
                <path d="M260.32,6.91 C260.32,7.21 260.38,7.51 260.38,7.81 C260.38,8.11 260.38,8.4 260.38,8.71 L260.43,8.71 C260.610289,8.39543815 260.839872,8.111835 261.11,7.87 C261.380753,7.60826054 261.687111,7.38606685 262.02,7.21 C262.356055,7.01992373 262.715868,6.87532597 263.09,6.78 C263.450269,6.67305477 263.824194,6.61915564 264.2,6.62 C265.378296,6.51974625 266.542124,6.93565968 267.39,7.76 C268.120794,8.67870552 268.477925,9.83938113 268.39,11.01 L268.39,18.14 L266.81,18.14 L266.81,11.92 C266.873384,10.9239548 266.647668,9.93080605 266.16,9.06 C265.592225,8.32688691 264.680348,7.94693822 263.76,8.06 C263.534721,8.07865015 263.310907,8.11205517 263.09,8.16 C262.670038,8.2466639 262.274118,8.42414554 261.93,8.68 C261.470378,9.02252712 261.097127,9.4676886 260.84,9.98 C260.480201,10.7269982 260.311815,11.5517468 260.35,12.38 L260.35,18.14 L258.77,18.14 L258.77,9.38 C258.77,9.08 258.77,8.69 258.77,8.23 C258.77,7.77 258.72,7.32 258.69,6.91 L260.32,6.91 Z" id="Path" fill="#FFFFFF" fill-rule="nonzero"></path>
                <path d="M273.26,12.96 C273.304071,13.5064471 273.442803,14.0410731 273.67,14.54 C273.879844,15.0209097 274.182253,15.4558357 274.56,15.82 C274.925922,16.1834497 275.356683,16.4751456 275.83,16.68 C277.055295,17.1763932 278.442009,17.072852 279.58,16.4 C280.148601,16.0614818 280.631182,15.5960136 280.99,15.04 L282.21,16.04 C281.627059,16.8188193 280.865747,17.4463881 279.99,17.87 C279.171827,18.2346654 278.285759,18.4221029 277.39,18.42 C276.594282,18.427449 275.80523,18.2744 275.07,17.97 C274.380093,17.6936252 273.756445,17.2744518 273.24,16.74 C272.716457,16.2012461 272.302167,15.5662292 272.02,14.87 C271.439789,13.3536059 271.439789,11.6763941 272.02,10.16 C272.295072,9.46480991 272.702627,8.8297033 273.22,8.29 C273.73135,7.76081911 274.343345,7.33922193 275.02,7.05 C275.726175,6.75484468 276.484639,6.60519257 277.25,6.61 C278.034479,6.59492375 278.812733,6.75193976 279.53,7.07 C280.176816,7.34687319 280.756573,7.7595237 281.23,8.28 C281.676326,8.79861139 282.016127,9.40005934 282.23,10.05 C282.473151,10.7508935 282.594899,11.4881442 282.59,12.23 L282.59,12.95 L273.26,12.96 Z M280.89,11.66 C280.921351,10.6938695 280.560678,9.7561196 279.89,9.06 C279.174036,8.36293176 278.197445,7.99988678 277.2,8.06 C276.691565,8.05998192 276.188296,8.16199591 275.72,8.36 C275.256578,8.55118039 274.830156,8.82192457 274.46,9.16 C274.103545,9.49205102 273.808962,9.88482902 273.59,10.32 C273.380828,10.7357952 273.271273,11.1945575 273.27,11.66 L280.89,11.66 Z" id="Shape" fill="#FFFFFF" fill-rule="nonzero"></path>
                <path d="M296.71,18.14 L295.14,18.14 L295.14,16.27 L295.14,16.27 C294.891238,16.6522999 294.580281,16.9902969 294.22,17.27 C293.880892,17.5357197 293.511685,17.7606002 293.12,17.94 C292.741245,18.1193563 292.341443,18.2503837 291.93,18.33 C291.548053,18.4069543 291.159612,18.4471378 290.77,18.45 C289.944791,18.4611062 289.125598,18.308145 288.36,18 C286.933438,17.4466118 285.802551,16.3229741 285.24,14.9 C284.594747,13.385454 284.558925,11.6803092 285.14,10.14 C285.418249,9.43934219 285.836821,8.80297618 286.37,8.27 C286.910902,7.73463831 287.553537,7.31301559 288.26,7.03 C289.027643,6.72999829 289.845871,6.5806123 290.67,6.59 C291.059612,6.59286216 291.448053,6.63304575 291.83,6.71 C292.678515,6.87603106 293.472372,7.25062131 294.14,7.8 C294.500281,8.07970314 294.811238,8.41770009 295.06,8.8 L295.06,8.8 L295.06,0 L296.65,0 L296.71,18.14 Z M286.46,12.52 C286.455314,13.1197768 286.556883,13.7156442 286.76,14.28 C286.947297,14.8015882 287.236207,15.2808384 287.61,15.69 C287.983222,16.0948321 288.436006,16.4182494 288.94,16.64 C289.498878,16.87966 290.101969,16.9989153 290.71,16.99 C291.323946,16.9929064 291.932365,16.8739418 292.5,16.64 C293.031227,16.4198452 293.513781,16.0970099 293.92,15.69 C294.324808,15.2878667 294.644496,14.8083359 294.86,14.28 C295.300167,13.1513989 295.300167,11.8986011 294.86,10.77 C294.644496,10.2416641 294.324808,9.76213326 293.92,9.36 C293.51834,8.93501766 293.035472,8.59496974 292.5,8.36 C291.932365,8.12605816 291.323946,8.00709358 290.71,8.01 C290.101969,8.00108474 289.498878,8.12034002 288.94,8.36 C288.431468,8.59641487 287.978332,8.93711921 287.61,9.36 C287.236207,9.76916159 286.947297,10.2484118 286.76,10.77 C286.557841,11.3311457 286.456284,11.9235614 286.46,12.52 Z" id="Shape" fill="#FFFFFF" fill-rule="nonzero"></path>
                <path d="M475.43,9.6 L312.64,9.6 M161.64,9.6 L0.79,9.6" id="Eyebrow-2" stroke="#FFFFFF" stroke-width="3.29" stroke-linecap="round"></path>
            </g>
        </g>
    </g>
</svg>