<svg id="Civic-Hatchback-2021" xmlns="http://www.w3.org/2000/svg" viewBox="0 0 262 84" role="presentation" aria-hidden="true">
<style type="text/css">
	#Civic-Hatchback-2021 {
 		opacity: 1;
 		stroke: none;
    fill: #fff;
 	}
</style>
<path d="M130.5,49.4c-2.3,2.1-2.6,2.1-5.9,2.1h-2L117.8,29H103l6.4,29h15.7c8.5,0,8.4,0,13.9-5
	c11-9.8,27-24,27-24h-13.2C152.8,29,132,48,130.5,49.4"></path>
<path d="M19.2,30.6C8.4,31.4,4.3,35.2,1.6,41.5c-2.1,4.9-2.1,9.4-0.4,12.4c1.4,2.6,5,4.6,9.5,5.1
	c4,0.4,6.3,0.5,11.8,0.5H38h9.3c2.4,0,2.4,0,3-1.3c0.5-1.1,1.8-4.6,1.8-4.6s-19.6,0-22.2,0c-2.5,0-5.2,0-9-0.4
	c-2.6-0.3-4.2-1.1-5.1-2.7c-1.2-2.1,0-6.1,1-8.1c2.2-4.8,5-5.9,11-6.3C31.4,36,34,36,37.2,36c0,0,13.6,0,15.3,0
	c2.6,0,4.1-1.5,4.8-3.1c0.5-1.1,1.1-2.5,1.1-2.5H30.9C27.2,30.3,22.6,30.4,19.2,30.6"></path>
<path d="M234.3,30.3c-3.7,0-8.3,0.1-11.7,0.3c-10.8,0.8-14.9,4.6-17.6,10.9c-2,4.9-2,9.4-0.4,12.4
	c1.4,2.6,5,4.6,9.5,5.1c4,0.4,6.3,0.5,11.8,0.5l15.6-0.1h9.3c2.4,0,2.4,0,3-1.3c0.5-1.1,1.8-4.6,1.8-4.6s-19.6,0-22.2,0
	c-2.5,0-5.2,0-9-0.4c-2.6-0.3-4.2-1.1-5.1-2.7c-1.2-2.1,0-6.1,1-8.1c2.2-4.8,5-5.9,11-6.3c3.5,0,6.1,0,9.3,0c0,0,13.6,0,15.3,0
	c2.6,0,4.1-1.5,4.8-3.1c0.5-1.1,1.1-2.5,1.1-2.5L234.3,30.3z"></path>
<polygon points="65,58 79.6,58 90,29 75.4,29 "></polygon>
<polygon points="169,58 183.6,58 194,29 179.4,29 "></polygon>
<path d="M86.2,82.1c0.3,0,0.9-0.2,0.9-1v-11c0-0.8-0.6-1-0.9-1s-0.9,0.2-0.9,1v4.5h-6.5v-4.5
	c0-0.8-0.6-1-0.9-1s-0.9,0.2-0.9,1v11c0,0.8,0.6,1,0.9,1s0.9-0.2,0.9-1v-5h6.5v5C85.3,82,85.9,82.1,86.2,82.1z M100.1,82.1
	c0.5,0,0.9-0.3,0.9-0.9c0-0.1,0-0.3-0.1-0.5L96.2,70c-0.4-0.8-0.8-0.9-1.2-0.9s-0.8,0.1-1.2,0.9L89,80.7c0,0.3,0,0.4,0,0.6
	c0,0.5,0.4,0.9,0.9,0.9c0.3,0,0.6-0.1,0.9-0.7l1.1-2.6h6.3l1.1,2.6C99.5,82,99.9,82.1,100.1,82.1z M97.5,77.3h-5l2.5-5.9L97.5,77.3z
	 M106.5,82.1c0.3,0,0.9-0.2,0.9-1V70.8h3.3c0.8,0,0.9-0.5,0.9-0.8s-0.1-0.8-0.9-0.8h-8.5c-0.8,0-0.9,0.5-0.9,0.8
	c0,0.2,0.1,0.8,0.9,0.8h3.3v10.3C105.7,82,106.2,82.1,106.5,82.1z M119.3,82.3c1.9,0,3.3-0.7,4.2-1.6c0.3-0.3,0.3-0.5,0.3-0.8
	c0-0.5-0.4-0.8-0.8-0.8c-0.2,0-0.4,0.1-0.7,0.4c-0.8,0.9-1.9,1.2-3,1.2c-2.9,0-4.8-2.3-4.8-5.1c0-2.8,1.9-5.1,4.8-5.1
	c1.1,0,2.1,0.4,2.6,1c0.3,0.3,0.5,0.4,0.8,0.4c0.5,0,0.8-0.4,0.8-0.8c0-0.2-0.1-0.4-0.4-0.7c-0.9-0.8-2.4-1.3-3.9-1.3
	c-3.9,0-6.8,2.7-6.8,6.7C112.6,79.5,115.4,82.3,119.3,82.3z M135.1,82.1c0.3,0,0.9-0.2,0.9-1v-11c0-0.8-0.6-1-0.9-1
	c-0.3,0-0.9,0.2-0.9,1v4.5h-6.5v-4.5c0-0.8-0.6-1-0.9-1s-0.9,0.2-0.9,1v11c0,0.8,0.6,1,0.9,1s0.9-0.2,0.9-1v-5h6.5v5
	C134.2,82,134.8,82.1,135.1,82.1z M143.3,82c2.7,0,4.8-1.2,4.8-3.6c0-1.8-1.2-2.9-2.8-3.1l0,0c1.3-0.4,2.2-1.4,2.2-2.8
	c0-2.4-2.1-3.2-4-3.2h-3.3c-0.7,0-1.1,0.3-1.1,1.1V81c0,0.7,0.3,1.1,1.1,1.1L143.3,82L143.3,82z M143.2,74.6h-2.3v-3.9h2
	c1.7,0,2.8,0.5,2.8,1.9S144.6,74.6,143.2,74.6z M143.1,80.5h-2.2v-4.3h2.4c1.9,0,3,0.6,3,2.1C146.3,80,144.6,80.5,143.1,80.5z
	 M160.6,82.1c0.5,0,0.9-0.3,0.9-0.9c0-0.1,0-0.3-0.1-0.5L156.7,70c-0.4-0.8-0.8-0.9-1.2-0.9s-0.8,0.1-1.2,0.9l-4.8,10.7
	c-0.1,0.2-0.1,0.4-0.1,0.5c0,0.5,0.4,0.9,0.9,0.9c0.3,0,0.6-0.1,0.9-0.7l1.1-2.6h6.3l1.1,2.6C159.9,82,160.3,82.1,160.6,82.1z
	 M158,77.3h-5l2.5-5.9L158,77.3z M169.5,82.3c1.9,0,3.3-0.7,4.2-1.6c0.3-0.3,0.3-0.5,0.3-0.8c0-0.5-0.4-0.8-0.8-0.8
	c-0.2,0-0.4,0.1-0.7,0.4c-0.8,0.9-1.9,1.2-3,1.2c-2.9,0-4.8-2.3-4.8-5.1c0-2.8,1.9-5.1,4.8-5.1c1.1,0,2.1,0.4,2.6,1
	c0.3,0.3,0.5,0.4,0.8,0.4c0.5,0,0.8-0.4,0.8-0.8c0-0.2-0.1-0.4-0.4-0.7c-0.9-0.8-2.4-1.3-3.9-1.3c-3.9,0-6.8,2.7-6.8,6.7
	C162.8,79.5,165.6,82.3,169.5,82.3z M185.1,82.1c0.6,0,0.9-0.4,0.9-0.9c0-0.2-0.1-0.5-0.4-0.8L180,75l5.2-4.4
	c0.3-0.3,0.4-0.6,0.4-0.8c0-0.4-0.4-0.8-0.8-0.8c-0.2,0-0.5,0.1-0.7,0.3l-6,5.4l0,0v-4.8c0-0.8-0.6-1-0.9-1c-0.3,0-0.9,0.2-0.9,1v11
	c0,0.8,0.6,1,0.9,1c0.3,0,0.9-0.2,0.9-1v-5.7l0,0l6.3,6.4C184.5,82,184.8,82.1,185.1,82.1z"></path>
<path d="M118.8,17c0.7,0,0.9-0.5,0.9-0.8c0-0.3-0.1-0.8-0.9-0.8h-5.5l4.1-4c1.1-1.1,2.1-2.2,2.1-3.9
	c0-2.4-1.9-3.6-4-3.6c-1.8,0-3.2,1-3.8,2.4c-0.1,0.2-0.1,0.4-0.1,0.5c0,0.5,0.4,0.8,0.8,0.8c0.3,0,0.7-0.2,0.9-0.7
	c0.4-1,1.2-1.5,2.2-1.5c1.3,0,2.3,0.9,2.3,2.2c0,1.1-0.6,1.9-1.4,2.7l-4.6,4.7c-0.5,0.4-0.6,0.8-0.6,1.1s0.1,0.9,1.2,0.9H118.8z
	 M126.2,17.3c3,0,4.3-3,4.3-6.7s-1.3-6.7-4.3-6.7s-4.4,3-4.4,6.7C121.8,14.4,123.1,17.3,126.2,17.3z M126.2,15.8
	c-2.1,0-2.6-3.1-2.6-5.2s0.5-5.2,2.6-5.2c2.1,0,2.6,3.1,2.6,5.2C128.7,12.8,128.2,15.8,126.2,15.8z M140.2,17c0.7,0,0.9-0.5,0.9-0.8
	c0-0.3-0.1-0.8-0.9-0.8h-5.5l4.1-4c1.1-1.1,2.1-2.2,2.1-3.9c0-2.4-1.9-3.6-4-3.6c-1.8,0-3.2,1-3.8,2.4C133,6.5,133,6.7,133,6.8
	c0,0.5,0.4,0.8,0.8,0.8c0.3,0,0.7-0.2,0.9-0.7c0.4-1,1.2-1.5,2.2-1.5c1.3,0,2.3,0.9,2.3,2.2c0,1.1-0.6,1.9-1.4,2.7L133,15
	c-0.4,0.4-0.6,0.8-0.6,1.1c0,0.3,0.1,0.9,1.2,0.9H140.2z M148.2,17.1c0.3,0,0.9-0.1,0.9-1v-11c0-1-0.6-1.1-1-1.1
	c-0.3,0-0.5,0.1-0.9,0.4l-2.7,2.2C144.1,7,144,7.2,144,7.4c0,0.5,0.3,0.8,0.8,0.8c0.2,0,0.4-0.1,0.6-0.2l1.9-1.6v9.8
	C147.3,17,147.9,17.1,148.2,17.1z"></path>
<path d="M64.4,76.7H1.3c-0.7,0-1.2-0.5-1.2-1.2s0.5-1.2,1.2-1.2h63.1c0.7,0,1.2,0.5,1.2,1.2S65.1,76.7,64.4,76.7z"></path>
<path d="M261.1,76.7H198c-0.7,0-1.2-0.5-1.2-1.2s0.5-1.2,1.2-1.2h63.1c0.7,0,1.2,0.5,1.2,1.2S261.8,76.7,261.1,76.7z"></path>
<path d="M100,12.7H1c-0.7,0-1.2-0.5-1.2-1.2s0.5-1.2,1.2-1.2h99c0.7,0,1.2,0.5,1.2,1.2S100.7,12.7,100,12.7z"></path>
<path d="M261,12.7h-98c-0.7,0-1.2-0.5-1.2-1.2s0.5-1.2,1.2-1.2h98c0.7,0,1.2,0.5,1.2,1.2S261.7,12.7,261,12.7z"></path>
</svg>