<svg version="1.1" id="civic-sedan-2021" xmlns="http://www.w3.org/2000/svg" viewBox="0 0 361 112" role="presentation" aria-hidden="true">
<style>
	#civic-sedan-2021 {
		fill: #fff;
		stroke: #fff;
	}
</style>
<g>
	<g transform="translate(0.000000, 36.000000)">
		<g>
			<path d="M179.8,28.4c-3.2,2.9-3.6,2.9-8.1,2.9h-2.8l-6.7-30.9h-20.3l8.9,39.9h21.6c11.7,0,11.5-0.1,19.2-6.8
				c15.2-13.5,37.2-33,37.2-33h-18.2C210.5,0.4,181.9,26.5,179.8,28.4"></path>
		</g>
		<g transform="translate(0.000000, 0.375000)">
			<g>
				<path d="M26.5,0.9C11.6,1.9,5.9,7.2,2.2,15.8c-2.9,6.8-2.9,12.9-0.6,17.1c1.9,3.5,6.9,6.4,13.1,7
					c5.5,0.6,8.7,0.7,16.2,0.7l21.4-0.1h12.8c3.3,0,3.2,0,4.1-1.8c0.7-1.6,2.5-6.3,2.5-6.3s-27.1,0-30.5,0c-3.5,0-7.1,0-12.3-0.6
					c-3.6-0.4-5.9-1.6-7-3.7c-1.6-2.9,0.1-8.3,1.3-11.1c3-6.6,6.9-8.2,15.2-8.6c4.9-0.3,8.5-0.3,12.8-0.3c0,0,18.8,0,21.1,0
					c3.6,0,5.6-2,6.6-4.3c0.7-1.6,1.5-3.5,1.5-3.5l-37.9,0C37.5,0.4,31.2,0.5,26.5,0.9"></path>
			</g>
		</g>
		<g transform="translate(279.706107, 0.375000)">
			
			<g>
				<path d="M43.2,0.4c-5.1,0-11.4,0.1-16.1,0.4C12.2,1.9,6.5,7.2,2.8,15.8c-2.9,6.8-2.9,12.9-0.6,17.1
					c1.9,3.5,6.9,6.4,13.1,7c5.5,0.6,8.7,0.7,16.2,0.7L53,40.5h12.8c3.3,0,3.2,0,4.1-1.8c0.7-1.6,2.5-6.3,2.5-6.3s-27.1,0-30.5,0
					c-3.5,0-7.1,0-12.3-0.6c-3.6-0.4-5.9-1.6-7-3.7c-1.6-2.9,0.1-8.3,1.3-11.1c3-6.6,6.9-8.2,15.2-8.6c4.9-0.3,8.5-0.3,12.8-0.3
					c0,0,18.8,0,21.1,0c3.6,0,5.6-2,6.6-4.3c0.7-1.6,1.5-3.5,1.5-3.5L43.2,0.4z"></path>
			</g>
		</g>
		<g>
			<polygon points="89.6,40.2 109.7,40.2 124,0.4 103.8,0.4"></polygon>
		</g>
		<g>
			<polygon points="232.9,40.2 253,40.2 267.3,0.4 247.1,0.4"></polygon>
		</g>
	</g>
	<g>
		<path d="M146.5,110.4c3,0,5.9-1.6,5.9-5.2c0-3.4-2.7-4.2-5-5c-1.9-0.6-3.5-1.1-3.5-3c0-1.9,1.8-2.8,3.3-2.8
			c1,0,1.8,0.3,2.6,1c0.4,0.3,0.7,0.4,0.9,0.4c0.6,0,1.1-0.5,1.1-1.1c0-0.3-0.1-0.6-0.5-1c-1-0.8-2.4-1.3-4-1.3
			c-2.8,0-5.8,1.5-5.8,4.8c0,3.1,2.3,4.1,4.4,4.8c2.2,0.7,4,1.2,4,3.3c0,2-1.8,2.9-3.4,2.9c-1.2,0-2.2-0.4-3.2-1.4
			c-0.3-0.3-0.6-0.4-0.9-0.4c-0.7,0-1.1,0.5-1.1,1.1c0,0.3,0.1,0.7,0.5,1C143.1,109.9,144.8,110.4,146.5,110.4z M166,110
			c1,0,1.2-0.7,1.2-1.1s-0.1-1.1-1.2-1.1h-7.9v-5.7h7.1c1,0,1.2-0.7,1.2-1c0-0.3-0.1-1-1.2-1h-7.1v-5.1h7.5c1,0,1.2-0.7,1.2-1
			c0-0.3-0.1-1.1-1.2-1.1h-8.5c-1,0-1.4,0.5-1.4,1.4v14.2c0,1,0.5,1.4,1.4,1.4H166z M176,110c4.3,0,9.2-2.7,9.2-8.5
			c0-6-4.8-8.5-9.2-8.5h-4.4c-1,0-1.4,0.5-1.4,1.4v14.2c0,1,0.5,1.4,1.4,1.4H176z M175.5,107.9h-3V95.1h3c4.1,0,7.1,2.2,7.1,6.4
			C182.6,105.6,179.6,107.9,175.5,107.9z M201.7,110.2c0.6,0,1.2-0.5,1.2-1.2c0-0.2,0-0.4-0.2-0.7L196.5,94
			c-0.5-1.1-1.1-1.2-1.5-1.2s-1.1,0.1-1.5,1.2l-6.4,14.3c-0.1,0.3-0.2,0.5-0.2,0.7c0,0.7,0.6,1.2,1.2,1.2c0.3,0,0.8-0.1,1.2-0.9
			l1.5-3.5h8.4l1.5,3.5C200.8,110,201.4,110.2,201.7,110.2z M198.2,103.7h-6.6l3.3-7.9L198.2,103.7z M218.4,110.2
			c0.5,0,1.5-0.3,1.5-1.8V94.2c0-1.1-0.8-1.3-1.2-1.3c-0.4,0-1.2,0.2-1.2,1.3v11.9h0l-8.7-12c-0.7-1-1.2-1.2-1.8-1.2
			c-0.5,0-1.5,0.3-1.5,1.8v14.3c0,1.1,0.8,1.3,1.2,1.3c0.4,0,1.2-0.2,1.2-1.3v-12h0l8.7,12.1C217.3,110,217.8,110.2,218.4,110.2z"></path>
	</g>
	<g>
		<path d="M164,21c1,0,1.2-0.7,1.2-1.1s-0.2-1-1.2-1h-7.3l5.4-5.4c1.5-1.5,2.7-3,2.7-5.1c0-3.2-2.5-4.8-5.4-4.8
			c-2.4,0-4.3,1.3-5.1,3.1c-0.1,0.2-0.2,0.5-0.2,0.7c0,0.7,0.5,1.1,1.1,1.1c0.5,0,0.9-0.3,1.2-0.9c0.6-1.3,1.6-2.1,3-2.1
			c1.7,0,3,1.2,3,2.9c0,1.4-0.8,2.5-1.9,3.6l-6.2,6.3c-0.6,0.6-0.8,1-0.8,1.4c0,0.4,0.2,1.2,1.6,1.2H164z M173.9,21.4
			c4,0,5.8-4,5.8-8.9c0-4.9-1.8-8.9-5.8-8.9c-4.1,0-5.8,4-5.8,8.9C168.1,17.5,169.8,21.4,173.9,21.4z M173.9,19.5
			c-2.8,0-3.4-4.1-3.4-7c0-2.9,0.6-7,3.4-7c2.8,0,3.4,4.1,3.4,7C177.3,15.4,176.6,19.5,173.9,19.5z M192.6,21c1,0,1.2-0.7,1.2-1.1
			s-0.2-1-1.2-1h-7.3l5.4-5.4c1.5-1.5,2.7-3,2.7-5.1c0-3.2-2.5-4.8-5.4-4.8c-2.4,0-4.3,1.3-5.1,3.1c-0.1,0.2-0.2,0.5-0.2,0.7
			c0,0.7,0.5,1.1,1.1,1.1c0.5,0,0.9-0.3,1.2-0.9c0.6-1.3,1.6-2.1,3-2.1c1.7,0,3,1.2,3,2.9c0,1.4-0.8,2.5-1.9,3.6l-6.2,6.3
			c-0.6,0.6-0.8,1-0.8,1.4c0,0.4,0.2,1.2,1.6,1.2H192.6z M203.2,21.2c0.4,0,1.2-0.2,1.2-1.3V5.3c0-1.3-0.9-1.5-1.3-1.5
			c-0.3,0-0.7,0.1-1.2,0.6l-3.6,2.9c-0.4,0.3-0.5,0.7-0.5,0.9c0,0.6,0.5,1,1,1c0.2,0,0.5-0.1,0.8-0.3l2.5-2.1v13.1
			C202,21,202.8,21.2,203.2,21.2z"></path>
	</g>
	<g transform="translate(1.500000, 101.000000)">
		<g>
			<path d="M127.2,2.1H0c-0.9,0-1.6-0.7-1.6-1.6S-0.9-1.1,0-1.1h127.2c0.9,0,1.6,0.7,1.6,1.6S128.1,2.1,127.2,2.1z"></path>
		</g>
		<g>
			<path d="M357.7,2.1H230.5c-0.9,0-1.6-0.7-1.6-1.6s0.7-1.6,1.6-1.6h127.2c0.9,0,1.6,0.7,1.6,1.6S358.6,2.1,357.7,2.1z"></path>
		</g>
	</g>
	<g transform="translate(1.500000, 14.000000)">
		<g>
			<path d="M140.4,2.1H0c-0.9,0-1.6-0.7-1.6-1.6S-0.9-1.1,0-1.1h140.4c0.9,0,1.6,0.7,1.6,1.6S141.3,2.1,140.4,2.1z"></path>
		</g>
		<g>
			<path d="M357.5,2.1h-139c-0.9,0-1.6-0.7-1.6-1.6s0.7-1.6,1.6-1.6h139c0.9,0,1.6,0.7,1.6,1.6S358.4,2.1,357.5,2.1z"></path>
		</g>
	</g>
</g>
</svg>