<svg id="Insight-2020" xmlns="http://www.w3.org/2000/svg" viewBox="0 0 304 72" role="presentation" aria-hidden="true">
<style type="text/css">
	#Insight-2020 {
		fill: #fff;
	}
</style>
<path d="M261.4,59.9h13.8c0.4-1.2,7.6-21,7.7-21.2c0.1-0.4,0.4-1.2,0.6-1.5c1.1-2.5,1.7-2.9,4.2-3.1
	c0.5,0,0.9,0,1.3,0c1.3,0,5.7,0,6.9,0c0.9,0,1.2,0,2.1,0c2.6-0.1,3.1-0.5,4.3-2.5c0.3-0.5,0.9-1.8,1.3-2.6h-0.1h-47.5
	c-0.6,1.7-1.2,3.4-1.9,5.1h16.7C267.7,42.6,264.5,51.3,261.4,59.9"></path>
<path d="M238,28.9c-1.5,4-2.9,8.1-4.4,12.1h-17.7c1.5-4,2.9-8.1,4.4-12.1h-13.1c-3.8,10.3-7.5,20.7-11.3,31
	h13c0.3-0.7,3-7.9,3.2-8.6c0.2-0.4,0.5-1.2,0.6-1.5c1.1-2.4,1.7-2.9,4.2-3.1c0.5,0,0.9,0,1.3,0h13.2c-1.6,4.4-3.2,8.8-4.8,13.2h13.1
	c3.8-10.3,7.5-20.7,11.3-31H238"></path>
<path d="M179.8,34c1.4,0,10.4,0,11.9,0c1,0,1.2,0,2.4,0c2.6-0.1,3.1-0.4,4.2-2.4c0.2-0.4,0.6-1.1,0.9-1.8
	c0.2-0.4,0.3-0.7,0.4-1h-20.8c-1.4,0-2.7,0-2.9,0c-1.2,0-2.8,0-4.4,0.1c-3.2,0.1-6.4,0.3-9,0.9c-4.8,1-7,2.8-9.4,7.1
	c-1.1,2-2.3,4.4-3.1,6.9c-0.9,2.5-1.5,4.5-1.9,6.8c-0.7,4.2,0.8,6.9,4.4,8.1c3.8,1.3,8.6,1.7,14.4,1.7c2.9,0,5.9-0.1,7.3-0.2
	c13-1,14.3-2.2,17.1-9c1.1-2.7,2.6-7.2,3.8-10.3h-21.7c-0.6,1.7-1.2,3.4-1.8,5.1h9.9c-0.5,1.5-1.1,3-1.6,4.5
	c-1.2,2.9-1.6,3.7-7.3,4.1c-1,0.1-1.7,0.1-3.6,0.1c-2,0-3.7,0-5.5-0.5c-2.6-0.6-2.8-1.7-2.3-4.6c0.7-3.4,2.6-8.7,4.5-11.7
	c1.2-1.9,2.2-3.1,4.4-3.5c2.1-0.4,4.3-0.5,6.8-0.5C177.9,34,178.9,34,179.8,34"></path>
<path d="M24.4,28.9H11.3C7.5,39.2,3.8,49.5,0,59.9h13.1C16.9,49.5,20.6,39.2,24.4,28.9"></path>
<path d="M100.7,33.8c-0.8,0-1.7,0-2.5,0.2c-1,0.2-2.4,1.2-2.7,2.3c-0.2,0.7,0.2,1.3,2.2,1.8
	c4.9,1.2,9.7,2.5,14.6,3.7c0,0,1.7,0.5,3,0.9c1.3,0.4,4,1.4,4.4,3.9c0.2,1,0,2.2-0.6,3.6c-1.8,4.2-5.1,7.2-8.7,8.5
	c-1.8,0.6-5.2,1.1-7.7,1.2c-6.8,0-25.5,0.1-29.9,0c0.7-1.3,1.5-2.6,2.2-3.9c0.7-1.2,1-1.4,2.6-1.4c0.4,0,0.7,0,1.1,0
	c6.3,0,12.6,0,18.9,0c0.6,0,1.3,0,3.1-0.3c1.4-0.2,2.8-1.2,3.3-2.4c0.5-1.2,0.1-1.7-1.5-2.2c-1.2-0.4-2.5-0.7-3.7-1.1
	c-2.3-0.6-9.8-2.7-12.9-3.7c-2.7-0.8-4.8-2.1-5.2-4.1c-0.2-0.9,0-2.1,0.6-3.4c0.8-1.9,3.2-5.9,8.5-7.6c2.5-0.9,6.5-1,8.1-1
	c9.7,0,19.4,0,29.1,0c-0.3,0.8-0.7,1.4-1.1,2.1c-0.3,0.5-0.5,0.8-0.7,1.2c-0.6,0.9-1.3,1.3-2.6,1.5c-0.4,0.1-1.3,0.1-2,0.1
	C118.2,33.8,103.3,33.8,100.7,33.8"></path>
<path d="M68,28.9c-2.4,6.6-4.8,13.2-7.2,19.8c-2.9-4.5-5.8-8.9-8.8-13.4c-0.5-0.7-1.5-2.3-1.9-2.8
	c-1.7-2.4-2.5-3.6-7.1-3.6h-0.5h-9.2c-3.8,10.3-7.5,20.7-11.3,31h9.2c2.6-7.1,5.2-14.2,7.8-21.3h0.2c1.1,0,1.3,0.2,1.8,0.9
	c0.3,0.4,1.3,1.9,1.5,2.2c4,6.1,8.1,12.2,12.1,18.2h11.4c3.8-10.3,7.5-20.7,11.3-31H68"></path>
<path d="M147.7,28.9h-13.1c-3.8,10.3-7.5,20.7-11.3,31h13.1C140.2,49.5,144,39.2,147.7,28.9"></path>
<path d="M140.8,17c0.7,0,0.9-0.5,0.9-0.8c0-0.3-0.1-0.8-0.9-0.8h-5.5l4.1-4c1.1-1.1,2.1-2.2,2.1-3.9c0-2.4-1.9-3.6-4-3.6
	c-1.8,0-3.2,1-3.8,2.4c-0.1,0.2-0.1,0.4-0.1,0.5c0,0.5,0.4,0.8,0.8,0.8c0.3,0,0.7-0.2,0.9-0.7c0.4-1,1.2-1.5,2.2-1.5
	c1.3,0,2.3,0.9,2.3,2.2c0,1.1-0.6,1.9-1.4,2.7l-4.6,4.7c-0.4,0.4-0.6,0.8-0.6,1.1c0,0.3,0.1,0.9,1.2,0.9H140.8z M148.2,17.3
	c3,0,4.3-3,4.3-6.7c0-3.7-1.3-6.7-4.3-6.7c-3,0-4.4,3-4.4,6.7C143.8,14.4,145.1,17.3,148.2,17.3z M148.2,15.8
	c-2.1,0-2.6-3.1-2.6-5.2c0-2.1,0.5-5.2,2.6-5.2c2.1,0,2.6,3.1,2.6,5.2C150.7,12.8,150.2,15.8,148.2,15.8z M162.2,17
	c0.7,0,0.9-0.5,0.9-0.8c0-0.3-0.1-0.8-0.9-0.8h-5.5l4.1-4c1.1-1.1,2.1-2.2,2.1-3.9c0-2.4-1.9-3.6-4-3.6c-1.8,0-3.2,1-3.8,2.4
	c-0.1,0.2-0.1,0.4-0.1,0.5c0,0.5,0.4,0.8,0.8,0.8c0.3,0,0.7-0.2,0.9-0.7c0.4-1,1.2-1.5,2.2-1.5c1.3,0,2.3,0.9,2.3,2.2
	c0,1.1-0.6,1.9-1.4,2.7L155,15c-0.4,0.4-0.6,0.8-0.6,1.1c0,0.3,0.1,0.9,1.2,0.9H162.2z M170.2,17.1c0.3,0,0.9-0.1,0.9-1v-11
	c0-1-0.6-1.1-1-1.1c-0.3,0-0.5,0.1-0.9,0.4l-2.7,2.2C166.1,7,166,7.2,166,7.4c0,0.5,0.3,0.8,0.8,0.8c0.2,0,0.4-0.1,0.6-0.2l1.9-1.6
	v9.8C169.3,17,169.9,17.1,170.2,17.1z"></path>
<path d="M303.5,12.7h-119c-0.7,0-1.2-0.5-1.2-1.2s0.5-1.2,1.2-1.2h119c0.7,0,1.2,0.5,1.2,1.2S304.2,12.7,303.5,12.7z M120.5,12.7
	H1.5c-0.7,0-1.2-0.5-1.2-1.2s0.5-1.2,1.2-1.2h119c0.7,0,1.2,0.5,1.2,1.2S121.2,12.7,120.5,12.7z"></path>
</svg>