<svg id="PHEV-2021" xmlns="http://www.w3.org/2000/svg" viewBox="0 0 351 94" role="presentation" aria-hidden="true">
<style type="text/css">
	#PHEV-2021 {
		fill: #fff;
	}
</style>
<title>Clarity-Plug-In-Hybrid 2021</title>
<polygon points="226.4,30 215.1,61.3 228,61.3 239.4,30 "></polygon>
<path d="M251.8,61.8c2.7-7.5,9.2-25.3,9.7-26.8h-16.9c0.3-0.9,1.7-4.7,1.7-4.7h46.7
	c-0.8,1.4-1.4,3.3-2.9,4.1c-1.1,0.7-3.5,0.6-4.9,0.5c-1.7,0-10,0-10,0l-9.7,26.8H251.8z"></path>
<path d="M70,61.8c-2.3,0-4.6,0-6.9,0c-2.2,0-4.4-0.1-6.5-0.8c-1.7-0.6-3.5-1.5-3.8-3.4
	c-0.3-1.8,0.3-3.6,0.9-5.3c2.6-7.3,8-22,8-22s10.8,0,13,0c-1.6,4.3-3.2,8.7-4.8,13c-0.9,2.4-1.7,4.8-2.6,7.2
	c-0.7,2.1-1.3,3.8-1.3,4.6c0,1.4,1.8,1.5,4,1.6c1.4,0,2.8,0,4.2,0c1.6,0,3.3,0,4.9,0c5.3,0,10.7,0,16,0c-1.3,1.3-2.7,2.6-4,3.9
	c-0.5,0.5-1.1,1.2-1.8,1.2c-0.6,0-1.2,0-1.8,0C81.6,61.8,75.8,61.8,70,61.8"></path>
<path d="M30.5,61.8c-4,0-8,0-12-0.1c-4.2-0.1-8.6,0-12.5-1.7c-2-0.9-3.7-2-4.4-4.1c-0.8-2.1-0.5-4.6,0-6.8
	C2,46.7,3,44.3,3.9,42c0.8-2,1.9-3.9,3.2-5.5c1.2-1.5,2.7-2.9,4.4-3.8c1.9-1,4.1-1.4,6.2-1.7c4.1-0.6,8.2-0.6,12.4-0.7
	c6.9-0.1,13.8-0.1,20.7,0h0.3C50.6,31.6,50.1,33,49,34c-1.5,1.2-3.7,1-5.5,1c-3.8,0-7.5,0-11.3,0c-4.1,0-9.3-0.3-12.3,3.1
	c-1.4,1.6-2.5,3.4-3.4,5.3c-1,2.2-1.9,4.4-2.4,6.7c-0.3,1.7-0.5,3.8,1.1,4.9c1.3,1,3,1.2,4.6,1.3c2.1,0.2,6.2,0.2,13.3,0.2
	c4,0,8,0,12.1,0h0c-0.4,1.2-0.9,2.4-1.3,3.5c-0.4,0.9-0.9,1.5-1.8,1.6c-0.6,0.1-1.2,0.1-1.8,0.1C36.9,61.8,33.7,61.8,30.5,61.8"></path>
<path d="M95.5,61.8c6.8-6.9,13.5-13.9,20.4-20.7c2.7-2.7,5.3-5.5,8.2-7.9c1.6-1.4,3.4-2.2,5.5-2.6
	c1.4-0.2,3.3-0.3,5.9-0.3c2.6,0,12.1,0,12.1,0s2.1,24.3,2.7,31.5h-12.3l-0.6-8.1h-22.6l-8,8.1C106.9,61.8,98.5,61.8,95.5,61.8
	L95.5,61.8z M137,48.4l-0.8-12.8c0,0-0.1,0-0.5,0c-1.6,0-3-0.1-4.3,1.1c-3.7,3.4-11.2,11.5-11.5,11.8H137z"></path>
<path d="M197.7,61.8c-1.5,0-2.7-0.3-3.9-1.3c-1.1-1-2.2-2.2-3.2-3.3c-1.8-1.9-3.6-3.9-5.3-5.9
	c-2.3-2.5-4.6-5-6.8-7.6c3.3,0,6.6,0.1,9.8-0.1c2.1-0.1,4.4-0.4,6.3-1.5c1.6-1,2.7-2.9,3-4.8c0.3-2.4-2.3-2.2-3.9-2.2
	c-2,0-4,0-5.9,0c-2.3,0-4.6,0-6.9,0c-0.8,0-0.9-0.1-1,0.3c-2.9,8-5.8,16-8.7,23.9c-0.3,0.8-0.9,2.5-0.9,2.5s-9.6,0-13.1,0
	c2.7-7.3,11.4-31.5,11.4-31.5s4,0,5.6,0c5.3,0,10.6,0,15.9,0c3.7,0,7.5,0,11.2,0.1c2.6,0.1,6.2,0.1,8.1,2.2c1.3,1.5,1.1,3.7,0.6,5.4
	c-0.5,2.1-1.5,4-3,5.6c-2.9,3-6.7,4.4-10.7,5.2c4.1,4.3,8.1,8.6,12.2,13C204.9,61.8,201.3,61.8,197.7,61.8"></path>
<path d="M305.1,61.8c1.3-3.7,2.7-7.3,4-11c0.2-0.5,0.2-0.6,0.2-0.7c-0.2-0.4-0.5-0.8-0.7-1.2
	c-1.1-1.7-8.9-14.2-11.7-18.6h13.8c0,0,6.7,11.2,8.3,13.7c5.7-4.1,11.5-8.1,17.2-12.1c1.4-1,2.6-1.6,4.3-1.6c1.7-0.1,8.6,0,10.4,0
	c-6.3,4.5-24.9,17.6-27.9,19.8c-0.7,0.5-0.7,0.7-1,1.5c-0.8,2.3-3.7,10.3-3.7,10.3H305.1z"></path>
<path d="M256.5,84.7c-0.7,0-1.2-0.5-1.2-1.2c0-0.7,0.5-1.2,1.2-1.2l93.2-0.1h0c0.7,0,1.2,0.5,1.2,1.2c0,0.7-0.5,1.2-1.2,1.2
	L256.5,84.7L256.5,84.7z M95.5,84.7C95.5,84.7,95.5,84.7,95.5,84.7L1.2,84.6c-0.7,0-1.2-0.5-1.2-1.2c0-0.7,0.5-1.2,1.2-1.2
	c0,0,0,0,0,0l94.3,0.1c0.7,0,1.2,0.5,1.2,1.2C96.7,84.2,96.2,84.7,95.5,84.7z"></path>
<path d="M107.8,89.1c0.3,0,0.9-0.2,0.9-1v-4.7h2c2.6,0,4.6-1,4.6-3.6c0-2.5-1.8-3.5-4.6-3.5H108
	c-0.7,0-1.1,0.3-1.1,1.1v10.8C106.9,89,107.5,89.1,107.8,89.1z M110.6,81.9h-1.9v-4.1h1.9c1.7,0,2.9,0.5,2.9,2
	C113.6,81.3,112.3,81.9,110.6,81.9z M124.4,89c0.8,0,0.9-0.5,0.9-0.8s-0.1-0.8-0.9-0.8h-5V77.1c0-0.8-0.6-1-0.9-1
	c-0.3,0-0.9,0.2-0.9,1v10.8c0,0.7,0.3,1.1,1.1,1.1H124.4z M131.7,89.3c3.4,0,4.9-2.4,4.9-5v-7.2c0-0.8-0.6-1-0.9-1
	c-0.3,0-0.9,0.2-0.9,1v7.1c0,1.7-0.8,3.5-3.2,3.5c-2.4,0-3.2-1.8-3.2-3.5v-7.1c0-0.8-0.6-1-0.9-1c-0.3,0-0.9,0.2-0.9,1v7.2
	C126.7,86.9,128.3,89.3,131.7,89.3z M145.8,89.3c1.4,0,2.7-0.3,3.9-0.7c0.6-0.3,0.9-0.5,0.9-1.2v-4.4c0-0.7-0.3-1-1-1h-2.8
	c-0.7,0-0.8,0.5-0.8,0.7c0,0.3,0.1,0.8,0.8,0.8h2.1v3.5c-0.7,0.4-1.8,0.6-3,0.6c-3,0-4.9-2.3-4.9-5.1c0-2.8,1.9-5.1,4.9-5.1
	c1.2,0,2.2,0.4,2.9,0.9c0.3,0.2,0.5,0.3,0.7,0.3c0.5,0,0.8-0.4,0.8-0.8c0-0.2-0.1-0.5-0.4-0.7c-1-0.7-2.3-1.2-4-1.2
	c-3.9,0-6.8,2.7-6.8,6.7C139,86.5,141.8,89.3,145.8,89.3z M156.4,85.3c0.7,0,0.8-0.5,0.8-0.7c0-0.2-0.1-0.7-0.8-0.7h-2.8
	c-0.7,0-0.8,0.5-0.8,0.7c0,0.3,0.1,0.7,0.8,0.7H156.4z M160.3,89.1c0.3,0,0.9-0.2,0.9-1v-11c0-0.8-0.6-1-0.9-1c-0.3,0-0.9,0.2-0.9,1
	v11C159.4,89,160,89.1,160.3,89.1z M173.9,89.1c0.4,0,1.1-0.2,1.1-1.3V77.1c0-0.8-0.6-1-0.9-1c-0.3,0-0.9,0.2-0.9,1v8.9h0l-6.5-9
	c-0.5-0.8-0.9-0.9-1.3-0.9c-0.4,0-1.1,0.2-1.1,1.3v10.7c0,0.8,0.6,1,0.9,1c0.3,0,0.9-0.2,0.9-1v-9h0l6.5,9.1
	C173.1,89,173.5,89.1,173.9,89.1z M191.8,89.1c0.3,0,0.9-0.2,0.9-1v-11c0-0.8-0.6-1-0.9-1c-0.3,0-0.9,0.2-0.9,1v4.5h-6.5v-4.5
	c0-0.8-0.6-1-0.9-1c-0.3,0-0.9,0.2-0.9,1v11c0,0.8,0.6,1,0.9,1c0.3,0,0.9-0.2,0.9-1v-5h6.5v5C190.9,89,191.5,89.1,191.8,89.1z
	 M199.8,89.1c0.3,0,0.9-0.2,0.9-1v-4.6l4.2-5.9c0.2-0.3,0.2-0.5,0.2-0.6c0-0.5-0.4-0.8-0.8-0.8c-0.2,0-0.5,0.1-0.8,0.5l-3.7,5.4
	l-3.6-5.3c-0.3-0.5-0.6-0.6-0.9-0.6c-0.5,0-0.9,0.4-0.9,0.9c0,0.1,0,0.4,0.3,0.7l4.2,5.8v4.6C198.9,89,199.5,89.1,199.8,89.1z
	 M211.2,89c2.7,0,4.8-1.2,4.8-3.6c0-1.8-1.2-2.9-2.8-3.1v0c1.3-0.4,2.2-1.4,2.2-2.8c0-2.4-2.1-3.2-4-3.2h-3.3
	c-0.7,0-1.1,0.3-1.1,1.1v10.6c0,0.7,0.3,1.1,1.1,1.1H211.2z M211.1,81.6h-2.3v-3.9h2c1.7,0,2.8,0.5,2.8,1.9
	C213.6,81,212.5,81.6,211.1,81.6z M211,87.5h-2.2v-4.3h2.4c1.9,0,3,0.6,3,2.1C214.2,87,212.5,87.5,211,87.5z M226.4,89.1
	c0.5,0,0.9-0.4,0.9-0.9c0-0.2,0-0.4-0.2-0.6l-3-4.5c1.8-0.3,3.1-1.5,3.1-3.4c0-2.6-2.1-3.5-4.5-3.5h-3c-0.7,0-1.1,0.3-1.1,1.1v10.8
	c0,0.8,0.6,1,0.9,1c0.3,0,0.9-0.2,0.9-1v-4.8h1.9l3.3,5.3C225.8,89,226.1,89.1,226.4,89.1z M222.4,81.8h-2.1v-4.1h2.2
	c1.5,0,2.9,0.5,2.9,2C225.4,81.3,224.1,81.8,222.4,81.8z M230.5,89.1c0.3,0,0.9-0.2,0.9-1v-11c0-0.8-0.6-1-0.9-1
	c-0.3,0-0.9,0.2-0.9,1v11C229.6,89,230.2,89.1,230.5,89.1z M238.9,89c3.3,0,6.9-2,6.9-6.4c0-4.5-3.6-6.4-6.9-6.4h-3.3
	c-0.7,0-1.1,0.3-1.1,1.1v10.6c0,0.7,0.3,1.1,1.1,1.1H238.9z M238.5,87.4h-2.2v-9.6h2.2c3.1,0,5.3,1.7,5.3,4.8
	C243.8,85.7,241.6,87.4,238.5,87.4z"></path>
<path d="M349,12.7H208.5c-0.7,0-1.2-0.5-1.2-1.2s0.5-1.2,1.2-1.2H349c0.7,0,1.2,0.5,1.2,1.2S349.7,12.7,349,12.7z M144.5,12.7H1
	c-0.7,0-1.2-0.5-1.2-1.2s0.5-1.2,1.2-1.2h143.5c0.7,0,1.2,0.5,1.2,1.2S145.2,12.7,144.5,12.7z"></path>
<path d="M163.8,17c0.7,0,0.9-0.5,0.9-0.8c0-0.3-0.1-0.8-0.9-0.8h-5.5l4.1-4c1.1-1.1,2.1-2.2,2.1-3.9
	c0-2.4-1.9-3.6-4-3.6c-1.8,0-3.2,1-3.8,2.4c-0.1,0.2-0.1,0.4-0.1,0.5c0,0.5,0.4,0.8,0.8,0.8c0.3,0,0.7-0.2,0.9-0.7
	c0.4-1,1.2-1.5,2.2-1.5c1.3,0,2.3,0.9,2.3,2.2c0,1.1-0.6,1.9-1.4,2.7l-4.6,4.7c-0.4,0.4-0.6,0.8-0.6,1.1c0,0.3,0.1,0.9,1.2,0.9
	H163.8z M171.2,17.3c3,0,4.3-3,4.3-6.7c0-3.7-1.3-6.7-4.3-6.7c-3,0-4.4,3-4.4,6.7C166.8,14.4,168.1,17.3,171.2,17.3z M171.2,15.8
	c-2.1,0-2.6-3.1-2.6-5.2c0-2.1,0.5-5.2,2.6-5.2c2.1,0,2.6,3.1,2.6,5.2C173.7,12.8,173.2,15.8,171.2,15.8z M185.2,17
	c0.7,0,0.9-0.5,0.9-0.8c0-0.3-0.1-0.8-0.9-0.8h-5.5l4.1-4c1.1-1.1,2.1-2.2,2.1-3.9c0-2.4-1.9-3.6-4-3.6c-1.8,0-3.2,1-3.8,2.4
	c-0.1,0.2-0.1,0.4-0.1,0.5c0,0.5,0.4,0.8,0.8,0.8c0.3,0,0.7-0.2,0.9-0.7c0.4-1,1.2-1.5,2.2-1.5c1.3,0,2.3,0.9,2.3,2.2
	c0,1.1-0.6,1.9-1.4,2.7L178,15c-0.4,0.4-0.6,0.8-0.6,1.1c0,0.3,0.1,0.9,1.2,0.9H185.2z M193.2,17.1c0.3,0,0.9-0.1,0.9-1v-11
	c0-1-0.6-1.1-1-1.1c-0.3,0-0.5,0.1-0.9,0.4l-2.7,2.2C189.1,7,189,7.2,189,7.4c0,0.5,0.3,0.8,0.8,0.8c0.2,0,0.4-0.1,0.6-0.2l1.9-1.6
	v9.8C192.3,17,192.9,17.1,193.2,17.1z"></path>
</svg>