<svg id="Pilot-Badge-2021" xmlns="http://www.w3.org/2000/svg" viewBox="0 0 262 73" role="presentation" aria-hidden="true">
<style type="text/css">
	#Pilot-Badge-2021 {
		fill: #ffffff;
	}
</style>
<path d="M217.4,58.5c1.5-4.1,7.1-19.7,7.4-20.5l0.2-0.5c0.4-1.2,0.8-2.3,0.2-3.1c-0.4-0.5-1.2-0.7-2.7-0.7
	c-1.3,0-4.9,0-7.5-0.1c-2,0-8.5,0-11,0l1.5-4.2h56.5c-0.3,0.7-0.5,1.3-0.6,1.4c-0.1,0.1-0.1,0.2-0.2,0.4c-0.3,0.6-0.7,1.4-1.3,1.8
	c-0.5,0.3-1.1,0.3-2,0.4c-0.2,0-0.5,0-0.7,0.1c-0.7,0.1-1.4,0.1-2.4,0.1h-0.8c-1.7,0-4.6,0-5.5,0c-1,0-3.4,0-5.1,0.3
	c-2.8,0.4-4.1,1-5.4,3c-0.8,1.1-1.6,2.8-2.5,5.5c-1.4,3.9-5,13.9-5.8,16.2C229.6,58.5,217.4,58.5,217.4,58.5z"></path>
<path d="M165.3,59.1c-3.9,0-7.5-0.1-9.4-0.2c-7.3-0.4-11.6-1.7-13.3-3.9c-1-1.4-1.2-3.2-0.5-5.8
	c0.9-3.8,2.3-7.8,3.7-10.6c3.5-7.1,8-9.1,20.8-9.4c1.2,0,3.1,0,5.4,0c4.3,0,9.1,0,11.9,0.1c7.3,0.2,11.3,1.3,13,3.5
	c1,1.3,1.3,3.2,0.7,5.7c-0.7,3-2.5,8.4-4.2,11.8c-2.3,4.5-5.5,8.3-20.3,8.8C171.1,59.1,168.4,59.1,165.3,59.1 M171.9,33.3
	c-1,0-1.9,0-2.5,0c-7,0.2-9.9,1.5-12,5.5c-1.2,2.2-2.7,6.7-3.3,9.3c-0.4,1.8-0.5,3.2,0.3,4.3c1,1.3,3.1,1.8,7.8,2.1
	c1,0,2.7,0.1,4.5,0.1c1.4,0,2.8,0,3.8,0c7.2-0.3,9.9-1.4,11.9-5.1c1.6-3,3.1-7.4,3.8-10c0.4-1.6,0.2-2.9-0.5-3.8
	c-1.1-1.5-3.5-2.1-8.1-2.2C175.9,33.3,173.8,33.3,171.9,33.3"></path>
<path d="M103.6,58.6c-10.6,0-14-1.2-14-4.8c0-0.6,0.1-1.3,0.3-2.3c0.2-0.8,6.2-17.5,8-22.1h12.1l-6.2,17.2
	c-0.7,1.8-1.1,3.3-1.1,4.3c0,0.7,0.2,1.3,0.6,1.7c1,1,3,1.3,8,1.3h24.8c-0.4,1.2-1.1,3-1.5,3.7l0,0.1c-0.4,0.8-0.4,0.8-2.2,0.8
	l-5.7,0.1H103.6z"></path>
<polygon points="60.9,58.5 71.4,29.4 83.6,29.4 73.1,58.5 "></polygon>
<path d="M0.1,58.5l10.6-29.1h29.9c3.8,0,6.5,0.1,9.5,0.4c2.7,0.2,4.8,1.2,6.1,2.8c1,1.3,1.4,3,1,4.9
	c-0.1,0.8-0.4,1.9-0.9,3c-2.1,4.2-5.4,6.1-11.6,6.5c-0.5,0-1.2,0-2.2,0.1h-0.5l0,0c-0.3,0-0.9,0-1.9,0c-2.1,0-5.2,0-8.3,0l-1.2,0
	c-1.7,0-2.4-0.2-3.5-1c-1.5-1.2-2.7-2.2-3.7-3.2c4.6,0,12.2,0,12.3,0c1.6,0,3.4-0.1,4.3-0.1c2.8-0.1,4.8-1.1,5.9-3
	c0.5-0.7,0.6-1,0.7-1.6c0.3-1.1,0.3-2-0.2-2.6c-0.5-0.7-1.4-1.1-2.7-1.3c-0.9-0.1-2.9-0.1-5.8-0.1l-16.6,0l-8.9,24.5
	C12.3,58.5,0.1,58.5,0.1,58.5z"></path>
<path d="M261,12.7h-98c-0.7,0-1.2-0.5-1.2-1.2s0.5-1.2,1.2-1.2h98c0.7,0,1.2,0.5,1.2,1.2S261.7,12.7,261,12.7z"></path>
<path d="M111.6,6.3c-0.1,0.2-0.1,0.4-0.1,0.5c0,0.5,0.4,0.8,0.8,0.8c0.3,0,0.7-0.2,0.9-0.7c0.4-1,1.2-1.5,2.2-1.5
	c1.3,0,2.3,0.9,2.3,2.2c0,1.1-0.6,1.9-1.4,2.7l-4.6,4.7c-0.4,0.4-0.6,0.8-0.6,1.1c0,0.3,0.1,0.9,1.2,0.9h6.6c0.7,0,0.9-0.5,0.9-0.8
	s-0.1-0.8-0.9-0.8h-5.5l4.1-4c1.1-1.1,2.1-2.2,2.1-3.8c0-2.4-1.9-3.6-4-3.6C113.6,3.9,112.2,4.9,111.6,6.3z M130.5,10.6
	c0-3.7-1.3-6.7-4.3-6.7c-3,0-4.4,3-4.4,6.7c0,3.7,1.3,6.7,4.4,6.7C129.2,17.3,130.5,14.4,130.5,10.6z M128.7,10.6V11
	c-0.1,2.1-0.6,4.8-2.6,4.8c-2.1,0-2.6-3.1-2.6-5.2v-0.4c0.1-2.1,0.6-4.9,2.6-4.9C128.2,5.4,128.7,8.5,128.7,10.6z M133,6.3
	c-0.1,0.2-0.1,0.4-0.1,0.5c0,0.5,0.4,0.8,0.8,0.8c0.3,0,0.7-0.2,0.9-0.7c0.4-1,1.2-1.5,2.2-1.5c1.3,0,2.3,0.9,2.3,2.2
	c0,1.1-0.6,1.9-1.4,2.7L133,15c-0.4,0.4-0.6,0.8-0.6,1.1c0,0.3,0.1,0.9,1.2,0.9h6.6c0.7,0,0.9-0.5,0.9-0.8s-0.1-0.8-0.9-0.8h-5.5
	l4.1-4c1.1-1.1,2.1-2.2,2.1-3.8c0-2.4-1.9-3.6-4-3.6C135,3.9,133.6,4.9,133,6.3z M147.3,16.2V6.4L145.4,8c-0.2,0.2-0.4,0.2-0.6,0.2
	c-0.4,0-0.8-0.3-0.8-0.8c0-0.2,0.1-0.5,0.4-0.7l2.7-2.2c0.4-0.3,0.7-0.4,0.9-0.4c0.3,0,1,0.1,1,1.1v11c0,0.8-0.6,1-0.9,1
	S147.3,17,147.3,16.2z"></path>
<path d="M100,12.7H1c-0.7,0-1.2-0.5-1.2-1.2s0.5-1.2,1.2-1.2h99c0.7,0,1.2,0.5,1.2,1.2S100.7,12.7,100,12.7z"></path>
</svg>