<svg id="hrv-2021-white" xmlns="http://www.w3.org/2000/svg" viewBox="0 0 246 69" role="presentation" aria-hidden="true">
<style type="text/css">
	#hrv-2021-white {fill: #fff;}
</style>
<path d="M110.8,17c0.7,0,0.9-0.5,0.9-0.8c0-0.3-0.1-0.8-0.9-0.8h-5.5l4.1-4c1.1-1.1,2.1-2.2,2.1-3.9
	c0-2.4-1.9-3.6-4-3.6c-1.8,0-3.2,1-3.8,2.4c-0.1,0.2-0.1,0.4-0.1,0.5c0,0.5,0.4,0.8,0.8,0.8c0.3,0,0.7-0.2,0.9-0.7
	c0.4-1,1.2-1.5,2.2-1.5c1.3,0,2.3,0.9,2.3,2.2c0,1.1-0.6,1.9-1.4,2.7l-4.6,4.7c-0.5,0.4-0.6,0.8-0.6,1.1c0,0.3,0.1,0.9,1.2,0.9
	H110.8z M118.2,17.3c3,0,4.3-3,4.3-6.7c0-3.7-1.3-6.7-4.3-6.7c-3,0-4.4,3-4.4,6.7C113.8,14.4,115.1,17.3,118.2,17.3z M118.2,15.8
	c-2.1,0-2.6-3.1-2.6-5.2c0-2.1,0.5-5.2,2.6-5.2c2.1,0,2.6,3.1,2.6,5.2C120.7,12.8,120.2,15.8,118.2,15.8z M132.2,17
	c0.7,0,0.9-0.5,0.9-0.8c0-0.3-0.1-0.8-0.9-0.8h-5.5l4.1-4c1.1-1.1,2.1-2.2,2.1-3.9c0-2.4-1.9-3.6-4-3.6c-1.8,0-3.2,1-3.8,2.4
	c-0.1,0.2-0.1,0.4-0.1,0.5c0,0.5,0.4,0.8,0.8,0.8c0.3,0,0.7-0.2,0.9-0.7c0.4-1,1.2-1.5,2.2-1.5c1.3,0,2.3,0.9,2.3,2.2
	c0,1.1-0.6,1.9-1.4,2.7L125,15c-0.5,0.4-0.6,0.8-0.6,1.1c0,0.3,0.1,0.9,1.2,0.9H132.2z M140.2,17.1c0.3,0,0.9-0.1,0.9-1v-11
	c0-1-0.6-1.1-1-1.1c-0.3,0-0.5,0.1-0.9,0.4l-2.7,2.2C136.1,7,136,7.2,136,7.4c0,0.5,0.3,0.8,0.8,0.8c0.2,0,0.4-0.1,0.6-0.2l1.9-1.6
	v9.8C139.3,17,139.9,17.1,140.2,17.1z"></path>
<path d="M245,12.7h-90.5c-0.7,0-1.2-0.5-1.2-1.2s0.5-1.2,1.2-1.2H245c0.7,0,1.2,0.5,1.2,1.2S245.7,12.7,245,12.7z
	 M91.5,12.7H1c-0.7,0-1.2-0.5-1.2-1.2s0.5-1.2,1.2-1.2h90.5c0.7,0,1.2,0.5,1.2,1.2S92.2,12.7,91.5,12.7z"></path>
<polygon points="147,48 149.5,40.8 172.6,40.8 170,48 "></polygon>
<path d="M232.5,27.5c0,0-21.9,21.4-23.5,22.8c-2.5,2.4-2.8,2.4-6.4,2.4h-1.9l-7.4-25.2h-16.5l9.6,32.5h17.1
	c9.5,0,9.3,0,15.2-5.6c11.6-11,28.6-27,28.6-27L232.5,27.5z"></path>
<path d="M133,60.4c-7,0-7.3-0.1-10.4-2.1c-0.3-0.2-0.6-0.4-1-0.7c-1.1-0.7-18-13.8-20.1-15.6
	c-0.5-0.4-0.7-0.6-0.8-0.8c0.2,0,0.5-0.1,1-0.1c5.3,0,14.9,0,14.9,0c1.8,0,4-0.1,5-0.1c3.1-0.1,5-1,6.1-2.8c0.5-0.7,0.6-1,0.7-1.5
	c0.2-0.9,0.2-1.6-0.1-2.1c-0.4-0.6-1.3-1-2.6-1.1c-1-0.1-3.4-0.1-6.8-0.1l-18.8,0l-9.6,26.4H73.8l11.7-32.4h36.1
	c4.6,0,7.7,0.1,11.3,0.4c3.6,0.3,6.5,1.5,8.1,3.6c1.2,1.5,1.6,3.4,1.3,5.4c-0.1,0.9-0.4,2.2-1,3.3c-2.3,4.5-6,6.3-13.8,6.8l-2.3,0.1
	l18.3,13.2L133,60.4z"></path>
<path d="M44.9,59.9l4.8-13.4l-18.9,0c-1.4,0-1.9,0-2.8,0c-0.7,0-2,0-2.6,0.1c-1.9,0.1-2.8,0.6-3.5,1.1
	c-0.8,0.6-1.3,1.4-2.1,3.3c-0.1,0.4-0.3,0.7-0.5,1.2l-0.2,0.5c-0.3,0.9-2.6,7.2-2.6,7.2H0l11.7-32.4h16.5l-4.6,12.6l25.7,0
	c1,0,1.6-0.1,2.1-0.4c0.3-0.2,0.7-0.4,1.1-1.1c0.1-0.1,0.2-0.3,0.2-0.5c0.1-0.1,0.1-0.3,0.2-0.4l3.8-10.2h16.5L61.4,59.9H44.9z"></path>
</svg>