<svg id="Passport-Badge-2021" xmlns="http://www.w3.org/2000/svg" viewBox="0 0 387 68" role="presentation" aria-hidden="true">
<style type="text/css">
	#Passport-Badge-2021 {
		fill: #ffffff;
	}
</style>
<title>Badge/MY21/Passport</title>
<path d="M346.4,59.2l0.2-0.7c0.8-2,7.1-19.4,7.4-20.3l0.2-0.5c0.4-1.2,0.9-2.2,0.2-3.1
	c-0.4-0.5-1.1-0.7-2.6-0.7c-1,0-3.4,0-7.2-0.1h-7h-0.7l1.4-3.9h48.1l-0.3,0.7c-0.2,0.5-0.3,0.8-0.4,0.9l-0.1,0.2
	c-0.2,0.6-0.7,1.2-1.2,1.5c-0.7,0.4-1.5,0.5-2.3,0.5h-0.3c-0.6,0.2-1.5,0.2-2.6,0.2h-3.9c-1.5,0-3,0.1-4.5,0.3
	c-2.8,0.4-3.9,1-5.1,2.9c-1,1.7-1.7,3.6-2.4,5.5c-1.4,3.8-5,13.5-6,16.3l-0.1,0.3L346.4,59.2L346.4,59.2z"></path>
<path d="M78.7,59l-1.1-7.2h-24L53.5,52c-3.1,3.3-5.7,5.9-6.5,6.8L46.7,59H36.6l21.5-21.2
	c0.6-0.6,1.2-1.2,1.7-1.7c1.3-1.3,2.6-2.6,3.6-3.5c1.4-1.5,3.5-2.4,5.6-2.5c1.5-0.2,3.6-0.2,4.2-0.2H83h1.6L89,59.1L78.7,59z
	 M77.1,47.7l-2-13.9h-1.9c-1.6,0-2,0.3-3.5,1.5c-0.7,0.6-4.3,4.4-11,11.2l-1.1,1.1C57.7,47.7,77.1,47.7,77.1,47.7z"></path>
<path d="M187.5,59.1l10.5-29.2h23.8c3.9,0,6.5,0,9,0.2c2.8,0.2,4.8,1.1,5.9,2.6c0.9,1.4,1.1,3.3,0.5,4.8
	c-0.3,1-0.6,1.8-1.1,2.7c-1.9,3.9-4.5,6.6-11.2,7c-1,0.1-3.1,0.1-3.9,0.1h-6.4c-2.2,0-2.6-0.4-4.2-1.9c-0.5-0.5-1-1-1.5-1.5
	l-0.8-0.9h8.9c1.5,0,2.7-0.1,3.6-0.1c3.3-0.2,4.7-0.8,6.1-2.7c0.6-0.9,1-1.7,1.2-2.8c0.3-0.8,0.2-1.7-0.3-2.4
	c-0.7-0.8-1.7-1.2-2.7-1.2c-1.1,0.2-2.2,0.2-3.4,0.2h-14.1l-9.1,25.2L187.5,59.1L187.5,59.1z"></path>
<path d="M323.6,59.2c-4.6,0-4.8,0-6.7-1.8c-0.2-0.2-0.5-0.4-0.7-0.7c-0.8-0.8-4.9-5.1-8.5-8.8l-4.3-4.6h8.8
	c1.5,0,2.7-0.1,3.6-0.1c3.3-0.2,4.7-0.8,6-2.7c0.6-0.9,1-1.7,1.2-2.8c0.3-0.8,0.2-1.7-0.3-2.4c-0.7-0.8-1.7-1.2-2.7-1.2
	c-1.1-0.1-2.2-0.2-3.4-0.1h-14.1l-9.1,25.2h-10.9l10.5-29h23.8c3.9,0,6.5,0,9,0.2c2.8,0.2,4.8,1.2,5.9,2.6c0.9,1.4,1.1,3.3,0.5,4.8
	c-0.3,1-0.6,1.8-1.1,2.7c-1.9,3.9-4.5,6.6-11.2,7h-0.6l-1.4,0.1l11.6,11.6C329.8,59.2,324,59.2,323.6,59.2"></path>
<path d="M98.8,59.2h-5.1h-1.2l0.3-0.7c0.7-1.4,1.1-2.3,1.2-2.6c0.5-1,0.8-1,2-1h1.2h21.2
	c1.2,0,2.4-0.1,3.6-0.2c1.9-0.2,3.5-1.6,3.8-3.6c0.2-1.7-1.1-2.2-2.5-2.5l-2.2-0.5c-0.1,0-11.2-2.5-14.8-3.4
	c-3.7-0.9-5.9-2.1-6.5-3.6c-0.4-0.9-0.4-1.9,0-2.8c1.1-3.7,4-6.4,7.7-7.4c3.3-0.9,6.7-1.1,10.1-1.1h26.7h0.8l-0.3,0.7
	c-0.1,0.3-0.3,0.6-0.3,0.8c-1,2.2-1.3,2.4-5.2,2.4h-21.5c-0.8,0-1.5,0.1-2.3,0.2c-2,0.4-3.4,1.4-3.6,3c-0.2,1.4,1.1,1.9,2.9,2.4
	c1.7,0.5,5.4,1.3,9.1,2.2l0.5,0.1c1.8,0.4,3.7,0.9,5.3,1.2c1.1,0.3,2,0.5,2.9,0.8l0.7,0.2c3.1,0.8,4.6,1.7,5.3,3.2
	c0.4,1,0.4,2,0.1,3.1c-1.1,3.8-4.1,6.8-8,8.1c-2.9,0.6-5.9,0.9-8.8,0.9h-7.3L98.8,59.2L98.8,59.2z"></path>
<path d="M256,59.7c-1.9,0-3.9-0.1-6.2-0.2c-6.2-0.3-10.3-1.7-12.2-4.3c-1.3-1.9-1.6-4.3-0.8-7.7
	c0.8-3.2,1.9-6.2,3.5-9.1c3.8-7.2,7.6-8.9,20.9-9.2h3.4c2.4,0,5,0,6.8,0.1c6.6,0.3,10.8,1.5,12.5,3.9c1.4,1.8,1.5,4.4,0.5,8.2
	c-0.7,3-1.7,5.9-3.2,8.6c-3.7,7-8.6,9.3-21.2,9.8L256,59.7L256,59.7z M265,33.2h-1.5c-7.5,0.2-10.5,1.5-12.8,5.7
	c-1.4,2.7-2.6,5.5-3.4,8.5c-0.5,1.8-0.9,3.9,0.3,5.6c1.1,1.4,3.3,2.2,6.9,2.4c0.5,0,1,0,1.5,0.1h1.4c8.1-0.2,10.7-1.4,13.4-6.3
	c1.2-2.4,2.1-5,2.8-7.6c0.6-2,1-4.2-0.2-5.8c-1.1-1.4-3.1-2.1-7-2.3C266.1,33.2,265.6,33.2,265,33.2v-0.5V33.2z"></path>
<path d="M0,59.1l10.5-29.2h23.8c4,0,6.5,0,9,0.2c2.8,0.2,4.8,1.1,5.9,2.6c0.9,1.4,1.1,3.3,0.5,4.8
	c-0.3,1-0.6,1.8-1.1,2.7c-1.9,3.9-4.5,6.6-11.2,7c-1,0.1-3.1,0.1-3.9,0.1H27c-2.2,0-2.6-0.4-4.2-1.9c-0.5-0.5-1-1-1.5-1.5L20.5,43
	h8.9c1.5,0,2.7-0.1,3.6-0.1c3.3-0.2,4.7-0.8,6.1-2.7c0.6-0.9,1-1.7,1.2-2.8c0.3-0.8,0.2-1.7-0.3-2.4c-0.7-0.8-1.7-1.2-2.7-1.2
	c-1.2-0.1-2.2-0.2-3.4-0.1h-14L10.8,59H0V59.1z"></path>
<path d="M145.7,59.1h-5.1h-1.2l0.3-0.7c0.7-1.4,1.1-2.3,1.2-2.6c0.5-1,0.8-1,2-1h1.2h21.2
	c1.2,0,2.4-0.1,3.6-0.2c1.9-0.2,3.5-1.6,3.8-3.6c0.2-1.7-1.1-2.2-2.5-2.5l-2.2-0.5c-0.1,0-11.2-2.5-14.8-3.4
	c-3.6-0.9-5.9-2.1-6.5-3.6c-0.4-0.9-0.4-1.9,0-2.8c1.1-3.7,4-6.4,7.7-7.4c3.3-0.9,6.7-1.1,10.1-1.1h26.7h0.8l-0.3,0.7
	c-0.1,0.3-0.3,0.6-0.3,0.8c-1.1,2.3-1.4,2.5-5.3,2.5h-21.5c-0.8,0-1.5,0.1-2.3,0.2c-2,0.4-3.4,1.4-3.6,3c-0.2,1.4,1.1,1.9,2.9,2.4
	c1.7,0.5,5.4,1.3,9.1,2.2l0.5,0.1c1.8,0.4,3.7,0.9,5.3,1.2c1.1,0.3,2,0.5,2.9,0.8l0.7,0.2c3.1,0.8,4.6,1.7,5.3,3.2
	c0.4,1,0.4,2,0.1,3.1c-1.1,3.8-4.1,6.8-8,8.1c-2.9,0.6-5.9,0.9-8.8,0.9h-7.3C154,59.1,150.2,59.1,145.7,59.1"></path>
<path d="M386,12.7H226.5c-0.7,0-1.2-0.5-1.2-1.2s0.5-1.2,1.2-1.2H386c0.7,0,1.2,0.5,1.2,1.2S386.7,12.7,386,12.7z
	 M162.5,12.7H1.5c-0.7,0-1.2-0.5-1.2-1.2s0.5-1.2,1.2-1.2h161c0.7,0,1.2,0.5,1.2,1.2S163.2,12.7,162.5,12.7z"></path>
<path d="M181.8,17c0.7,0,0.9-0.5,0.9-0.8s-0.1-0.8-0.9-0.8h-5.5l4.1-4c1.1-1.1,2.1-2.2,2.1-3.8
	c0-2.4-1.9-3.6-4-3.6c-1.8,0-3.2,1-3.8,2.4c-0.1,0.2-0.1,0.4-0.1,0.5c0,0.5,0.4,0.8,0.8,0.8c0.3,0,0.7-0.2,0.9-0.7
	c0.4-1,1.2-1.5,2.2-1.5c1.3,0,2.3,0.9,2.3,2.2c0,1.1-0.6,1.9-1.4,2.7l-4.7,4.7c-0.4,0.4-0.6,0.8-0.6,1.1c0,0.3,0.1,0.9,1.2,0.9
	H181.8z M189.1,17.3c3,0,4.3-3,4.3-6.7c0-3.7-1.3-6.7-4.3-6.7c-3,0-4.4,3-4.4,6.7C184.8,14.4,186.1,17.3,189.1,17.3z M189.1,15.9
	c-2.1,0-2.6-3.1-2.6-5.2c0-2.1,0.5-5.2,2.6-5.2c2.1,0,2.6,3.1,2.6,5.2C191.7,12.8,191.2,15.9,189.1,15.9z M203.2,17
	c0.7,0,0.9-0.5,0.9-0.8s-0.1-0.8-0.9-0.8h-5.5l4.1-4c1.1-1.1,2.1-2.2,2.1-3.8c0-2.4-1.9-3.6-4-3.6c-1.8,0-3.2,1-3.8,2.4
	c-0.1,0.2-0.1,0.4-0.1,0.5c0,0.5,0.4,0.8,0.8,0.8c0.3,0,0.7-0.2,0.9-0.7c0.4-1,1.2-1.5,2.2-1.5c1.3,0,2.3,0.9,2.3,2.2
	c0,1.1-0.6,1.9-1.4,2.7L196,15c-0.4,0.4-0.6,0.8-0.6,1.1c0,0.3,0.1,0.9,1.2,0.9H203.2z M211.2,17.1c0.3,0,0.9-0.1,0.9-1v-11
	c0-0.9-0.6-1.1-1-1.1c-0.2,0-0.5,0.1-0.9,0.4l-2.7,2.2C207.1,7,207,7.2,207,7.4c0,0.4,0.3,0.8,0.8,0.8c0.2,0,0.4-0.1,0.6-0.2
	l1.9-1.6v9.8C210.3,17,210.9,17.1,211.2,17.1z"></path>
</svg>