<svg id="my21-crv-white" xmlns="http://www.w3.org/2000/svg" viewBox="0 0 321 91" role="presentation" aria-hidden="true">
<style type="text/css">
	#my21-crv-white { fill: #fff; }
</style>
<path d="M57.3,78.9h14c3.6,0,3.5,0,4.5-2c0.8-1.7,2.8-6.8,2.8-6.8s-30.9,0-34.7,0s-7.8,0-13.5-0.6
	c-3.9-0.4-6.4-1.7-7.7-4c-1.8-3.2,0.1-9.1,1.5-12.2c3.3-7.2,7.5-8.9,16.6-9.4c5.4-0.3,9.3-0.3,14.1-0.3c0,0,21.9,0,24.4,0
	c4,0,6.1-2.2,7.3-4.7c0.8-1.7,1.7-3.8,1.7-3.8H46.8c-5.6,0-12.5,0.1-17.6,0.5C12.7,36.7,6.5,42.5,2.4,51.9
	C-0.7,59.3-0.7,66,1.7,70.6c2.1,3.9,7.6,6.9,14.3,7.6c6,0.6,9.5,0.7,17.8,0.7H57.3z"></path>
<path d="M301.6,35c0,0-27.3,28-30.5,30.6c-3.8,3.1-4.4,3.3-7.9,3.4h-3.9l-10.5-34h-22.2l12.9,43.9h22
	c12.7,0,13.7-0.1,22.1-7.5c15.4-13.8,38.2-36.8,38.2-36.8L301.6,35z"></path>
<path d="M159.9,61.5c10.5-0.7,15.6-3.2,18.6-9.3c0.8-1.6,1.2-3.3,1.4-4.5c0.5-2.8-0.2-5.3-1.8-7.4
	c-2.2-2.8-6.1-4.5-11-4.9c-4.8-0.3-9.1-0.4-15.3-0.4h-48.1L87.9,78.8h21.6l13-35.8H148c4.6,0,7.7,0.1,9.2,0.2c1.8,0.2,3,0.6,3.6,1.5
	c0.5,0.7,0.5,1.6,0.2,2.8c-0.2,0.7-0.3,1.1-0.9,2c-1.5,2.4-4.2,3.6-8.3,3.8c-1.3,0.1-4.2,0.2-6.7,0.2c-0.1,0-13.1,0-20.2,0
	c-0.7,0-1.2,0.1-1.4,0.1c0.1,0.2,0.5,0.6,1.1,1.1c2.9,2.4,25.8,20.1,27.3,21.1c0.5,0.3,1,0.7,1.4,0.9c4.2,2.8,4.5,2.9,14.1,2.9H182
	l-24.8-17.9L159.9,61.5z"></path>
<polygon points="186.6,63.1 217.6,63.1 221.1,53.4 189.9,53.4 "></polygon>
<path d="M320,16.1H198.5c-0.9,0-1.6-0.7-1.6-1.6s0.7-1.6,1.6-1.6H320c0.9,0,1.6,0.7,1.6,1.6S320.9,16.1,320,16.1z
	 M121.5,16.1H1.5c-0.9,0-1.6-0.7-1.6-1.6s0.7-1.6,1.6-1.6h120c0.9,0,1.6,0.7,1.6,1.6S122.4,16.1,121.5,16.1z"></path>
<path d="M143,23c1,0,1.2-0.7,1.2-1.1s-0.2-1-1.2-1h-7.3l5.4-5.4c1.5-1.5,2.7-3,2.7-5.1c0-3.2-2.5-4.8-5.4-4.8
	c-2.4,0-4.3,1.3-5.1,3.1c-0.1,0.2-0.2,0.5-0.2,0.7c0,0.7,0.5,1.1,1.1,1.1c0.5,0,0.9-0.3,1.2-0.9c0.6-1.3,1.6-2.1,3-2.1
	c1.7,0,3,1.2,3,2.9c0,1.4-0.8,2.5-1.9,3.6l-6.2,6.3c-0.6,0.6-0.8,1-0.8,1.4s0.2,1.2,1.6,1.2h8.9V23z M152.9,23.4c4,0,5.8-4,5.8-8.9
	s-1.8-8.9-5.8-8.9c-4.1,0-5.8,4-5.8,8.9C147.1,19.5,148.8,23.4,152.9,23.4z M152.9,21.5c-2.8,0-3.4-4.1-3.4-7s0.6-7,3.4-7
	c2.8,0,3.4,4.1,3.4,7C156.3,17.4,155.6,21.5,152.9,21.5z M171.6,23c1,0,1.2-0.7,1.2-1.1s-0.2-1-1.2-1h-7.3l5.4-5.4
	c1.5-1.5,2.7-3,2.7-5.1c0-3.2-2.5-4.8-5.4-4.8c-2.4,0-4.3,1.3-5.1,3.1c-0.1,0.2-0.2,0.5-0.2,0.7c0,0.7,0.5,1.1,1.1,1.1
	c0.5,0,0.9-0.3,1.2-0.9c0.6-1.3,1.6-2.1,3-2.1c1.7,0,3,1.2,3,2.9c0,1.4-0.8,2.5-1.9,3.6l-6.2,6.3c-0.6,0.6-0.8,1-0.8,1.4
	s0.2,1.2,1.6,1.2h8.9V23z M182.2,23.2c0.4,0,1.2-0.2,1.2-1.3V7.3c0-1.3-0.9-1.5-1.3-1.5c-0.3,0-0.7,0.1-1.2,0.6l-3.6,2.9
	c-0.4,0.3-0.5,0.7-0.5,0.9c0,0.6,0.5,1,1,1c0.2,0,0.5-0.1,0.8-0.3l2.5-2.1v13.1C181,23,181.8,23.2,182.2,23.2z"></path>
</svg>