<svg id="Ridgeline-2021" viewBox="0 0 387 68" xmlns="http://www.w3.org/2000/svg" role="presentation" aria-hidden="true">
	<style type="text/css">
		#Ridgeline-2021 {
			fill: #ffffff;
		}
	</style>
	<title>Ridgeline 2021</title>
    <g stroke="none" stroke-width="1" fill="none" fill-rule="evenodd">
        <g transform="translate(0.000000, 30.000000)" fill="#ffffff">
            <path d="M160.729183,0.000704999971 C139.151484,0.000704999971 133.255335,1.80550493 129.570535,13.4074545 C126.160685,24.154004 129.453035,28.7412038 140.704834,29.7164538 C143.423784,29.9491038 144.290934,29.9538038 146.608034,29.9538038 C148.292984,29.9538038 150.497284,29.9068038 151.883784,29.8762538 C164.646633,29.6224538 167.454883,26.4147039 170.192633,19.2002042 C170.805983,17.5810543 172.114933,13.9620544 172.812883,11.7883045 L152.128184,11.7883045 L150.248184,17.0311543 L160.397833,17.0311543 C160.035934,18.0628043 159.366184,20.0180042 158.903234,21.0308541 C157.587234,23.874354 154.205584,24.426604 148.184884,24.426604 C139.694334,24.426604 138.333684,22.4831541 141.235934,13.8680544 C143.456684,7.2763047 145.992334,5.53260478 156.795284,5.19420479 L163.100333,5.11900479 C164.183683,5.11900479 168.519433,5.10020479 169.981133,5.10020479 C170.817733,5.10020479 171.351183,5.08845479 171.755383,5.07670479 C172.429833,5.05555479 173.104283,4.9263048 173.625983,4.63490481 C174.345083,4.23305483 174.772783,3.59855485 175.073583,3.01575488 C175.221633,2.72905489 175.381433,2.4517549 175.543583,2.09925491 C175.717483,1.70210493 176.469483,0.0195049992 176.474183,0.0148049994 L160.729183,0.000704999971 Z"></path>
            <polygon points="64.0786224 0.00775499969 53.3132728 29.8927038 65.2113224 29.8927038 75.9766719 0.00775499969"></polygon>
            <polygon points="276.305939 0.00775499969 265.542939 29.8927038 277.436289 29.8927038 288.201638 0.00775499969"></polygon>
            <path d="M115.63856,0.450729982 C111.61771,0.025379999 108.616761,0.00187999992 102.972061,0.00187999992 L86.1155115,0.0112799995 L75.3454619,29.8915288 L92.4558112,29.8962296 C99.306061,29.8962296 100.951061,29.8985788 104.454911,29.6518288 C115.60096,28.8528288 119.26226,25.175079 122.08226,19.0110292 C123.32776,16.2850293 124.80356,12.3910795 124.808275,8.84257964 C124.81531,4.44102982 122.28671,1.15102995 115.63856,0.450729982 M110.96441,17.6527293 C108.066861,22.9355291 105.573511,23.668729 98.742061,23.891979 C94.8128612,24.016529 91.0904613,24.0095519 89.3608614,24.0095519 L95.9996111,5.59252977 L97.776211,5.59252977 C104.201111,5.59252977 106.539361,5.60427977 109.126711,5.83222976 C112.30626,6.11187975 113.48361,7.57122969 113.53766,9.49587961 C113.60581,11.9445795 112.00546,15.7515794 110.96441,17.6527293"></path>
            <path d="M178.131638,18.7388992 C177.020088,21.8667491 176.474888,23.3331491 176.474888,24.858299 C176.474888,29.0741988 180.888188,29.8919988 189.893387,29.8919988 C195.679087,29.8919988 204.804137,29.8543988 206.820437,29.8543988 C208.834387,29.8543988 212.013936,29.8144488 212.013936,29.8144488 C214.107786,29.8144488 214.079586,29.7909488 214.605986,28.6770488 C215.078336,27.6806489 216.293286,24.369499 216.293286,24.369499 C203.539837,24.369499 201.034737,24.367149 195.171487,24.364799 C190.323437,24.294299 189.082637,23.760849 189.129637,22.2615491 C189.150787,21.4601991 189.517387,20.0783992 190.118987,18.5156492 L190.652437,17.0304493 C195.347737,17.0257493 212.114986,17.0374993 216.429586,17.0398493 L218.354236,11.8063995 C214.086636,11.8016995 198.980837,11.8016995 192.532437,11.7993495 L194.931787,5.12534979 C194.931787,5.12534979 202.573987,5.12064979 209.753236,5.11594979 C210.836586,5.11594979 215.172336,5.09949979 216.634036,5.09949979 C217.468286,5.09949979 218.004086,5.09009979 218.410636,5.07834979 C219.080386,5.05484979 219.754836,4.9255998 220.281236,4.63184981 C220.995636,4.23234983 221.423336,3.60019985 221.726486,3.01739988 C221.874536,2.73069989 222.036686,2.4510499 222.194136,2.09384992 C222.372736,1.69904993 223.124736,0.0164499993 223.124736,0.0140999994 L184.866737,0.0140999994 C183.882088,2.70014989 180.157338,13.0095995 178.131638,18.7388992"></path>
            <path d="M349.250171,0.0145699994 C348.263171,2.69826989 344.540771,13.0100695 342.512721,18.7393692 C341.405871,21.8672191 340.855971,23.3336191 340.855971,24.861119 C340.855971,29.0746688 345.271621,29.8948188 354.274471,29.8948188 C360.06017,29.8948188 369.18287,29.8548688 371.20152,29.8548688 C373.21547,29.8548688 376.39502,29.8149188 376.39502,29.8149188 C378.48652,29.8149188 378.46067,29.7914188 378.98707,28.6751688 C379.45707,27.6787689 380.67672,24.369969 380.67672,24.369969 C367.91857,24.369969 365.41582,24.367619 359.55492,24.362919 C354.706871,24.294769 353.463721,23.761319 353.508371,22.2620191 C353.531871,21.4606691 353.898471,20.0788692 354.497721,18.5161192 L355.033521,17.0309193 C359.72882,17.0262193 376.49607,17.0379693 380.81067,17.0403193 L382.737669,11.8045195 C378.46772,11.8021695 363.36427,11.8021695 356.913521,11.7998195 L359.31287,5.12581979 C359.31287,5.12581979 366.95742,5.12346979 374.13432,5.11876979 C375.21767,5.11876979 379.55577,5.09996979 381.01512,5.09996979 C381.85172,5.09996979 382.385169,5.09056979 382.789369,5.07646979 C383.461469,5.05531979 384.135919,4.9260698 384.659969,4.63231981 C385.376719,4.23281983 385.806769,3.59831985 386.107569,3.01551988 C386.257969,2.72881989 386.415419,2.4515199 386.575219,2.09431992 C386.753819,1.69951993 387.503469,0.0169199993 387.505819,0.0145699994 L349.250171,0.0145699994 Z"></path>
            <path d="M235.73178,22.2845791 C235.62133,21.5584291 235.87278,20.4421792 236.49788,18.6961292 L243.22828,0.00892999964 L231.320831,0.00892999964 C230.357331,2.4435299 227.111981,11.6555295 224.994631,17.5939793 C223.871331,20.7453292 223.032381,23.1117791 223.135781,24.850779 C223.382531,28.9468288 227.910981,29.9032788 236.73053,29.9032788 C241.06863,29.9032788 240.39183,29.8962288 245.27278,29.8915288 C247.28908,29.8915288 258.21893,29.7975288 258.21893,29.7975288 C260.312779,29.7975288 260.286929,29.7763788 260.813329,28.6577788 C261.283329,27.6613789 262.500629,24.352579 262.500629,24.352579 L243.21418,24.352579 C237.52013,24.352579 235.95973,23.765079 235.73178,22.2845791"></path>
            <path d="M332.180477,0.000704999971 L324.951877,20.0767542 C324.951877,20.0767542 314.221777,4.08970483 313.472127,2.93115488 C311.951677,0.564704977 311.331277,0.0148049994 307.554828,0.0148049994 L298.269978,0.0148049994 L287.481128,29.8833038 L296.387628,29.8833038 L303.696128,9.62865461 C304.558578,9.48765461 304.784178,9.55815461 305.343478,10.4276546 C305.970928,11.3958545 318.409477,29.8833038 318.409477,29.8833038 L330.281677,29.8833038 L341.032926,0.000704999971 L332.180477,0.000704999971 Z"></path>
            <path d="M43.5480832,0.24627999 C40.7985833,0.0159799994 38.0443835,0.0230065338 33.9835836,0.0230065338 L10.7467846,0.0230065338 L0.00023499999,29.8938788 L11.9006345,29.8938788 L20.8212342,5.13192979 C20.8212342,5.13192979 32.8179837,5.13427979 34.0752336,5.13427979 C34.8671836,5.13427979 36.0750835,5.12957979 37.4474835,5.26587979 C39.8092334,5.49147978 40.2204834,6.57247973 39.8444834,8.07412967 C39.6400334,8.88957964 39.2804834,9.7872796 38.7352834,10.5580796 C37.5461835,12.2406795 36.3476835,12.8234795 33.3514336,12.9762295 C32.5171837,13.0208795 31.3327837,13.0796295 29.8358338,13.0796295 C29.6407838,13.0796295 22.9738341,13.0467295 19.7002842,13.0373295 C19.7002842,13.0373295 19.7120342,13.0514295 19.7355342,13.0702295 C22.9973341,16.4495293 32.0894837,26.0798289 33.3678836,27.2783289 C36.0280835,29.7646288 35.6003836,29.8915288 41.0335833,29.8915288 C41.0429833,29.8915288 45.5244332,29.8962288 48.0459831,29.8962288 L48.668733,29.9009288 L37.1490335,18.3788793 C37.3722835,18.3671293 37.5814335,18.3577293 37.7435835,18.3459793 C44.6713832,17.8689293 47.4138331,14.9807794 49.322033,11.0680296 C49.698033,10.3019296 50.128083,9.25147962 50.372483,8.33027966 C51.6273829,3.61617985 48.969533,0.699829972 43.5480832,0.24627999"></path>
        </g>
        <g transform="translate(1.000000, 0.000000)">
            <path d="M384.713425,11.4332828 L252.5,11.5 M133.359852,11.4332828 L0.5,11.5" stroke="#ffffff" stroke-width="2.432" stroke-linecap="round"></path>
            <path d="M152.479629,17.144 C153.019629,17.144 153.379629,16.766 153.379629,16.262 C153.379629,16.1 153.343629,15.902 153.181629,15.65 L150.193629,11.15 C152.011629,10.844 153.271629,9.656 153.271629,7.784 C153.271629,5.192 151.201629,4.256 148.735629,4.256 L145.711629,4.256 C144.991629,4.256 144.649629,4.598 144.649629,5.318 L144.649629,16.136 C144.649629,16.982 145.243629,17.144 145.549629,17.144 C145.837629,17.144 146.431629,16.982 146.431629,16.136 L146.431629,11.33 L148.339629,11.33 L151.687629,16.658 C151.921629,17.036 152.227629,17.144 152.479629,17.144 Z M148.483629,9.836 L146.431629,9.836 L146.431629,5.768 L148.609629,5.768 C150.157629,5.768 151.471629,6.254 151.471629,7.784 C151.471629,9.314 150.157629,9.836 148.483629,9.836 Z M159.553629,17.234 C160.903629,17.234 161.965629,16.802 162.793629,15.956 C163.009629,15.722 163.063629,15.488 163.063629,15.344 C163.063629,14.912 162.739629,14.642 162.343629,14.642 C162.163629,14.642 161.983629,14.696 161.749629,14.912 C161.227629,15.398 160.579629,15.83 159.553629,15.83 C158.059629,15.83 156.835629,14.696 156.781629,13.238 L162.649629,13.238 C163.243629,13.238 163.549629,12.968 163.549629,12.374 C163.549629,12.194 163.549629,12.068 163.513629,11.816 C163.189629,9.476 161.605629,8.234 159.463629,8.234 C156.961629,8.234 155.053629,10.088 155.053629,12.752 C155.053629,15.434 156.961629,17.234 159.553629,17.234 Z M161.857629,11.978 L156.781629,11.978 C156.889629,10.646 158.005629,9.566 159.463629,9.566 C161.029629,9.566 161.821629,10.628 161.857629,11.978 Z M169.651629,17.234 C170.857629,17.234 172.081629,16.676 172.729629,15.65 L172.765629,15.65 L172.765629,16.244 C172.765629,17.018 173.323629,17.144 173.593629,17.144 C173.845629,17.144 174.403629,17.018 174.403629,16.244 L174.403629,4.184 C174.403629,3.392 173.845629,3.248 173.557629,3.248 C173.287629,3.248 172.711629,3.392 172.711629,4.184 L172.711629,9.746 L172.675629,9.746 C172.081629,8.918 171.019629,8.234 169.633629,8.234 C167.077629,8.234 165.349629,10.196 165.349629,12.716 C165.349629,15.218 167.023629,17.234 169.651629,17.234 Z M169.939629,15.812 C168.085629,15.812 167.113629,14.318 167.113629,12.716 C167.113629,11.114 168.085629,9.638 169.939629,9.638 C171.667629,9.638 172.819629,11.096 172.819629,12.734 C172.819629,14.372 171.667629,15.812 169.939629,15.812 Z M181.297629,17.234 C182.647629,17.234 183.709629,16.802 184.537629,15.956 C184.753629,15.722 184.807629,15.488 184.807629,15.344 C184.807629,14.912 184.483629,14.642 184.087629,14.642 C183.907629,14.642 183.727629,14.696 183.493629,14.912 C182.971629,15.398 182.323629,15.83 181.297629,15.83 C179.803629,15.83 178.579629,14.696 178.525629,13.238 L184.393629,13.238 C184.987629,13.238 185.293629,12.968 185.293629,12.374 C185.293629,12.194 185.293629,12.068 185.257629,11.816 C184.933629,9.476 183.349629,8.234 181.207629,8.234 C178.705629,8.234 176.797629,10.088 176.797629,12.752 C176.797629,15.434 178.705629,17.234 181.297629,17.234 Z M183.601629,11.978 L178.525629,11.978 C178.633629,10.646 179.749629,9.566 181.207629,9.566 C182.773629,9.566 183.565629,10.628 183.601629,11.978 Z M190.117629,17.234 C191.845629,17.234 193.519629,16.496 193.519629,14.48 C193.519629,12.968 192.277629,12.32 190.657629,11.96 C189.361629,11.672 188.713629,11.402 188.713629,10.682 C188.713629,9.872 189.523629,9.566 190.297629,9.566 C190.873629,9.566 191.431629,9.746 191.935629,10.214 C192.133629,10.394 192.313629,10.466 192.475629,10.466 C192.925629,10.466 193.213629,10.124 193.213629,9.728 C193.213629,9.566 193.141629,9.314 192.817629,9.044 C192.187629,8.504 191.269629,8.234 190.351629,8.234 C188.731629,8.234 187.129629,9.008 187.129629,10.844 C187.129629,12.464 188.479629,12.932 189.613629,13.202 C191.071629,13.544 191.845629,13.832 191.845629,14.624 C191.845629,15.56 190.999629,15.866 190.153629,15.866 C189.451629,15.866 188.857629,15.578 188.317629,15.11 C188.083629,14.912 187.885629,14.84 187.687629,14.84 C187.255629,14.84 186.949629,15.164 186.949629,15.596 C186.949629,15.758 187.021629,16.028 187.309629,16.28 C188.029629,16.91 189.091629,17.234 190.117629,17.234 Z M196.525629,6.47 C197.137629,6.47 197.659629,6.002 197.659629,5.39 C197.659629,4.76 197.137629,4.292 196.525629,4.292 C195.913629,4.292 195.409629,4.778 195.409629,5.39 C195.409629,5.984 195.913629,6.47 196.525629,6.47 Z M196.525629,17.144 C196.813629,17.144 197.371629,17 197.371629,16.208 L197.371629,9.26 C197.371629,8.468 196.813629,8.324 196.525629,8.324 C196.237629,8.324 195.679629,8.468 195.679629,9.26 L195.679629,16.208 C195.679629,17 196.237629,17.144 196.525629,17.144 Z M204.085629,21.32 C207.631629,21.32 208.801629,19.052 208.801629,16.568 L208.801629,9.224 C208.801629,8.45 208.243629,8.324 207.991629,8.324 C207.721629,8.324 207.163629,8.45 207.163629,9.224 L207.163629,9.836 L207.127629,9.836 C206.479629,8.774 205.273629,8.234 204.049629,8.234 C201.439629,8.234 199.765629,10.232 199.765629,12.68 C199.765629,15.128 201.457629,17.072 204.067629,17.072 C205.273629,17.072 206.443629,16.55 207.073629,15.596 L207.109629,15.596 L207.109629,16.694 C207.109629,18.458 206.353629,19.844 204.103629,19.844 C203.203629,19.844 202.339629,19.502 201.511629,18.854 C201.241629,18.656 201.061629,18.602 200.863629,18.602 C200.377629,18.602 200.071629,18.98 200.071629,19.394 C200.071629,19.61 200.179629,19.88 200.503629,20.132 C201.421629,20.87 202.789629,21.32 204.085629,21.32 Z M204.337629,15.65 C202.555629,15.65 201.511629,14.21 201.511629,12.644 C201.511629,11.006 202.555629,9.638 204.337629,9.638 C206.065629,9.638 207.235629,11.024 207.235629,12.644 C207.235629,14.336 206.083629,15.65 204.337629,15.65 Z M218.467629,17.144 C218.755629,17.144 219.313629,17 219.313629,16.208 L219.313629,11.708 C219.313629,9.8 218.323629,8.234 216.127629,8.234 C214.903629,8.234 213.769629,8.954 213.355629,9.872 L213.301629,9.872 L213.301629,9.224 C213.301629,8.45 212.761629,8.324 212.509629,8.324 C212.239629,8.324 211.699629,8.45 211.699629,9.224 L211.699629,16.208 C211.699629,17 212.257629,17.144 212.545629,17.144 C212.833629,17.144 213.391629,17 213.391629,16.208 L213.391629,12.464 C213.391629,10.772 214.345629,9.656 215.677629,9.656 C217.243629,9.656 217.621629,10.88 217.621629,12.266 L217.621629,16.208 C217.621629,17 218.179629,17.144 218.467629,17.144 Z M226.117629,17.234 C227.467629,17.234 228.529629,16.802 229.357629,15.956 C229.573629,15.722 229.627629,15.488 229.627629,15.344 C229.627629,14.912 229.303629,14.642 228.907629,14.642 C228.727629,14.642 228.547629,14.696 228.313629,14.912 C227.791629,15.398 227.143629,15.83 226.117629,15.83 C224.623629,15.83 223.399629,14.696 223.345629,13.238 L229.213629,13.238 C229.807629,13.238 230.113629,12.968 230.113629,12.374 C230.113629,12.194 230.113629,12.068 230.077629,11.816 C229.753629,9.476 228.169629,8.234 226.027629,8.234 C223.525629,8.234 221.617629,10.088 221.617629,12.752 C221.617629,15.434 223.525629,17.234 226.117629,17.234 Z M228.421629,11.978 L223.345629,11.978 C223.453629,10.646 224.569629,9.566 226.027629,9.566 C227.593629,9.566 228.385629,10.628 228.421629,11.978 Z M236.215629,17.234 C237.421629,17.234 238.645629,16.676 239.293629,15.65 L239.329629,15.65 L239.329629,16.244 C239.329629,17.018 239.887629,17.144 240.157629,17.144 C240.409629,17.144 240.967629,17.018 240.967629,16.244 L240.967629,4.184 C240.967629,3.392 240.409629,3.248 240.121629,3.248 C239.851629,3.248 239.275629,3.392 239.275629,4.184 L239.275629,9.746 L239.239629,9.746 C238.645629,8.918 237.583629,8.234 236.197629,8.234 C233.641629,8.234 231.913629,10.196 231.913629,12.716 C231.913629,15.218 233.587629,17.234 236.215629,17.234 Z M236.503629,15.812 C234.649629,15.812 233.677629,14.318 233.677629,12.716 C233.677629,11.114 234.649629,9.638 236.503629,9.638 C238.231629,9.638 239.383629,11.096 239.383629,12.734 C239.383629,14.372 238.231629,15.812 236.503629,15.812 Z" fill="#ffffff" fill-rule="nonzero"></path>
        </g>
    </g>
</svg>