<svg id="Odyssey-Badge" xmlns="http://www.w3.org/2000/svg" viewBox="0 0 387 68" role="presentation" aria-hidden="true">
<style type="text/css">
	#Odyssey-Badge {
		fill: #fff;
	}
</style>
<path d="M32.5,29.4l-3.1,0.1l-1.5,0.1l-1.5,0.1l-2.2,0.2l-2.2,0.3L21,30.3l-1.1,0.2l-1.5,0.3L17,31.1
	l-1.4,0.5l-0.9,0.3l-0.8,0.4l-1,0.6l-1,0.6l-0.9,0.7L10,35l-0.5,0.5L9,36.1l-0.5,0.6L8,37.4l-0.7,1.1l-0.7,1.1l-0.7,1.3l-0.7,1.3
	l-0.8,1.8l-0.8,1.8l-0.7,1.8l-0.6,1.9l-0.4,1.4l-0.4,1.4l-0.1,0.7l-0.1,0.7l-0.1,1l0,1l0.1,1l0.1,0.6l0.1,0.6l0.2,0.8l0.3,0.7
	l0.4,0.7l0.4,0.6l0.5,0.6l0.5,0.5l0.6,0.5l0.6,0.4l0.5,0.3l0.5,0.3l0.6,0.3l0.6,0.3l0.7,0.3l0.7,0.2l1.4,0.4l1.4,0.3l1.4,0.2
	l1.3,0.2l1.3,0.1l1.6,0.1l1.6,0.1l2.7,0h0.4l2.5,0l3.1-0.1l3.1-0.2l2.1-0.2l2.2-0.2l1.6-0.2l1.6-0.3l1.7-0.4l0.8-0.2l0.8-0.3
	l1.2-0.4l1.2-0.5l1.2-0.6l1.1-0.7l1.1-0.8l1-0.9l1-0.9l0.7-0.8l0.7-0.9l0.6-0.9l0.5-0.7l0.4-0.7l0.7-1.3l0.6-1.3l0.7-1.7l0.7-1.7
	l0.6-1.8l0.6-1.8l0.4-1.4l0.3-1.4l0.2-1.3l0.1-0.6l0-0.6l0-0.9l-0.1-0.9l-0.1-0.9l-0.1-0.6l-0.2-0.6l-0.2-0.6l-0.3-0.6l-0.3-0.5
	l-0.3-0.4l-0.3-0.4l-0.3-0.4l-0.4-0.3l-0.4-0.4l-0.5-0.3l-0.5-0.3l-0.5-0.3l-1-0.5l-1.2-0.4l-1.2-0.4l-1.2-0.3l-0.9-0.2L45.9,30
	L44,29.7l-1.3-0.1l-1.3-0.1l-2.7-0.1l-3.1,0L32.5,29.4z M22.1,58.1L20.9,58L20,57.9l-0.9-0.2l-0.8-0.2l-0.8-0.3l-0.4-0.2l-0.3-0.2
	l-0.4-0.3l-0.4-0.4l-0.3-0.5l-0.1-0.4L15.4,55l0-0.4l0-0.4l0-0.4l0-0.4l0.2-0.8l0.1-0.3l0.3-1.1l0.4-1.1l0.7-2l0.8-1.9l0.7-1.5
	l0.8-1.5l0.6-1.1l0.5-0.8l0.5-0.7l0.7-0.7l0.7-0.6l0.8-0.5l0.2-0.1l0.7-0.3L25,38l1-0.3l0.7-0.1l1.2-0.2l1.2-0.1l1.3-0.1l2.3-0.1
	l1.1,0l1.1,0l1.3,0.1l0.6,0l1,0.1l0.4,0.1l0.8,0.1l0.6,0.1l0.6,0.2l0.4,0.2l0.4,0.2l0.4,0.3l0.3,0.3l0.2,0.3l0.2,0.3l0.1,0.4
	l0.1,0.4l0,0.5l0,0.5l-0.1,0.6l-0.1,0.6l-0.1,0.3l-0.2,0.8l-0.3,1.2l-0.5,1.7l-0.6,1.7l-0.3,0.7l-0.5,1.2l-0.6,1.2l-0.5,0.9
	l-0.6,0.9l-0.7,0.9l-0.4,0.4L36.7,55l-0.4,0.4l-0.4,0.4l-0.7,0.5l-0.7,0.4l-0.8,0.3l-0.9,0.3l-0.9,0.2l-1.2,0.2l-1.2,0.2L28,58
	l-1.4,0.1L25,58.1h-1.6L22.1,58.1z"></path>
<path d="M112.3,38.7l-0.1-0.5l-0.1-0.5l-0.1-0.5l-0.2-0.5l-0.3-0.7l-0.4-0.7l-0.4-0.7l-0.5-0.6l-0.6-0.6
	l-0.7-0.5l-0.7-0.5l-0.5-0.3l-0.5-0.3l-0.6-0.3l-0.6-0.2l-1.2-0.4l-1.2-0.3l-1.1-0.2l-0.9-0.1l-1.8-0.2L97.3,30l-1.9-0.1l-1.3,0
	l-2.6,0l-5,0c0,0-17.8,0.1-17.8,0.1c-4.2,11.5-8.6,22.9-13.1,34.3l17.7-0.1l5.9,0l4.1-0.1l2-0.1l1.5-0.1l1.5-0.1l1.9-0.2l1.9-0.2
	l1.4-0.2l1.4-0.3l1.6-0.4l1.6-0.5l0.8-0.3l0.8-0.3l1.1-0.5l1.1-0.6l1-0.7l1-0.7l0.9-0.8l0.8-0.8l0.7-0.8l0.7-0.9l0.6-0.9l0.4-0.7
	l0.4-0.7L109,52l0.6-1.3l0.7-1.7l0.6-1.7l0.5-1.6l0.4-1.6l0.2-0.8l0.1-0.8l0.1-0.8l0.1-0.8l0-1.1L112.3,38.7z M98.6,41.6l-0.1,0.9
	l-0.2,0.9l-0.3,1l-0.3,1l-0.4,1l-0.4,1l-0.6,1.2l-0.4,0.8l-0.4,0.8L95,50.9l-0.5,0.7L94,52.3L93.4,53l-0.6,0.6l-0.6,0.5l-0.5,0.3
	l-0.5,0.3l-0.4,0.2l-0.5,0.2l-0.6,0.2l-0.6,0.2l-1.1,0.2l-1.4,0.2L85.9,56L84,56.1l-1.3,0.1l-4,0.1c0,0-5.2,0.1-5.2,0.1
	c2.4-6.2,4.8-12.5,7.1-18.7l0.9,0l5.3,0l3.1,0l1.4,0l1.4,0.1l1,0.1l0.8,0.1l0.8,0.1l0.6,0.1l0.6,0.2l0.5,0.2l0.4,0.3l0.4,0.3
	l0.3,0.3l0.2,0.3l0.2,0.3l0.1,0.4l0.1,0.5l0,0.4L98.6,41.6z"></path>
<path d="M137.2,63.9L122,64c1.7-4.2,3.3-8.4,4.9-12.6c-4.3-7.2-8.7-14.4-13.1-21.6c5.1,0,10.2,0,15.3-0.1
	c2.9,4.7,5.7,9.4,8.6,14.1l15.8-11.5l0.9-0.7l0.6-0.5l0.7-0.4l0.7-0.4l0.7-0.3l0.6-0.2l0.6-0.1l0.6-0.1l0.6,0l0.9,0l12.2,0
	l-13.2,9.6l-13.2,9.6l-1.2,0.9l-1.3,0.9l-0.6,0.4l-0.3,0.2l-0.5,0.5l-0.4,0.5l-0.4,0.6l-0.3,0.6l-0.3,0.7l-0.7,1.8l-1.7,4.5
	L137.2,63.9l-0.1-0.2l-14.9,0.1L122,64"></path>
<polygon points="221.3,29.8 221,30.6 220.2,32.3 219.9,33.1 219.5,34 219.2,34.7 219,35 218.6,35.5 
	218.4,35.8 218.1,36 217.9,36.2 217.6,36.3 217.1,36.5 216.6,36.7 216,36.8 215.4,36.9 214.4,37 213.5,37 211.6,37 207.8,37 
	192.5,37 190.8,37 190,37 188.9,37 188.4,37.1 187.7,37.2 187.1,37.3 186.6,37.5 186,37.7 185.8,37.9 185.6,38.1 185.4,38.3 
	185.2,38.6 185.2,38.8 185.1,38.9 185.1,39.1 185.2,39.2 185.2,39.3 185.4,39.4 185.8,39.6 186.5,39.8 187.4,40.1 189.3,40.5 
	193.2,41.5 201.2,43.3 203.6,43.9 206.1,44.5 207.4,44.8 208.6,45.2 209.2,45.5 210.1,45.9 210.6,46.1 211,46.4 211.4,46.7 
	211.8,47 212.3,47.4 212.7,47.9 212.9,48.3 213.1,48.7 213.3,49.1 213.4,49.4 213.6,50.1 213.6,50.9 213.6,51.6 213.5,52.3 
	213.3,53 213.2,53.5 213,54 212.5,55.1 212.1,55.7 211.5,56.8 210.7,57.8 209.9,58.8 209,59.7 208,60.5 207,61.2 206.1,61.7 
	205.1,62.2 204,62.6 202.9,62.9 201.7,63.2 200.3,63.4 198.9,63.5 196.7,63.6 194.2,63.7 192.8,63.7 189.3,63.8 182.3,63.8 
	170.7,63.9 165,63.9 160,63.8 161,61.7 162.2,59.3 162.8,58.2 163,57.7 163.3,57.3 163.4,57.1 163.6,56.9 164,56.7 164.3,56.5 
	164.7,56.3 165.1,56.2 165.6,56.2 166.2,56.2 169.1,56.2 176.8,56.2 188.3,56.2 190.7,56.2 192.2,56.1 192.9,56.1 193.5,56 
	194.1,55.9 194.7,55.7 195.2,55.5 195.6,55.2 196,54.9 196.3,54.6 196.5,54.3 196.6,54 196.7,53.7 196.7,53.5 196.7,53.3 
	196.6,53.1 196.4,52.9 196.2,52.8 195.9,52.7 195.5,52.6 195,52.5 193.5,52.2 191.2,51.7 182.7,49.7 178.6,48.8 177.3,48.5 
	175.7,48.1 175,47.8 173.8,47.4 173,47.1 172.2,46.6 171.5,46.3 170.9,45.8 170.4,45.4 170,45 169.6,44.4 169.3,43.8 169,43.1 
	168.9,42.5 168.9,41.9 168.9,41.3 169,40.9 169.1,40.4 169.3,39.6 169.7,38.6 170.2,37.6 170.6,36.8 171.2,35.9 171.8,35.2 
	172.5,34.5 173.2,33.8 174.1,33.1 175,32.5 175.9,32 176.9,31.5 177.6,31.2 178.3,31 179,30.8 179.7,30.6 181.2,30.3 182.5,30.1 
	183.9,30 185.3,29.9 187.8,29.8 189.8,29.7 191.7,29.7 195.8,29.7 213.8,29.7 "></polygon>
<polygon points="214.3,63.8 215.3,61.6 216.3,59.5 217,58.2 217.2,57.7 217.5,57.3 217.8,56.9 218.2,56.6 
	218.6,56.4 219.1,56.2 219.5,56.2 219.8,56.2 220.3,56.1 223.4,56.1 233.5,56.2 240.7,56.2 244.3,56.2 245.5,56.2 246.4,56.1 
	247.3,56.1 248.1,56 248.4,55.9 248.8,55.8 249.1,55.6 249.5,55.4 249.9,55.2 250.2,54.9 250.5,54.6 250.7,54.2 250.8,53.9 
	250.8,53.6 250.8,53.5 250.8,53.3 250.7,53.1 250.6,53 250.3,52.8 250.1,52.7 249.8,52.6 249,52.5 245.5,51.7 236.7,49.7 
	235.6,49.4 232.1,48.6 231.4,48.4 229.8,48 229,47.7 227.8,47.3 226.9,46.9 226,46.4 225.4,46 224.9,45.6 224.6,45.3 224.3,45 
	223.9,44.6 223.6,44.1 223.4,43.6 223.3,43.2 223.2,42.7 223.1,42.1 223.1,41.5 223.2,40.8 223.3,40.4 223.4,39.9 223.7,39 
	224,38.4 224.3,37.7 224.8,36.8 225.4,35.9 225.9,35.2 226.6,34.5 227.3,33.9 228,33.3 228.5,32.9 229,32.6 230.1,32 231.2,31.5 
	232.1,31.1 232.9,30.9 234.1,30.6 235.4,30.3 236.5,30.1 237.7,30 239,29.9 240.4,29.8 242.3,29.8 244.2,29.8 246.1,29.8 
	249.8,29.8 262.6,29.8 271.1,29.8 275.4,29.8 275,30.7 274.3,32.4 274,33.2 273.6,34 273.3,34.8 273.1,35.1 272.7,35.6 272.5,35.8 
	272.2,36 272,36.2 271.7,36.4 271.2,36.6 270.7,36.8 270.1,36.9 269.6,37 268.4,37 267.3,37 266,37 263.6,37 248.1,37 245.4,37 
	244.1,37 243.1,37 242.2,37.1 241.7,37.2 241.2,37.3 240.7,37.5 240.3,37.7 240,37.9 239.7,38.2 239.5,38.4 239.4,38.7 239.3,38.9 
	239.3,39.1 239.3,39.2 239.4,39.3 239.5,39.4 239.7,39.5 240.3,39.7 240.7,39.8 241.3,40 242.4,40.3 243.9,40.7 247.4,41.5 
	255.7,43.4 258.9,44.2 260.2,44.5 261.5,44.9 262.7,45.3 263.4,45.5 264.3,45.9 264.7,46.2 265.1,46.4 265.5,46.7 265.9,47 
	266.4,47.5 266.8,48 267.1,48.4 267.3,48.8 267.4,49.1 267.5,49.5 267.7,50.2 267.7,51 267.7,51.7 267.6,52.4 267.4,53 267.2,53.7 
	266.9,54.4 266.6,55.1 266.3,55.8 265.9,56.4 265.3,57.3 264.7,58.2 264,58.9 263.2,59.7 262.4,60.3 261.5,61 260.5,61.6 260,61.9 
	259.4,62.2 258.8,62.4 258.1,62.6 257.5,62.8 256.9,63 256,63.2 255.1,63.3 254.1,63.4 253.2,63.5 251.6,63.6 250.1,63.7 
	248.1,63.7 244.4,63.7 232.9,63.8 224.6,63.8 220.3,63.8 "></polygon>
<path d="M326.9,29.9c-14.8-0.1-29.5-0.1-44.3-0.1v0l-2,5.3l-5.6,15l-0.8,2.1l-0.4,1.1l-0.4,1.1l-0.2,0.5
	l-0.2,0.8l-0.2,0.8l-0.1,0.9l0,0.5l0,0.5l0.1,0.4l0.1,0.4l0.2,0.6l0.3,0.6l0.3,0.4l0.3,0.4l0.4,0.4l0.3,0.2l0.3,0.2l0.7,0.4l0.7,0.3
	l0.8,0.3l0.9,0.2l1,0.2l1.3,0.2l1.3,0.1l1.3,0.1l1.9,0.1l1.9,0l3.8,0l14.6,0l6.3,0l1.8,0l0.8,0l0.4,0l0.4,0l0.4-0.1l0.3-0.1l0.2-0.2
	l0.2-0.2l0.2-0.3l0.2-0.3l0.3-0.6l0.3-0.7l0.3-0.7l0.5-1.2l1.3-3.2l-19.6-0.1l-3.6,0l-2.2,0l-1.2,0l-0.8,0l-0.8-0.1l-0.6-0.1
	l-0.6-0.1l-0.5-0.1l-0.2-0.1l-0.2-0.1l-0.2-0.1l-0.1-0.1l0-0.1l0-0.2l0-0.2l0-0.2l0.1-0.5l0.3-1l0.2-0.6l0.3-0.8l0.6-1.6l0,0
	c9.6,0,19.2,0.1,28.9,0.1v0c1-2.5,1.9-4.9,2.8-7.4c-9.6,0-19.3-0.1-28.9-0.1c0.9-2.5,1.6-4.4,2-5.5l14.5,0l7.2,0l3.6,0l0.5,0l0.7,0
	l0.3,0l0.5-0.1l0.4-0.1l0.4-0.2l0.5-0.3l0.5-0.4l0.4-0.5l0.4-0.5l0.3-0.6l0.3-0.6l0.6-1.2L326.9,29.9"></path>
<path d="M386.9,30.2l-13.5,9.8l-13.6,9.8l-1,0.7l-0.8,0.6l-0.4,0.3l-0.3,0.3l-0.3,0.3l-0.3,0.4l-0.3,0.4
	l-0.3,0.6l-0.3,0.6l-0.2,0.5l-0.4,1.1l-0.9,2.4l-2.3,6.1l-15.2-0.1c1.6-4.2,3.2-8.3,4.8-12.5l-4.6,12.3l-0.2,0.2l4.8-12.5
	c-4.3-7.2-8.7-14.4-13.1-21.6l15.2,0.1c2.9,4.7,5.7,9.4,8.5,14.1l16.5-12l0.7-0.5l0.6-0.4l0.3-0.2l0.5-0.3l0.6-0.2l0.8-0.2l0.8-0.1
	l0.5,0l1,0l1.1,0L386.9,30.2z"></path>
<path d="M228.5,12.7c-0.7,0-1.2-0.5-1.2-1.2c0-0.7,0.5-1.2,1.2-1.2l157.2-0.1c0.7,0,1.2,0.5,1.2,1.2c0,0.7-0.5,1.2-1.2,1.2
	L253.5,12.7z M1.5,12.7c-0.7,0-1.2-0.5-1.2-1.2c0-0.7,0.5-1.2,1.2-1.2l157.9-0.1c0.7,0,1.2,0.5,1.2,1.2c0,0.7-0.5,1.2-1.2,1.2
	L1.5,12.7z"></path>
<path d="M181.256,17 C181.994,17 182.12,16.46 182.12,16.208 C182.12,15.956 181.994,15.434 181.256,15.434 L175.784,15.434 L179.87,11.402 C180.986,10.304 181.922,9.188 181.922,7.55 C181.922,5.174 180.014,3.932 177.89,3.932 C176.108,3.932 174.686,4.904 174.074,6.29 C174.002,6.452 173.948,6.65 173.948,6.83 C173.948,7.352 174.344,7.64 174.776,7.64 C175.118,7.64 175.442,7.424 175.658,6.938 C176.072,5.966 176.846,5.39 177.872,5.39 C179.132,5.39 180.14,6.254 180.14,7.586 C180.14,8.666 179.51,9.494 178.736,10.286 L174.092,15.002 C173.642,15.452 173.516,15.758 173.516,16.064 C173.516,16.37 173.66,17 174.686,17 L181.256,17 Z M188.654,17.324 C191.678,17.324 192.992,14.354 192.992,10.628 C192.992,6.92 191.678,3.932 188.654,3.932 C185.612,3.932 184.298,6.92 184.298,10.628 C184.298,14.354 185.612,17.324 188.654,17.324 Z M188.654,15.848 C186.548,15.848 186.08,12.788 186.08,10.628 C186.08,8.486 186.548,5.39 188.654,5.39 C190.724,5.39 191.21,8.486 191.21,10.628 C191.21,12.788 190.724,15.848 188.654,15.848 Z M202.676,17 C203.414,17 203.54,16.46 203.54,16.208 C203.54,15.956 203.414,15.434 202.676,15.434 L197.204,15.434 L201.29,11.402 C202.406,10.304 203.342,9.188 203.342,7.55 C203.342,5.174 201.434,3.932 199.31,3.932 C197.528,3.932 196.106,4.904 195.494,6.29 C195.422,6.452 195.368,6.65 195.368,6.83 C195.368,7.352 195.764,7.64 196.196,7.64 C196.538,7.64 196.862,7.424 197.078,6.938 C197.492,5.966 198.266,5.39 199.292,5.39 C200.552,5.39 201.56,6.254 201.56,7.586 C201.56,8.666 200.93,9.494 200.156,10.286 L195.512,15.002 C195.062,15.452 194.936,15.758 194.936,16.064 C194.936,16.37 195.08,17 196.106,17 L202.676,17 Z M213.386,17 C214.124,17 214.25,16.46 214.25,16.208 C214.25,15.956 214.124,15.434 213.386,15.434 L207.914,15.434 L212,11.402 C213.116,10.304 214.052,9.188 214.052,7.55 C214.052,5.174 212.144,3.932 210.02,3.932 C208.238,3.932 206.816,4.904 206.204,6.29 C206.132,6.452 206.078,6.65 206.078,6.83 C206.078,7.352 206.474,7.64 206.906,7.64 C207.248,7.64 207.572,7.424 207.788,6.938 C208.202,5.966 208.976,5.39 210.002,5.39 C211.262,5.39 212.27,6.254 212.27,7.586 C212.27,8.666 211.64,9.494 210.866,10.286 L206.222,15.002 C205.772,15.452 205.646,15.758 205.646,16.064 C205.646,16.37 205.79,17 206.816,17 L213.386,17 Z"></path>
</svg>